<?xml version="1.0" encoding="UTF-8"?>
<svg xmlns="http://www.w3.org/2000/svg" xmlns:xlink="http://www.w3.org/1999/xlink" version="1.2" >
<font id="JimmySans-Bold">
<font-face  font-family="Jimmy Sans" units-per-em="1000" ascent="701" descent="-91" font-style="normal" font-weight="700" font-stretch="normal" cap-height="710" x-height="710" underline-position="-75" underline-thickness="50" />
<missing-glyph  horiz-adv-x="500" d="" />
<glyph glyph-name="NULL" d="" />
<glyph glyph-name="nonmarkingreturn" unicode="&#xd;" horiz-adv-x="500" d="" />
<glyph glyph-name="space" unicode="&#x20;" horiz-adv-x="200" d="" />
<glyph glyph-name="D" unicode="D" horiz-adv-x="627" d="M152 2 Q141 2 131 2 Q121 2 110 3 L106 3 L99 3 Q99 4 97 4 Q94 3 87 3 Q81 3 75.5 3.5 Q70 4 64 4 Q59 4 53.5 4.5 Q48 5 43 5 Q38 5 33.5 4.5 Q29 4 25 4 L22 4 Q14 4 7.5 10 Q1 16 1 25 Q0 39 0 52 Q0 65 0 77 L0 97 Q1 103 1 109 Q1 115 1 120 Q1 134 1.5 147.5 Q2 161 4 174 Q5 185 5.5 197 Q6 209 6 220 Q7 225 7 229 Q7 233 7 238 Q8 245 8 252 Q8 259 8 266 Q10 302 11 339 Q12 376 10 413 Q9 427 9 440.5 Q9 454 8 468 Q8 484 8 500 Q8 516 6 533 Q5 541 5.5 550 Q6 559 6 567 Q7 571 7 577 Q8 587 8.5 596.5 Q9 606 10 615 Q11 626 11.5 636 Q12 646 12 657 Q13 674 28 686 Q46 699 65 699 L73 699 Q76 699 79.5 699.5 Q83 700 86 700 Q92 700 100 699 Q108 698 117 696 Q122 695 127.5 694.5 Q133 694 138 694 L142 694 Q147 694 149 693 Q162 693 175 692 Q188 691 202 688 L210 688 Q214 688 217 687 L220 687 Q228 686 237 685 Q246 684 254 683 Q259 682 264 681 Q269 680 274 679 Q281 677 287 676 Q293 675 299 674 Q304 673 309.5 671.5 Q315 670 320 668 Q322 666 325 666 Q337 661 349 656.5 Q361 652 373 647 Q378 645 383.5 643 Q389 641 394 639 Q395 638 395 638 Q397 638 401 636 Q426 621 452 601.5 Q478 582 498 554 Q500 552 500.5 550 Q501 548 503 546 Q509 538 515 529.5 Q521 521 526 512 Q530 502 537 493 Q546 482 550.5 470.5 Q555 459 560 448 Q561 446 561.5 444 Q562 442 563 440 Q564 439 564 437 Q576 405 576 373 Q576 341 572 310 Q565 264 551 224 Q549 219 547 214 Q545 209 543 204 Q540 196 537 187 Q534 178 530 169 Q507 116 476 89 Q472 86 469 83 Q466 80 462 76 Q460 75 456 71 Q445 62 433.5 55.5 Q422 49 408 42 Q387 33 365 27.5 Q343 22 321 17 L315 15 Q311 14 304 14 Q284 12 263 10.5 Q242 9 222 7 L215 6 L210 6 Q206 6 204 5 Q180 2 152 2 Z M114 282 L114 272 Q114 266 113.5 260 Q113 254 113 248 Q113 235 112.5 222 Q112 209 112 195 L112 122 L112 112 Q112 109 115 109 Q144 102 173 102 Q192 102 212 105 Q223 107 235.5 109.5 Q248 112 262 112 Q268 112 274 112.5 Q280 113 286 113 Q290 114 299 114 Q315 116 330 124 Q344 132 359 142 Q374 152 389 164 L390 164 Q392 166 393.5 167.5 Q395 169 397 171 Q412 190 426 212.5 Q440 235 447 264 Q451 278 453 291.5 Q455 305 457 317 Q464 383 435 436 Q430 444 426.5 451.5 Q423 459 418 467 Q410 483 401 498 Q396 507 391 515 Q386 523 378 528 Q309 570 244 570 L241 570 L232 570 Q209 570 187 571 Q165 572 144 574 Q140 574 136 574.5 Q132 575 129 575 Q127 575 125.5 574.5 Q124 574 123 574 L121 574 Q120 572 120 566.5 Q120 561 120 555 L120 550 L120 549 Q120 519 119.5 488.5 Q119 458 115 428 Q114 425 114 417 L114 414 L114 302 L114 282 Z " />
<glyph glyph-name="E" unicode="E" horiz-adv-x="456" d="M169 -6 Q129 -6 83 -3 Q69 -2 56 1 Q43 4 30 8 Q7 16 4 39 Q2 56 2 73 Q2 90 3 104 Q4 135 3 160 Q2 168 2 177 Q2 186 2 194 L2 206 L2 261 L2 284 L2 294 L3 294 L3 333 Q3 374 3.5 415.5 Q4 457 4 499 Q4 504 4 510 Q4 516 3 522 Q-3 567 3 630 Q3 633 3 636.5 Q3 640 4 643 Q4 648 4.5 653 Q5 658 5 663 Q7 679 24 685 Q33 688 44 688 Q54 689 63.5 689 Q73 689 82 690 Q95 691 107.5 691 Q120 691 133 693 Q155 694 176.5 694 Q198 694 219 694 Q223 695 233 695 L236 695 L239 695 L247 695 Q261 697 274.5 697.5 Q288 698 299 698 L323 698 L346 698 L350 698 L351 698 Q359 698 366 697 Q373 696 380 695 Q382 695 384 694.5 Q386 694 388 694 Q396 692 402 686 Q408 680 408 672 Q409 659 409.5 646 Q410 633 411 621 Q411 616 409 608 Q406 596 394 593 Q389 592 385 591.5 Q381 591 377 591 L376 591 L371 591 Q357 591 343.5 590 Q330 589 316 587 Q313 586 307 586 Q254 580 209 580 L201 580 L174 580 L138 580 L133 580 Q127 580 125 579 L125 578 L125 576 L125 398 Q125 388 126 384 L129 384 Q137 385 145 385 Q153 385 161 386 Q168 387 174 387.5 Q180 388 187 388 Q192 388 197.5 388 Q203 388 208 386 Q211 385 220 385 Q223 385 226.5 385.5 Q230 386 235 386 Q251 389 273 389 Q278 389 283.5 389 Q289 389 294 388 L310 388 Q319 388 325 382 Q331 376 332 368 Q335 339 328 313 Q325 302 314 297 Q305 295 297 293.5 Q289 292 281 292 Q261 291 238 291 Q215 291 192 290 Q178 289 165.5 288.5 Q153 288 140 286 Q137 286 134 285.5 Q131 285 128 285 Q126 284 126 284 L125 284 L125 283 Q123 252 122.5 222 Q122 192 123 163 Q123 158 123.5 153 Q124 148 124 143 L124 127 Q124 119 128 111 Q130 106 132 105.5 Q134 105 136 105 L159 105 L188 105 L193 105 L201 105 Q208 105 215 105 Q222 105 230 103 Q238 101 242 101 Q245 101 248 101.5 Q251 102 254 102 Q262 104 269 104 Q276 104 284 104 Q292 104 299.5 104 Q307 104 315 102 Q323 101 330 101 Q337 101 345 100 Q350 99 354.5 99 Q359 99 364 98 L366 98 Q370 98 373.5 97.5 Q377 97 382 96 Q394 91 400.5 85.5 Q407 80 407 63 L407 61 Q407 54 407 47 Q407 40 406 32 Q406 27 404.5 23 Q403 19 401 15 L401 14 Q395 2 380 0 Q363 -1 347.5 -2 Q332 -3 315 -3 Q304 -4 292.5 -4 Q281 -4 270 -4 Q254 -5 238.5 -5 Q223 -5 208 -6 L169 -6 Z " />
<glyph glyph-name="F" unicode="F" horiz-adv-x="469" d="M48 0 Q38 0 30.5 6 Q23 12 20 21 L20 22 Q19 24 19 25 Q19 26 18 28 L17 36 Q13 61 10 86.5 Q7 112 8 138 Q9 146 9 155 Q9 164 11 172 Q13 185 13 197 Q13 209 12 223 Q12 233 12 242 Q12 251 11 260 L11 266 Q11 271 10.5 277 Q10 283 10 288 Q9 296 9 303.5 Q9 311 9 319 Q8 325 8 331 Q8 337 8 343 Q8 354 7.5 363.5 Q7 373 7 383 L7 384 Q5 403 4.5 422 Q4 441 5 461 Q5 468 4 472 Q0 496 0 520.5 Q0 545 1 569 Q2 582 2 595 Q2 608 2 621 L2 633 Q2 652 6 667 Q13 690 36 693 Q52 696 68 696 L87 696 L103 696 L118 696 L124 696 L126 696 L135 696 L144 696 Q152 696 160.5 696 Q169 696 177 698 L178 698 L182 698 Q191 698 200.5 698.5 Q210 699 219 699 Q228 699 237.5 699.5 Q247 700 257 700 Q283 700 304 697 Q315 696 326 695.5 Q337 695 348 695 Q353 695 358 695 Q363 695 368 694 L373 694 L377 694 Q381 694 385 694 Q389 694 394 693 Q415 690 421 669 Q422 667 422 664 Q427 630 421 603 Q419 597 414.5 592 Q410 587 404 586 L402 586 Q397 586 393 585.5 Q389 585 385 585 L369 585 L348 585 Q329 585 309.5 585 Q290 585 270 587 L265 587 L260 587 L255 587 L245 587 L245 588 L196 588 Q182 588 164.5 588 Q147 588 128 587 L116 587 L116 586 L116 585 Q116 584 115.5 583.5 Q115 583 115 582 Q116 567 116 552.5 Q116 538 117 523 L118 500 Q118 480 118.5 459 Q119 438 120 417 Q128 417 137 417.5 Q146 418 154 418 Q162 419 168.5 419 Q175 419 181 419 Q190 419 198 419 Q206 419 214 417 Q221 416 228 416 Q235 416 241 416 L249 416 L258 416 L269 416 Q280 416 290 415.5 Q300 415 309 415 Q324 414 332 400 Q334 398 334 396 Q337 392 339.5 386 Q342 380 340 372 Q338 366 337.5 360.5 Q337 355 336 349 Q336 341 335 337 Q334 330 328.5 324 Q323 318 315 316 L314 316 Q312 316 310.5 315.5 Q309 315 307 315 L241 315 L227 314 L222 314 Q214 314 210 315 L198 315 Q187 315 174.5 314 Q162 313 150 310 Q145 309 141.5 308.5 Q138 308 135 308 L130 308 L129 308 L119 308 Q118 306 118 296 Q117 278 117 259 Q117 240 117 219 Q117 211 117.5 202.5 Q118 194 119 186 Q119 178 119.5 170.5 Q120 163 120 155 Q121 123 121 92.5 Q121 62 122 37 Q122 32 121 27 Q120 22 119 17 Q116 5 103 2 Q97 0 94 0 L90 0 L49 0 L48 0 Z " />
<glyph glyph-name="G" unicode="G" horiz-adv-x="610" d="M286 -10 Q275 -10 263 -9.5 Q251 -9 240 -8 Q200 -5 163 15 Q152 20 142 26 Q132 32 122 40 Q100 56 88.5 69.5 Q77 83 64 109 Q59 120 54 130 Q49 140 44 151 Q41 158 38.5 164.5 Q36 171 33 178 Q33 180 32.5 180.5 Q32 181 32 183 Q30 186 29.5 189.5 Q29 193 27 196 Q25 201 24.5 204.5 Q24 208 22 212 Q14 233 11 249 Q-2 310 2 380 Q3 391 4 402.5 Q5 414 7 425 L7 430 Q8 434 8.5 437 Q9 440 10 444 Q11 445 11 446 Q18 473 30 501.5 Q42 530 59 562 Q96 631 168 664 Q192 676 216 682 L228 685 Q240 688 252 691 Q264 694 276 696 Q287 698 299 699 Q311 700 322 700 Q330 700 334 699 Q355 699 381 696 Q410 692 435.5 684.5 Q461 677 484 663 Q511 646 514.5 630 Q518 614 510 589 Q506 578 496 570 Q486 562 474 562 Q470 562 462 564 Q452 568 442.5 570.5 Q433 573 422 575 Q411 577 400.5 579 Q390 581 379 586 Q370 589 360 589 Q351 589 342 586 Q331 583 319 581.5 Q307 580 296 578 Q291 577 285 576.5 Q279 576 274 575 Q243 569 215 552 Q207 547 199 542 Q191 537 183 533 Q176 529 171 522 Q159 505 151 487.5 Q143 470 138 452 Q138 450 137.5 449.5 Q137 449 137 447 Q135 440 133 433 Q131 426 129 419 Q121 396 117.5 370.5 Q114 345 114 313 Q114 308 114.5 302.5 Q115 297 116 292 Q116 287 116.5 281.5 Q117 276 118 271 Q119 266 119.5 261.5 Q120 257 120 252 Q122 242 123.5 234 Q125 226 130 218 Q132 213 134 209 Q136 205 138 201 Q142 193 143 190 Q158 162 183 147 Q186 145 188.5 143 Q191 141 194 139 Q209 130 223.5 122 Q238 114 254 107 Q267 102 280 98 Q293 94 307 93 Q312 93 317.5 92.5 Q323 92 328 91 Q337 90 346 89.5 Q355 89 364 89 L365 89 Q394 89 431 103 Q433 104 433 106 L433 124 L433 131 Q434 147 433 164 Q433 188 434 212 Q435 236 437 259 Q439 273 439.5 286 Q440 299 441 312 Q442 331 453.5 343.5 Q465 356 485 358 Q487 358 488 358.5 Q489 359 491 359 L497 359 Q500 360 505 360 Q524 360 535 349.5 Q546 339 552 329 Q554 325 555 321.5 Q556 318 557 314 Q558 309 558.5 305 Q559 301 559 297 L559 282 Q559 255 559 227.5 Q559 200 555 172 Q552 146 552 115 L552 97 Q552 90 552 83.5 Q552 77 553 69 Q554 56 551.5 44.5 Q549 33 546 21 Q542 5 530.5 -2 Q519 -9 508 -9 L506 -9 Q494 -8 482 -7 Q470 -6 459 -5 Q454 -4 444 0 Q441 2 438 4 Q435 6 432 8 L431 8 Q427 8 425 7 Q415 2 404.5 0 Q394 -2 384 -4 Q331 -10 286 -10 Z " />
<glyph glyph-name="H" unicode="H" horiz-adv-x="531" d="M424 -12 Q419 -12 414 -12 Q409 -12 404 -11 Q386 -8 379 11 Q374 27 372 47 Q372 67 372 85 Q372 103 371 120 L371 134 Q370 147 370 160 Q370 173 368 187 Q365 235 365 294 L365 298 L365 299 L365 300 Q360 300 356.5 300.5 Q353 301 348 301 Q334 303 321 303.5 Q308 304 294 305 Q278 306 261.5 306.5 Q245 307 227 307 Q207 307 185 306.5 Q163 306 135 305 Q134 305 133.5 304.5 Q133 304 132 304 L131 304 L130 303 Q130 298 130 293.5 Q130 289 129 284 L129 274 Q129 262 128.5 249.5 Q128 237 126 225 Q125 222 125 218 Q126 198 124.5 179 Q123 160 121 141 Q120 134 119.5 127.5 Q119 121 119 113 Q115 72 113 26 Q113 17 107 10.5 Q101 4 93 3 Q85 2 77.5 2 Q70 2 63 2 Q54 2 45.5 2 Q37 2 29 4 Q4 9 1 33 Q0 37 0 41 Q0 45 0 50 Q1 61 1.5 72 Q2 83 2 94 Q3 102 3 108.5 Q3 115 4 123 L4 130 Q1 150 1.5 169 Q2 188 4 208 Q5 214 5 219 Q5 224 5 229 Q6 240 6 250.5 Q6 261 7 272 Q7 292 7.5 313 Q8 334 9 354 Q9 358 9.5 361 Q10 364 10 368 Q11 371 11 374.5 Q11 378 11 381 Q11 396 11 408.5 Q11 421 10 432 Q8 453 7.5 476 Q7 499 10 522 L10 527 L10 530 L11 559 Q11 582 11.5 605.5 Q12 629 13 652 Q13 657 13 663 Q13 669 14 674 Q15 685 23 693.5 Q31 702 42 704 Q54 706 65.5 707 Q77 708 88 710 L91 710 Q100 710 112 703 Q124 694 124 682 Q124 676 125 673 Q125 659 125 646 Q125 633 122 619 Q121 613 120.5 606.5 Q120 600 120 594 L120 494 Q121 478 121 462.5 Q121 447 122 432 Q122 429 122.5 425.5 Q123 422 123 418 L123 415 L124 415 Q125 414 126 414 Q131 413 135 412.5 Q139 412 142 411 L146 411 Q148 411 151 411.5 Q154 412 156 412 Q192 417 227.5 417.5 Q263 418 294 418 L327 418 L329 418 Q337 418 345.5 418.5 Q354 419 362 419 L369 419 Q371 419 371.5 419.5 Q372 420 374 420 Q376 420 377 421 L377 431 L377 474 L377 491 Q377 494 377 497.5 Q377 501 376 504 L376 518 Q376 528 376 536.5 Q376 545 374 554 Q373 558 373.5 561.5 Q374 565 374 568 L374 574 Q373 579 373 583.5 Q373 588 373 593 Q373 601 372.5 609.5 Q372 618 372 626 L372 627 L372 657 Q373 663 373.5 668.5 Q374 674 376 680 Q384 702 403 705 Q413 707 423 708 Q433 709 444 710 L446 710 Q455 710 462.5 703.5 Q470 697 472 688 Q474 678 474 674 Q475 652 475.5 628 Q476 604 477 580 Q478 564 478.5 548.5 Q479 533 479 518 Q479 511 479.5 504.5 Q480 498 480 491 L480 481 L479 481 L479 453 L479 363 Q479 342 479.5 325.5 Q480 309 481 294 Q483 269 483 245 Q483 221 484 197 L484 184 Q484 153 481 131 Q479 117 479 103.5 Q479 90 479 76 L479 53 Q479 44 478.5 36.5 Q478 29 477 21 Q475 10 466.5 1 Q458 -8 447 -10 Q441 -12 435 -12 Q429 -12 424 -12 Z " />
<glyph glyph-name="I" unicode="I" horiz-adv-x="156" d="M96 4 L84 4 Q73 5 61 5 Q49 5 37 6 Q31 7 26 11 Q21 15 19 21 Q18 26 17 31 Q16 36 16 41 Q15 63 14.5 85 Q14 107 13 129 Q12 139 12 149 Q12 159 11 169 L11 171 L11 179 Q8 190 7.5 202 Q7 214 7 225 L7 237 Q6 254 6 270 Q6 286 5 303 Q5 315 4.5 326.5 Q4 338 4 350 L4 353 L4 373 Q6 389 5.5 405.5 Q5 422 3 442 Q0 472 3 503 Q3 513 3.5 524 Q4 535 2 546 Q1 551 0.5 557.5 Q0 564 2 570 Q4 580 4 589.5 Q4 599 4 610 Q4 614 3.5 617.5 Q3 621 3 624 Q4 636 4 645.5 Q4 655 5 664 Q7 681 23 688 Q31 693 40 693.5 Q49 694 58 694 L60 694 L64 694 Q98 694 99 659 Q99 652 99.5 644.5 Q100 637 100 629 Q100 609 102 588.5 Q104 568 106 548 Q107 542 107.5 536 Q108 530 109 523 Q111 515 111 506.5 Q111 498 111 490 Q112 473 112.5 452.5 Q113 432 116 411 Q117 408 117 405 Q117 402 118 398 Q118 390 118.5 383 Q119 376 119 368 Q121 340 122 311.5 Q123 283 122 254 Q122 240 121.5 225.5 Q121 211 120 197 Q120 191 119.5 185 Q119 179 119 173 L119 143 L119 40 Q119 36 119 32.5 Q119 29 118 24 Q118 17 113 12 Q108 7 101 5 Q100 4 96 4 Z " />
<glyph glyph-name="J" unicode="J" horiz-adv-x="349" d="M148 -4 Q119 -4 89 7 Q70 14 46 25 Q35 30 27.5 36.5 Q20 43 14 50 Q8 55 4 66 Q-1 76 4 92 Q13 109 25 119 Q38 130 51 130 Q56 130 64 128 L73 125 Q86 121 99 116.5 Q112 112 125 107 Q131 105 137 104 Q143 103 148 103 L152 103 Q172 104 183 123 Q191 138 193 157 Q194 168 194 178.5 Q194 189 195 200 Q195 204 195.5 207.5 Q196 211 196 215 Q196 223 197 227 Q197 235 197.5 242 Q198 249 198 257 Q198 270 198 281 Q198 292 197 303 Q197 308 197 313 Q197 318 196 323 L196 333 L195 343 L196 343 L196 349 L196 385 Q196 390 196 395 Q196 400 195 405 L195 416 L195 419 Q194 424 194 434 L194 481 Q193 506 193 531 Q193 556 192 581 L192 592 Q191 596 191 599.5 Q191 603 191 605 L187 605 L180 605 L167 605 L137 605 L114 605 Q85 607 77 637 Q73 650 78 667 Q84 687 102 690 Q122 695 139 697.5 Q156 700 173 700 L181 700 Q185 700 188.5 699.5 Q192 699 197 699 Q203 699 209 699.5 Q215 700 223 700 L227 700 Q238 700 247.5 699 Q257 698 267 696 L271 695 Q299 690 299 661 L299 623 L299 597 L299 590 L299 571 Q302 554 302.5 538 Q303 522 303 506 L303 499 Q303 494 303 489 Q303 484 304 479 Q307 450 307 426 L307 424 Q305 413 307 406 Q309 379 309 349.5 Q309 320 306 285 Q306 276 305.5 267 Q305 258 305 250 Q304 242 304 235 Q304 228 303 221 Q301 197 296.5 173.5 Q292 150 287 127 L287 126 Q285 116 281 107 Q277 98 273 89 L271 87 Q265 72 253 54 Q220 0 160 -3 Q156 -4 148 -4 Z " />
<glyph glyph-name="K" unicode="K" horiz-adv-x="598" d="M493 7 L482 7 Q477 7 471 7 Q465 7 460 8 Q454 8 451 9 L447 9 L444 12 Q442 15 439 17.5 Q436 20 434 23 Q420 38 406.5 53.5 Q393 69 382 88 Q375 101 367 113 Q359 125 351 136 Q346 142 342 148 Q338 154 333 159 Q324 172 315 184.5 Q306 197 295 208 Q286 216 278 228 Q265 248 247 266 Q242 271 236 279 Q228 288 220 296.5 Q212 305 204 314 Q200 317 197 320.5 Q194 324 191 328 L190 328 Q183 327 176.5 326 Q170 325 163 324 Q158 324 154.5 323.5 Q151 323 147 322 Q131 320 118 316 Q118 313 117.5 310.5 Q117 308 117 305 Q115 276 113 247 Q111 218 112 189 Q114 145 112 104 L112 71 Q112 60 111.5 50 Q111 40 108 29 Q103 11 86 11 Q75 10 64.5 9.5 Q54 9 43 9 L42 9 Q31 9 20.5 17.5 Q10 26 8 37 Q7 42 7 51 Q7 58 6.5 64 Q6 70 6 77 Q6 96 5.5 115 Q5 134 5 153 Q5 175 5 196.5 Q5 218 6 240 L6 347 Q5 379 5 412 Q5 445 4 477 L4 523 L4 524 Q4 533 3 537 Q-1 555 2 577 Q4 591 4.5 605 Q5 619 5 633 L5 646 Q5 653 5 660 Q5 667 6 675 Q6 683 12 688 Q18 693 26 693 L27 693 L42 693 Q53 693 65 692.5 Q77 692 90 690 Q111 687 116 664 Q117 659 117.5 655 Q118 651 118 647 Q117 642 117 638 Q117 634 117 629 Q117 615 117 602 Q117 589 116 575 Q114 558 114 540 Q114 522 114 499 Q114 490 114.5 480.5 Q115 471 116 462 Q117 457 117 453 Q117 449 118 444 L118 441 L118 428 Q118 423 118.5 420.5 Q119 418 119 416 Q121 416 123.5 416.5 Q126 417 130 417 Q138 419 146.5 420 Q155 421 164 423 Q169 425 175 425.5 Q181 426 187 427 Q194 428 198 434 Q200 436 202 440 Q204 442 205.5 444.5 Q207 447 209 450 Q211 452 212 453.5 Q213 455 215 457 Q224 469 234 479 Q247 493 259 508 Q271 523 283 537 Q286 542 289.5 546 Q293 550 296 554 Q347 617 390 654 Q394 658 397.5 661 Q401 664 404 668 Q408 671 415 678 Q422 685 430 690 Q437 696 447 696 Q453 696 461 693 Q470 688 477 683 Q484 678 491 672 Q500 664 503 649 Q506 634 498 623 Q495 618 491.5 613.5 Q488 609 485 604 Q479 595 472 585.5 Q465 576 457 567 Q434 543 412.5 518 Q391 493 370 467 L365 460 Q354 447 344.5 436.5 Q335 426 325 416 Q317 408 310.5 400 Q304 392 298 384 L298 383 Q292 375 291 373 L300 364 Q313 352 324 337 Q330 326 337.5 317 Q345 308 353 299 Q358 292 362.5 286 Q367 280 372 274 Q374 271 380 265 Q381 265 381 264.5 Q381 264 382 264 Q407 239 431 206 Q434 201 437.5 196.5 Q441 192 444 187 Q451 177 458 167.5 Q465 158 472 148 Q477 140 481 133.5 Q485 127 490 120 L517 78 Q521 73 524.5 68 Q528 63 531 58 Q533 56 533.5 55 Q534 54 536 52 Q538 50 539.5 48 Q541 46 543 44 Q545 41 548 34.5 Q551 28 547 20 Q545 15 540.5 11 Q536 7 525 7 L515 7 L493 7 Z " />
<glyph glyph-name="L" unicode="L" horiz-adv-x="434" d="M97 7 L74 7 Q69 8 64 8 Q59 8 54 8 L49 8 Q26 13 16.5 23 Q7 33 2 53 Q1 56 1 63 L1 64 L1 93 Q0 112 0 131 Q0 150 0 169 L0 267 Q0 279 0 291 Q0 303 1 315 Q1 325 1.5 334 Q2 343 4 354 Q5 359 5 372 L5 373 Q6 402 6 431.5 Q6 461 7 490 L7 537 L7 541 Q7 567 10 593 Q13 606 11 622 Q11 631 12 635 L12 645 L12 660 Q13 687 39 696 Q47 699 54.5 700 Q62 701 71 701 L73 701 Q87 701 96.5 692 Q106 683 107 669 Q108 664 108 655 Q108 634 107.5 613 Q107 592 107 571 L106 547 L106 541 L106 530 Q108 508 108 486 Q108 464 108 443 Q108 430 108 418 Q108 406 109 395 L109 362 Q109 345 109 328 Q109 311 108 294 L108 264 Q107 255 107 245.5 Q107 236 107 227 Q107 208 107.5 189.5 Q108 171 108 153 Q108 145 108.5 137.5 Q109 130 109 122 L109 121 L109 119 Q109 116 111 116 L114 116 Q123 115 132 114.5 Q141 114 150 114 L171 114 L184 114 L196 114 L206 114 Q229 113 249 112.5 Q269 112 287 110 Q298 109 309 108.5 Q320 108 331 107 Q336 107 341 107 Q346 107 351 106 L354 106 Q360 106 364 105 Q373 104 380.5 97 Q388 90 389 81 Q393 59 382 33 Q375 21 362 17 Q360 15 357 15 Q354 15 350 14 L339 14 Q333 13 327 13 Q321 13 314 13 L306 13 Q294 14 281 14 Q268 14 254 14 Q230 14 206 13.5 Q182 13 159 12 L156 12 Q151 12 146 12 Q141 12 136 10 Q119 7 97 7 Z " />
<glyph glyph-name="M" unicode="M" horiz-adv-x="790" d="M664 -8 Q627 -8 621 31 Q620 36 620 40.5 Q620 45 619 50 Q617 58 616.5 65 Q616 72 614 80 Q613 91 612 104 Q611 117 609 133 Q605 168 601.5 203.5 Q598 239 595 274 Q593 289 592 305 Q591 321 590 339 Q589 354 588 369 Q587 384 586 398 Q586 406 585.5 413 Q585 420 585 428 Q582 423 579 418.5 Q576 414 573 409 Q566 393 558 378 Q550 363 542 348 Q537 339 531.5 329.5 Q526 320 521 310 L518 304 Q515 299 513 294 Q486 234 452 169 Q441 149 431 125 Q428 118 424.5 111 Q421 104 418 97 Q413 86 407.5 76.5 Q402 67 397 57 Q396 55 395 53.5 Q394 52 393 50 Q389 42 384 37 Q375 30 367 30 Q364 30 358 32 Q349 37 339 43.5 Q329 50 323 61 Q318 71 312.5 81.5 Q307 92 302 103 Q298 112 294.5 119 Q291 126 287 132 Q282 140 278.5 146.5 Q275 153 272 161 Q264 182 255 201.5 Q246 221 237 239 Q230 254 225 267.5 Q220 281 218 293 Q216 303 211.5 313 Q207 323 201 334 Q198 340 195 346 Q192 352 188 357 Q172 389 155 416 Q155 410 154 407 L154 398 Q154 396 153.5 393.5 Q153 391 153 388 Q151 371 149.5 354 Q148 337 144 320 Q143 318 143 315 Q143 312 142 308 L142 303 Q141 296 140 289.5 Q139 283 138 277 Q136 261 134.5 245.5 Q133 230 131 214 Q130 210 130 206 Q130 202 129 197 Q127 182 126 166.5 Q125 151 125 135 Q124 116 122 97 Q120 78 118 59 Q117 54 116.5 49 Q116 44 116 39 Q113 17 92 13 L90 13 Q78 10 66 10 Q51 10 39 14 Q5 23 3 58 Q2 64 2.5 70 Q3 76 3 82 L3 83 L0 83 Q2 98 4 111 Q6 122 6.5 133 Q7 144 8 149 Q9 154 9.5 158 Q10 162 10 167 Q12 177 13 187 Q14 197 16 207 Q17 214 17.5 221 Q18 228 19 235 Q21 242 21.5 248.5 Q22 255 23 262 L26 289 Q27 291 27 296 Q29 319 32 343 Q35 367 37 391 Q38 394 38 402 Q39 409 40 416 Q41 423 41 430 Q43 444 44 457.5 Q45 471 47 485 Q49 503 50.5 521.5 Q52 540 54 559 Q54 568 55.5 577 Q57 586 59 594 L62 609 L68 642 Q69 646 69.5 649.5 Q70 653 71 658 Q74 674 89 681 Q105 689 120 689 Q126 689 132 688 Q138 687 145 685 Q160 679 168 663 Q175 649 182 634.5 Q189 620 196 606 L201 597 Q205 589 209 581 Q213 573 216 567 Q218 563 220 561 Q222 557 223.5 554 Q225 551 227 546 Q230 537 234 528 Q238 519 243 510 Q245 508 246 505 Q247 502 249 500 Q271 455 290 417 Q309 379 326 341 Q329 334 332 327 Q335 320 338 312 Q343 295 349.5 280.5 Q356 266 364 250 Q366 248 366.5 246.5 Q367 245 368 243 L369 244 Q371 248 371 250 Q378 269 387.5 286 Q397 303 408 320 Q409 321 411 325 Q422 341 429.5 357 Q437 373 444 387 Q448 395 451.5 403 Q455 411 459 419 Q468 437 476.5 455.5 Q485 474 494 493 Q497 500 501 507 Q506 517 510 526 Q514 535 517 545 Q519 549 520 550 Q528 563 534 576 Q540 589 547 602 Q555 617 562.5 632.5 Q570 648 579 662 Q598 693 632 699 L638 699 Q651 699 665 690 Q679 681 683 667 Q685 657 687.5 645.5 Q690 634 690 622 Q690 565 693 493 Q693 473 696 454 Q700 431 701.5 409.5 Q703 388 704 367 Q705 346 707 326.5 Q709 307 712 288 Q714 276 715.5 264 Q717 252 717 241 Q716 223 717.5 205 Q719 187 721 170 L724 140 Q725 135 725 130 Q725 125 726 120 Q727 115 727.5 111.5 Q728 108 728 103 Q730 86 731.5 68.5 Q733 51 735 33 L735 16 Q735 8 729.5 2 Q724 -4 716 -4 Q713 -5 709.5 -5 Q706 -5 703 -5 Q694 -6 685 -7 Q676 -8 667 -8 L664 -8 Z " />
<glyph glyph-name="N" unicode="N" horiz-adv-x="660" d="M81 6 L74 6 Q69 7 63.5 7.5 Q58 8 52 9 Q48 9 44.5 9.5 Q41 10 37 10 Q20 12 14 18.5 Q8 25 3 39 Q1 48 0.5 56.5 Q0 65 0 73 L0 99 L0 172 Q0 236 3 298 Q3 309 3.5 320 Q4 331 4 342 L4 349 Q5 372 5 395.5 Q5 419 3 442 Q2 450 2 456.5 Q2 463 2 471 L2 486 Q1 508 2 529.5 Q3 551 4 572 Q4 585 4.5 597.5 Q5 610 5 622 Q6 633 7 643.5 Q8 654 10 664 Q10 666 10.5 667 Q11 668 11 670 Q14 695 42 700 Q47 701 52 701.5 Q57 702 62 702 Q67 702 72 701.5 Q77 701 82 700 Q102 697 116 680 Q133 658 151 636.5 Q169 615 186 594 L198 579 Q202 574 206.5 569.5 Q211 565 216 559 Q242 532 268.5 502.5 Q295 473 321 441 Q325 437 328.5 433 Q332 429 337 424 Q349 412 359 399 Q369 386 379 373 Q381 370 383.5 367 Q386 364 388 360 Q390 358 391 356.5 Q392 355 394 353 Q400 344 407 337 Q425 319 443.5 301 Q462 283 479 265 L480 264 L480 274 Q480 283 480 292 Q480 301 479 310 Q479 317 479 323.5 Q479 330 478 337 L478 354 Q477 359 477 364.5 Q477 370 477 376 L477 399 L477 428 L477 459 L477 551 Q476 562 475.5 572.5 Q475 583 473 594 Q473 601 472.5 607.5 Q472 614 471 621 Q470 631 469.5 641.5 Q469 652 470 663 Q471 675 477.5 685 Q484 695 497 700 Q505 703 515 705 Q525 707 537 707 Q547 707 559 701 Q586 689 588 657 Q590 628 592 598.5 Q594 569 594 539 Q593 513 594 488 Q595 463 596 437 L596 434 Q598 405 598.5 378.5 Q599 352 597 328 Q596 311 596.5 295 Q597 279 598 262 Q598 253 598.5 243.5 Q599 234 599 224 Q599 207 600 189.5 Q601 172 603 155 L603 145 Q605 126 605.5 107 Q606 88 607 69 Q607 66 607.5 62.5 Q608 59 608 55 Q609 41 598 30.5 Q587 20 575 19 L570 19 Q568 19 565 18.5 Q562 18 558 18 Q553 18 549.5 18.5 Q546 19 542 20 L539 21 L538 22 Q511 44 489 72 Q480 84 470.5 95.5 Q461 107 451 118 Q443 128 434.5 137.5 Q426 147 418 158 Q407 172 394.5 185 Q382 198 370 211 Q366 214 363 217.5 Q360 221 356 225 Q341 241 329 254.5 Q317 268 307 282 Q300 291 292 300 Q284 309 276 318 Q273 321 269.5 324.5 Q266 328 263 332 L254 341 Q250 345 246.5 348.5 Q243 352 239 357 Q225 376 209 393 Q193 410 174 430 Q163 441 153 452 Q143 463 132 474 Q130 474 130 476 L130 427 Q130 393 130 358 Q130 323 131 288 Q132 260 132 228.5 Q132 197 130 164 Q129 159 129.5 153.5 Q130 148 130 143 L130 130 Q130 127 130 123.5 Q130 120 131 116 L131 62 Q131 55 130 48.5 Q129 42 127 35 Q121 12 95 7 Q91 6 81 6 Z " />
<glyph glyph-name="O" unicode="O" horiz-adv-x="706" d="M345 6 Q309 6 273 12 L268 12 Q258 14 248.5 15.5 Q239 17 230 20 Q228 20 227 20.5 Q226 21 224 21 Q219 23 213.5 24.5 Q208 26 203 29 Q197 34 190 37 Q183 40 175 44 Q171 46 167 48.5 Q163 51 158 53 Q138 64 120.5 77 Q103 90 86 104 Q50 135 34 179 Q26 199 21.5 218 Q17 237 12 257 Q4 288 3 316 Q2 344 2 356 Q0 403 3 435.5 Q6 468 14 497 L14 500 Q16 505 17 509.5 Q18 514 20 519 Q39 563 61 591 Q68 599 76.5 606 Q85 613 93 620 Q95 621 97 623 Q115 636 136 650 Q154 661 172 670.5 Q190 680 210 687 Q214 689 218 690 Q222 691 226 693 Q233 697 240 698.5 Q247 700 255 702 Q269 704 282 705.5 Q295 707 308 707 Q323 707 337.5 705.5 Q352 704 366 699 Q368 699 369.5 698.5 Q371 698 373 698 Q377 695 383 695 Q422 689 450 667 Q452 666 454 665.5 Q456 665 459 663 Q460 662 461 662 Q471 658 475 657 L496 648 Q534 631 554 607 L563 598 L567 594 Q595 565 608 532 Q617 511 624 492.5 Q631 474 637 457 Q658 390 651 318 Q649 291 643.5 264 Q638 237 631 211 Q622 172 602.5 140.5 Q583 109 565 86 Q562 82 558.5 79 Q555 76 550 72 Q506 35 457 23 Q453 22 449.5 21 Q446 20 442 19 Q435 17 428.5 15 Q422 13 414 11 Q397 9 379.5 7.5 Q362 6 345 6 Z M294 585 L292 585 Q276 583 258 580 Q240 577 223 570 Q201 561 191 549 Q159 511 140 472 Q127 442 118 398 Q117 393 117 386 Q119 375 119 365 Q119 355 119 345 L119 322 L119 321 L119 308 Q119 300 119 292.5 Q119 285 120 277 Q120 258 126 245 L127 244 Q132 233 137.5 223.5 Q143 214 151 206 Q178 174 212 156 Q215 154 218 152.5 Q221 151 223 149 Q227 147 230 145.5 Q233 144 236 142 Q240 140 242 138 Q253 133 262.5 128.5 Q272 124 283 124 Q290 124 293 123 L294 123 Q316 118 334 118 Q360 118 390 126 Q391 127 392 127 Q393 127 394 128 L406 131 Q415 132 423.5 135 Q432 138 440 142 Q442 143 443.5 143.5 Q445 144 447 145 Q469 154 487 179 Q497 192 504 204 Q511 216 517 230 Q537 275 542 321 Q548 374 533 440 Q529 457 521.5 472.5 Q514 488 506 502 Q500 510 492 516 Q489 518 485.5 520 Q482 522 479 524 Q469 530 459.5 536.5 Q450 543 440 549 Q429 557 417 561.5 Q405 566 392 569 Q370 574 347.5 578 Q325 582 302 584 L301 585 L294 585 Z " />
<glyph glyph-name="P" unicode="P" horiz-adv-x="517" d="M70 2 Q44 2 26 9 L21 10 L20 15 Q19 16 19 19 Q16 23 16 31 Q15 41 15 50.5 Q15 60 15 69 L15 81 L15 90 L15 105 Q13 122 12.5 139.5 Q12 157 12 174 L12 186 L12 223 Q12 247 12 271.5 Q12 296 10 321 Q8 345 7.5 369.5 Q7 394 6 417 Q5 447 4 478 Q3 509 1 540 Q0 557 0 570.5 Q0 584 2 597 L2 614 Q2 617 2 620.5 Q2 624 3 627 L3 628 Q3 641 4 653.5 Q5 666 10 679 Q15 691 27 696 Q38 700 50 702.5 Q62 705 75 705 L82 705 L99 705 L120 705 L136 705 L137 705 Q139 706 141 706 L144 706 Q149 705 153.5 704.5 Q158 704 163 704 Q171 704 179 704.5 Q187 705 195 706 Q198 707 203 707 L210 707 Q215 707 221 706.5 Q227 706 232 705 L233 705 Q243 703 253 701.5 Q263 700 273 698 Q277 697 285 697 L291 697 L300 697 Q317 697 333.5 693.5 Q350 690 364 686 Q369 685 373 682.5 Q377 680 381 677 Q432 640 456 590 Q470 562 470 530 L470 521 L470 502 Q471 493 469.5 485 Q468 477 466 469 Q464 464 463.5 459.5 Q463 455 461 450 Q461 447 460 445 Q448 389 411 355 Q399 344 390 334 Q364 303 316 292 Q312 291 302 289 Q293 287 283.5 285 Q274 283 264 281 Q247 279 231 278 Q215 277 199 275 Q188 274 177 274 Q166 274 155 273 L134 273 Q132 273 130.5 272.5 Q129 272 127 272 L125 272 L124 272 L124 271 Q124 268 123.5 265.5 Q123 263 124 260 L124 215 Q124 197 124.5 179 Q125 161 125 143 L125 141 Q125 121 125.5 102 Q126 83 128 64 Q129 54 127 45.5 Q125 37 123 28 Q123 26 122.5 24.5 Q122 23 122 21 Q117 5 99 3 Q91 2 84 2 Q77 2 70 2 Z M122 372 Q124 371 127 371 L130 371 Q150 371 169.5 371.5 Q189 372 209 374 Q233 377 257 383 Q262 384 268 385 Q274 386 280 388 Q288 390 294 392 L303 395 Q312 396 323 406 Q343 422 352 446 Q370 494 357 540 Q345 587 300 596 Q287 600 272 600 Q244 601 215.5 601 Q187 601 158 601 Q147 601 137.5 600.5 Q128 600 118 599 L118 592 L118 591 L118 517 L118 505 L119 505 L119 495 L119 475 L119 428 Q119 417 119.5 407 Q120 397 121 386 L121 376 Q122 375 122 372 Z " />
<glyph glyph-name="Q" unicode="Q" horiz-adv-x="697" d="M435 -91 Q427 -91 420 -88 Q401 -78 391 -63 Q382 -49 372.5 -34.5 Q363 -20 353 -6 Q350 -1 346.5 3.5 Q343 8 340 13 L335 13 L309 13 L302 13 L287 13 L275 13 L272 13 Q236 13 199 25 Q148 43 122 73 Q119 77 115.5 80 Q112 83 108 87 Q102 91 96 99 Q70 126 53 154 Q36 182 26 211 Q13 248 3 302 Q2 306 2 309.5 Q2 313 1 316 Q0 348 3.5 380 Q7 412 15 444 Q16 448 18 458 Q20 465 22 471.5 Q24 478 26 486 L26 487 Q27 492 31 502 Q34 507 36.5 511.5 Q39 516 41 521 Q52 541 63 561 Q74 581 88 600 Q131 650 186 675 Q214 687 259 698 Q272 701 289 701 Q294 701 299.5 700.5 Q305 700 311 700 Q313 699 317 699 Q320 698 325 698 L327 698 Q331 699 339 699 Q351 699 362.5 696.5 Q374 694 386 690 Q388 689 389 689 Q390 689 392 688 Q406 683 419.5 679.5 Q433 676 447 674 Q452 673 457.5 671.5 Q463 670 468 668 Q469 667 470 667 Q471 667 472 666 Q499 657 518 637 Q521 634 524 630.5 Q527 627 530 624 Q541 612 552 600 Q563 588 573 575 Q584 561 593 547.5 Q602 534 610 520 Q615 512 618 504.5 Q621 497 623 489 Q636 447 641 405 Q646 363 642 321 Q634 232 592 168 Q588 163 585 157 Q582 151 579 145 Q554 97 505 62 Q501 59 497 56.5 Q493 54 489 52 Q487 50 486 49.5 Q485 49 484 48 Q480 46 480 45 Q480 44 481 43 Q485 37 487 33 L511 -3 Q526 -25 519 -50 Q512 -68 496 -74 Q493 -74 489 -76 Q464 -80 447 -89 Q443 -91 435 -91 Z M274 569 Q257 569 246 565 Q240 563 234 561.5 Q228 560 221 558 Q211 556 202 550.5 Q193 545 184 539 Q182 537 181 537 Q177 535 173 528 L164 513 Q129 445 119 382 Q114 349 114 316 Q114 283 121 251 Q123 246 125 241 Q127 236 129 231 Q131 226 132.5 221.5 Q134 217 136 212 Q142 189 162 169 Q170 162 177 155 Q184 148 191 142 Q198 135 212 132 Q230 127 249 125 Q268 123 285 121 Q283 126 281.5 130 Q280 134 278 138 Q276 145 273 151 Q270 157 268 164 Q264 174 261 185 Q258 196 259 207 Q259 217 266 228 Q271 233 278 238 Q285 243 296 245 Q305 247 316.5 248 Q328 249 339 250 L342 250 Q348 250 353 248.5 Q358 247 362 245 Q377 238 386 222 Q393 211 399 199 Q405 187 413 173 L416 167 Q418 164 419.5 160.5 Q421 157 423 154 Q423 155 424 155 Q454 177 473 211 Q475 215 476.5 218.5 Q478 222 480 225 Q486 240 493 250 Q506 269 509 298 Q511 327 513 352.5 Q515 378 513 404 Q510 458 486 500 Q478 513 468 523 Q458 533 447 543 Q445 545 442 545 L441 546 Q431 550 422 553 Q413 556 403 557 Q391 559 378.5 560.5 Q366 562 353 565 Q340 569 319 569 L311 569 L301 569 L290 569 L276 569 L274 569 Z " />
<glyph glyph-name="R" unicode="R" horiz-adv-x="552" d="M460 6 Q458 6 457 7 L409 10 L393 12 Q388 12 382.5 15 Q377 18 373 26 Q365 42 357 60 Q349 78 342 98 Q335 118 324 139 Q315 155 307.5 171.5 Q300 188 293 204 Q291 207 290.5 210 Q290 213 288 215 Q283 228 277.5 240.5 Q272 253 266 265 L264 271 L263 271 Q257 273 253 273 Q251 273 248 272.5 Q245 272 243 272 L238 272 Q221 271 207 270.5 Q193 270 180 270 Q165 270 151.5 270.5 Q138 271 126 272 Q125 267 125 257 Q124 244 124 231 Q124 218 123 204 Q123 186 122.5 167.5 Q122 149 122 131 L122 130 L122 121 Q122 110 121.5 97.5 Q121 85 118 73 Q117 69 117 65 Q117 61 117 56 L117 47 L117 43 Q117 33 116 28 Q115 19 109 13 Q103 7 95 7 L94 7 Q71 7 52.5 7.5 Q34 8 17 9 Q12 9 8 13 Q4 17 2 21 Q0 26 0 36 L0 37 L0 76 L0 114 L0 125 L0 139 Q0 146 0 153.5 Q0 161 1 170 Q1 175 1 180.5 Q1 186 2 191 Q2 199 2.5 206.5 Q3 214 3 222 Q4 230 4 237.5 Q4 245 4 253 Q3 268 3.5 283 Q4 298 6 312 L6 323 Q4 358 4 396.5 Q4 435 8 482 Q9 490 9 497.5 Q9 505 9 513 Q9 519 9 525 Q9 531 10 537 Q11 550 11.5 563 Q12 576 13 590 Q14 607 14.5 625 Q15 643 16 660 Q17 674 24 682 Q31 690 38 695 Q45 700 52 700 Q62 699 72 699 Q82 699 93 698 Q101 698 108 697.5 Q115 697 122 696 Q130 695 138 694.5 Q146 694 154 694 Q162 693 169.5 693 Q177 693 185 693 L194 693 Q230 693 265 693.5 Q300 694 333 695 L335 695 Q361 695 385 686 Q392 682 399 681 Q450 665 479 606 Q487 592 492 575.5 Q497 559 502 540 Q503 535 503.5 529.5 Q504 524 503 519 Q503 508 502.5 496.5 Q502 485 502 474 Q501 463 500.5 451.5 Q500 440 500 429 Q499 388 470 347 Q463 336 455 326.5 Q447 317 438 307 Q419 287 396 279 Q395 279 394.5 278.5 Q394 278 393 278 Q396 270 399.5 261.5 Q403 253 407 245 Q427 201 447 153 Q456 133 465 111 Q474 89 483 65 Q488 53 490 37 L491 36 Q493 25 486 17 Q478 7 468 7 L466 7 Q464 7 463 6.5 Q462 6 460 6 Z M123 378 Q131 375 138 374.5 Q145 374 152 374 Q163 374 172.5 374 Q182 374 192 373 L217 373 Q234 372 248.5 372 Q263 372 276 372 L277 372 Q324 372 353 399 Q355 401 355.5 401 Q356 401 357 402 Q383 422 387 459 Q390 489 381 523 Q378 536 368 550 Q361 560 352 563 L351 564 Q334 570 317 575 Q300 580 283 582 Q272 583 262 583 Q252 583 242 583 L232 583 L223 583 Q218 583 212 583 Q206 583 200 584 L192 584 Q170 584 148 581 Q142 581 135.5 580.5 Q129 580 122 580 L122 554 Q122 549 122 545 Q122 541 123 536 L123 508 L123 452 Q122 440 122 427.5 Q122 415 122 403 Q122 398 122 392.5 Q122 387 123 382 L123 378 Z " />
<glyph glyph-name="S" unicode="S" horiz-adv-x="505" d="M246 -12 Q187 -9 138 6 Q121 12 105 16.5 Q89 21 72 23 Q63 24 55 26.5 Q47 29 39 32 Q37 33 31 35 Q16 41 7 57 Q-5 74 2 94 L14 130 Q15 133 16 135.5 Q17 138 18 141 Q18 143 20 145 Q23 151 29.5 154.5 Q36 158 42 158 Q47 158 49 157 Q62 152 75 149 Q88 146 101 143 Q110 141 118.5 138.5 Q127 136 136 134 Q143 132 149.5 130 Q156 128 163 126 Q171 124 178.5 122 Q186 120 194 118 Q196 117 196.5 117 Q197 117 199 116 Q207 114 214 112.5 Q221 111 229 109 Q231 109 233 108.5 Q235 108 237 108 Q244 107 251 106 Q258 105 265 103 Q269 102 275 102 Q302 102 315 128 Q322 144 325 157.5 Q328 171 325 185 Q323 192 321 199.5 Q319 207 315 214 Q302 240 288 257 Q283 264 277.5 268 Q272 272 266 275 Q261 277 257 278.5 Q253 280 248 282 Q238 287 228 290.5 Q218 294 208 298 Q181 308 157 322 Q133 336 113 353 L110 356 Q107 359 104 361.5 Q101 364 98 366 Q63 394 46 444 Q33 488 39 526 Q40 528 40 531 Q41 535 41 542 Q42 556 46 570 Q50 584 58 600 Q78 641 108 672 Q120 685 140 693 Q191 712 246 717 L261 717 Q293 717 320 705 Q328 701 335 698 Q342 695 350 692 Q358 688 367 684.5 Q376 681 385 677 Q398 671 410 664.5 Q422 658 434 651 Q438 649 444 645 Q458 637 458 620 L458 618 Q458 611 457 607 Q455 602 454.5 598 Q454 594 452 589 Q450 584 448.5 578 Q447 572 445 566 Q442 555 432 549 Q422 543 411 543 Q405 543 399 545 Q395 548 391 549 Q390 549 390 549.5 Q390 550 389 550 L359 565 Q336 577 311.5 584.5 Q287 592 262 599 L261 600 Q258 601 251 601 Q248 602 242 602 Q239 603 233 603 Q214 603 201 586 Q184 564 173 541 Q166 524 166 503 Q167 474 194 450 Q210 435 234 427 Q257 418 274 410.5 Q291 403 308 395 Q325 387 343 375 Q347 373 350.5 371 Q354 369 358 367 Q374 358 385 340 Q390 333 395 327 Q400 321 405 314 Q407 312 409 309.5 Q411 307 413 305 Q447 265 455 215 Q459 188 456 153 Q451 117 440 90 Q427 53 394 31 Q379 20 361.5 11.5 Q344 3 323 1 Q306 -1 293 -6 Q282 -10 271 -10.5 Q260 -11 249 -12 L246 -12 Z " />
<glyph glyph-name="T" unicode="T" horiz-adv-x="530" d="M214 -8 L200 -8 Q182 -8 177 11 Q175 16 174 21.5 Q173 27 173 32 L173 83 L173 99 Q173 113 173.5 126.5 Q174 140 172 154 Q171 165 171 175 Q171 185 171 196 L171 199 Q172 216 171.5 231.5 Q171 247 169 263 Q169 274 168.5 284.5 Q168 295 168 306 Q168 308 167.5 309.5 Q167 311 167 313 L167 322 Q166 335 166 347 Q166 359 166 371 Q166 397 166 422.5 Q166 448 165 474 Q164 494 163.5 514.5 Q163 535 161 555 Q160 563 160 571 Q160 579 159 587 Q149 587 139.5 587.5 Q130 588 121 589 Q101 592 80 592 L76 592 L69 592 Q59 592 49.5 592.5 Q40 593 30 593 Q28 593 26.5 593.5 Q25 594 23 594 Q13 594 7 600.5 Q1 607 0 618 L0 620 L0 629 L1 632 Q1 641 1.5 650.5 Q2 660 3 670 Q5 689 24 697 Q31 700 40 700 Q54 700 67.5 700 Q81 700 95 701 L111 701 L113 701 L114 701 L117 701 Q143 701 168.5 700 Q194 699 219 697 Q236 696 253 695.5 Q270 695 287 694 L302 694 L329 694 L420 694 Q430 693 439 692 Q448 691 456 688 Q478 682 481 660 Q483 649 483 638 Q483 627 483 618 Q485 602 465 595 Q457 592 448 592 L447 592 L442 592 Q432 592 422.5 591 Q413 590 402 589 Q399 588 396 588 Q393 588 390 587 Q354 584 324 584 L305 584 L302 584 Q298 584 293.5 583.5 Q289 583 284 583 Q283 582 280 582 L280 581 Q282 550 282.5 519 Q283 488 282 458 L282 404 L282 334 L282 312 L282 303 L282 264 L282 164 Q283 158 283 152 Q283 146 283 140 Q284 135 284 130 Q284 125 284 120 Q284 98 284.5 75.5 Q285 53 285 28 Q285 23 283 15 L283 11 Q282 5 277 0.5 Q272 -4 267 -6 L265 -6 Q264 -7 259 -7 L251 -8 L214 -8 Z " />
<glyph glyph-name="U" unicode="U" horiz-adv-x="596" d="M264 -13 Q223 -13 185 -5 Q166 0 147.5 6.5 Q129 13 113 28 Q108 33 100 37 Q81 48 69.5 64 Q58 80 50 96 Q38 119 30.5 143 Q23 167 17 191 L16 193 Q14 201 14 205 Q13 213 12.5 221 Q12 229 11 237 Q9 251 8 265.5 Q7 280 8 294 Q8 320 5 344 Q3 357 3 370 Q3 383 2 396 L2 411 Q1 419 1 426 Q1 433 1 440 L1 453 Q0 500 2 538.5 Q4 577 9 613 L10 618 Q12 629 13 639 Q14 649 14 659 Q14 670 17 678 Q20 689 27 697.5 Q34 706 53 707 Q58 707 62.5 706.5 Q67 706 72 705 Q75 705 78 704.5 Q81 704 84 704 Q93 703 100 702.5 Q107 702 112 697 Q117 692 119 684 Q121 676 123 664 Q124 659 124 653.5 Q124 648 124 643 Q122 615 121 587 Q120 559 119 533 Q119 520 118 507.5 Q117 495 115 483 Q114 478 113.5 472.5 Q113 467 113 462 Q113 460 112.5 458.5 Q112 457 112 455 Q111 451 111 444 Q110 429 110 413.5 Q110 398 109 383 L109 352 Q107 307 118 263 Q120 258 120 254 Q120 250 121 245 Q121 235 128 223 Q133 215 138 201 Q142 186 153 174 Q157 169 160.5 165 Q164 161 167 156 Q169 154 170 152.5 Q171 151 172 149 Q188 128 209 127 Q215 126 223 125 Q231 124 239 120 Q248 117 259 117 Q266 117 271 118 Q273 118 275.5 118.5 Q278 119 281 119 Q291 121 300.5 122 Q310 123 321 124 Q330 124 341 132 Q355 142 366.5 154 Q378 166 389 178 Q390 179 390.5 180.5 Q391 182 392 184 Q393 185 393 185.5 Q393 186 394 187 Q400 198 404 208.5 Q408 219 411 229 Q427 290 427 336 Q427 355 428 374 Q429 393 430 412 Q431 423 431 433 Q431 443 432 454 Q433 469 433 484.5 Q433 500 433 517 Q433 540 436 572 L439 623 Q439 628 439.5 632 Q440 636 440 641 Q440 647 440.5 653.5 Q441 660 441 666 Q441 677 442 682 L442 688 L442 690 Q444 700 450.5 706 Q457 712 466 712 L467 712 Q477 712 485 711.5 Q493 711 501 711 Q515 709 520 703.5 Q525 698 529 686 Q534 669 535 646 Q535 632 536 618 Q537 604 539 590 Q539 586 539.5 582 Q540 578 540 573 Q540 561 540.5 549 Q541 537 544 525 Q546 517 546 510 Q546 503 546 495 L546 488 Q546 483 545.5 479 Q545 475 545 471 Q545 466 544.5 462 Q544 458 544 453 Q545 417 543.5 382 Q542 347 540 315 Q534 205 491 119 Q487 111 482 102 Q477 93 469 85 Q463 78 457.5 72 Q452 66 446 60 L441 55 Q437 50 432 47 L431 46 Q404 29 376 13 Q348 -3 315 -9 Q304 -11 294.5 -12 Q285 -13 276 -13 L264 -13 Z " />
<glyph glyph-name="W" unicode="W" horiz-adv-x="883" d="M159 -8 Q139 -8 132 11 Q127 21 124 33 Q122 39 120 45.5 Q118 52 116 59 Q107 92 98.5 126.5 Q90 161 85 196 Q83 212 79.5 227 Q76 242 73 257 Q71 264 70 271 Q69 278 67 285 Q67 288 65 294 Q64 299 63 304 Q62 309 62 314 Q60 337 56 360.5 Q52 384 47 410 L41 443 Q36 472 30 501 Q24 530 19 559 Q18 562 17.5 564.5 Q17 567 16 571 L13 583 Q9 600 6 615 Q3 630 1 645 Q0 650 0 654 Q0 658 0 662 L0 666 Q0 674 5 680.5 Q10 687 18 689 Q20 690 20 690 Q28 692 33 692 Q38 693 44 693 Q50 693 56 693 L70 693 Q94 691 103 669 Q104 666 105 663 Q106 660 107 655 Q112 628 118.5 600.5 Q125 573 132 547 Q135 532 138.5 517 Q142 502 146 487 Q153 457 159.5 427 Q166 397 171 365 Q173 356 174.5 346.5 Q176 337 178 327 Q180 316 182 304.5 Q184 293 186 282 Q188 266 191 250.5 Q194 235 196 220 Q197 217 197 214 Q197 211 198 208 Q200 213 202.5 218 Q205 223 207 228 Q209 233 212 238.5 Q215 244 217 250 Q223 264 228 277 Q233 290 236 304 Q237 310 238.5 316 Q240 322 242 327 Q246 335 249 343.5 Q252 352 255 360 Q259 370 262.5 380 Q266 390 270 400 Q272 407 274.5 414 Q277 421 279 428 Q281 431 281.5 434.5 Q282 438 284 442 Q289 456 292 467 Q297 484 302.5 499.5 Q308 515 314 532 Q318 543 322 554 Q326 565 330 576 Q334 586 337.5 595.5 Q341 605 344 614 Q349 627 355 637.5 Q361 648 367 658 Q369 662 371.5 664.5 Q374 667 377 670 L380 673 L382 675 L384 676 Q389 677 393.5 677.5 Q398 678 403 678 Q413 678 417 677 Q433 676 444 660 Q449 655 450 650 Q452 645 454 641 Q456 637 458 632 Q466 610 472 592 Q480 570 488.5 547 Q497 524 504 501 Q506 495 507.5 489 Q509 483 511 477 Q525 428 541 385 Q547 370 551 355.5 Q555 341 558 330 Q562 316 566.5 302 Q571 288 576 274 Q580 264 584 254.5 Q588 245 592 235 Q594 233 594 231 Q596 237 597 243 Q598 249 599 254 Q604 278 610.5 302 Q617 326 624 349 Q627 359 629.5 368.5 Q632 378 635 389 Q635 390 636 391 Q638 399 640 402 Q647 418 651 434.5 Q655 451 659 468 Q661 474 661 479 Q667 505 673 531 Q679 557 685 583 L685 584 Q690 604 695 625 Q700 646 705 666 Q706 668 706 670 Q709 679 711 685 Q713 691 718 695 Q723 700 730 701 Q737 702 746 702 L751 702 L752 702 L763 702 L775 702 L778 702 Q784 702 789 701.5 Q794 701 799 700 Q804 699 809.5 696.5 Q815 694 819 687 Q823 681 822.5 674 Q822 667 821 662 Q814 637 808.5 612 Q803 587 798 561 L796 552 Q793 532 785 508 Q777 485 770 461.5 Q763 438 757 415 Q756 412 755 409 Q754 406 753 403 L748 384 Q743 367 738.5 349.5 Q734 332 729 315 Q727 309 725.5 302.5 Q724 296 721 290 Q717 282 714.5 273 Q712 264 709 255 L706 246 Q705 243 704 239.5 Q703 236 702 232 Q700 227 699 222.5 Q698 218 696 213 Q695 211 694.5 208 Q694 205 693 203 Q689 192 688 184 Q681 152 670.5 121.5 Q660 91 649 61 Q644 49 641 39 Q639 34 637 29.5 Q635 25 633 21 Q630 15 624.5 8 Q619 1 608 1 Q602 1 593 4 Q573 10 563 31 Q562 32 562 32.5 Q562 33 561 34 Q560 36 559 38.5 Q558 41 557 43 Q551 60 544 77 Q537 94 528 111 Q524 119 521.5 126 Q519 133 516 140 Q514 144 513 148 Q512 152 510 156 L492 201 Q484 221 475 242 Q466 263 458 284 Q429 359 408 435 Q406 440 405 445 Q404 450 402 455 Q390 424 379 392 Q374 379 370 366 Q366 353 361 340 Q357 329 353.5 319 Q350 309 346 299 L331 257 Q325 240 319 223 Q313 206 307 189 Q305 182 302 175.5 Q299 169 297 162 Q296 160 295.5 158 Q295 156 294 154 Q292 149 291 144.5 Q290 140 288 135 L287 134 Q282 123 277.5 111 Q273 99 268 88 Q263 78 258.5 68 Q254 58 249 48 Q246 41 242.5 34.5 Q239 28 236 20 Q229 8 219 3 Q204 -5 188 -7 Q177 -7 172 -8 L163 -8 L159 -8 Z " />
<glyph glyph-name="V" unicode="V" horiz-adv-x="695" d="M291 -1 Q272 -1 263 14 Q261 18 259.5 22 Q258 26 256 30 L255 32 Q249 43 243.5 55 Q238 67 233 78 L222 101 Q222 102 221 102 Q210 119 202.5 137.5 Q195 156 188 174 Q186 178 184.5 182 Q183 186 181 191 Q179 195 177.5 199 Q176 203 174 208 Q163 235 152 262.5 Q141 290 128 316 Q120 333 113 351.5 Q106 370 99 387 L81 435 Q69 462 59 490.5 Q49 519 39 547 L37 555 Q33 564 30 573.5 Q27 583 25 592 Q20 606 16 619 Q12 632 7 645 Q5 650 4 656 Q3 662 1 669 Q0 674 0.5 678.5 Q1 683 2 687 Q3 696 9.5 702 Q16 708 24 708 Q31 708 37.5 708.5 Q44 709 50 709 Q58 709 64 708.5 Q70 708 75 707 L78 707 L81 705 Q99 689 108 672 Q117 655 124 637 Q129 626 134 614.5 Q139 603 144 592 Q149 581 153 570.5 Q157 560 162 549 Q166 540 170 531 Q174 522 178 514 Q181 509 183.5 503 Q186 497 189 492 Q194 483 197.5 473.5 Q201 464 206 455 Q208 449 211 443 Q214 437 216 431 Q220 423 223 415.5 Q226 408 230 400 Q235 390 239 380.5 Q243 371 247 361 Q249 359 249 357 Q254 346 257 336 Q262 318 269 299.5 Q276 281 283 263 Q288 251 292 239 Q296 227 301 214 L304 220 Q310 231 316 242.5 Q322 254 327 265 Q333 276 338 285 Q343 294 348 302 Q369 334 380 362 Q385 376 391.5 390 Q398 404 406 418 Q416 435 426 453.5 Q436 472 447 493 Q449 497 450.5 500.5 Q452 504 454 508 Q456 510 456.5 513 Q457 516 459 519 Q476 554 492.5 588.5 Q509 623 526 657 L546 696 Q552 710 567 710 L568 710 Q573 710 579 709.5 Q585 709 591 709 Q596 708 601.5 708 Q607 708 612 708 Q618 707 624.5 705.5 Q631 704 636 699 Q641 694 641.5 687.5 Q642 681 642 672 Q640 661 636 648 L634 643 Q623 617 613 591 Q603 565 589 539 Q584 529 579 512 Q575 505 574 498 Q573 496 572 493.5 Q571 491 570 489 Q568 483 565.5 477 Q563 471 560 465 L548 441 Q535 415 521 388 Q507 361 491 335 Q480 318 469.5 299 Q459 280 449 262 L440 244 Q427 219 415 193.5 Q403 168 392 142 L387 133 Q383 124 379 115.5 Q375 107 371 99 L362 81 Q357 73 353.5 65 Q350 57 346 49 L341 38 Q340 36 339 34 Q338 32 337 30 L335 27 Q323 -1 292 -1 L291 -1 Z " />
<glyph glyph-name="X" unicode="X" horiz-adv-x="567" d="M474 -5 L473 -5 Q465 -5 456.5 -4.5 Q448 -4 440 -4 Q438 -4 435 -3.5 Q432 -3 429 -3 Q417 -3 409 7 Q392 26 377 48 Q375 53 369 61 Q358 79 347 97 Q336 115 323 132 Q311 148 301 164 Q291 180 281 196 Q277 202 273.5 208 Q270 214 265 220 Q261 227 256.5 233.5 Q252 240 248 247 Q246 245 246 244 Q242 236 238.5 229.5 Q235 223 232 216 Q221 192 207.5 166 Q194 140 175 108 Q175 107 174 106 Q172 104 171 101 Q170 98 168 96 Q159 86 152.5 75 Q146 64 138 52 Q136 49 134.5 46 Q133 43 131 39 Q124 27 114 16 Q112 12 110 10 Q99 -5 81 -5 L53 -5 L22 -5 Q13 -5 6 5 Q1 16 6 24 Q11 32 15.5 40.5 Q20 49 25 57 L43 87 Q51 99 58.5 112 Q66 125 74 138 L101 186 Q109 200 116 213.5 Q123 227 131 241 Q136 249 140.5 258 Q145 267 150 275 Q158 291 167 307 Q176 323 187 337 Q189 341 187 344 Q187 344 185 346 Q184 347 184 347.5 Q184 348 183 349 Q166 371 151.5 395 Q137 419 123 442 Q120 447 117.5 451.5 Q115 456 112 461 Q98 477 89 494.5 Q80 512 71 529 Q69 533 67.5 537 Q66 541 64 544 Q62 549 59.5 552.5 Q57 556 55 560 Q53 564 51 567.5 Q49 571 47 575 Q38 593 28 613 Q18 633 5 657 Q3 665 3 667 Q3 668 2.5 668 Q2 668 2 669 Q0 677 5 685.5 Q10 694 18 696 L19 696 Q21 696 22 697 Q38 700 56 700 Q71 700 91 697 L95 697 L98 693 Q99 692 99.5 691 Q100 690 101 689 Q103 687 104.5 684 Q106 681 108 677 Q140 622 172 573 Q174 569 176.5 565.5 Q179 562 182 558 Q189 550 193 541 Q200 531 206.5 521.5 Q213 512 219 501 Q225 490 233 477 Q241 464 251 450 Q260 469 271 485.5 Q282 502 293 519 Q295 521 296.5 524 Q298 527 300 530 Q311 545 322.5 561 Q334 577 348 594 Q356 604 363.5 615.5 Q371 627 378 638 Q381 642 383.5 645.5 Q386 649 388 653 Q399 671 416 680 Q423 685 432 685 Q435 685 438.5 685.5 Q442 686 446 686 Q454 686 462.5 685.5 Q471 685 482 685 Q490 685 497 676 Q505 665 500 655 L500 653 Q498 647 496 644 L493 638 Q489 633 486 627.5 Q483 622 478 617 Q461 594 445.5 570.5 Q430 547 416 524 Q408 512 400 499.5 Q392 487 384 475 Q379 467 374 460 Q369 453 364 445 Q360 439 356 432.5 Q352 426 348 420 Q340 409 334 397.5 Q328 386 322 375 Q317 367 314 359 Q324 342 334.5 325.5 Q345 309 354 294 Q364 280 372 267 Q377 259 382 251.5 Q387 244 392 236 Q397 229 401 222 Q405 215 410 208 L431 175 Q437 166 442.5 157 Q448 148 453 139 L456 133 Q467 114 479 93.5 Q491 73 508 47 Q513 41 518 29 Q523 17 514 9 Q513 9 513 8.5 Q513 8 512 8 Q508 4 504 2 Q491 -5 474 -5 Z " />
<glyph glyph-name="Y" unicode="Y" horiz-adv-x="601" d="M285 -6 Q277 -6 271 -5.5 Q265 -5 260 -5 Q246 -5 235.5 4.5 Q225 14 222 28 Q221 32 221 35.5 Q221 39 221 42 L221 68 Q220 81 220 94 Q220 107 219 121 Q218 138 218 156 Q218 174 218 191 Q218 205 218 220 Q218 235 217 250 Q215 282 214.5 306.5 Q214 331 215 354 Q215 360 211 367 Q194 396 171.5 426 Q149 456 119 490 Q115 495 111.5 499.5 Q108 504 104 509 Q100 515 97 518 Q92 524 86.5 530.5 Q81 537 76 544 Q62 561 49 577 Q36 593 23 610 Q18 616 13.5 622.5 Q9 629 4 636 Q3 637 2.5 638 Q2 639 0 641 Q-12 657 -4 674 Q-1 682 7 688.5 Q15 695 25 697 Q26 697 27 697.5 Q28 698 30 698 Q33 697 36.5 697 Q40 697 43 697 L85 697 Q100 695 109 682 Q113 675 117 669 Q121 663 126 656 L135 644 Q142 633 150.5 623.5 Q159 614 167 604 L168 604 Q173 598 179 591 Q185 584 192 575 Q198 567 204.5 560 Q211 553 217 545 Q223 537 229 529.5 Q235 522 242 514 L272 478 L273 477 Q291 503 309.5 525.5 Q328 548 345 567 Q346 568 346 569 Q348 571 349 571 Q364 593 381 613 Q398 633 415 652 Q418 656 421 659 Q424 662 427 666 Q431 670 434 674 Q437 678 441 682 Q444 685 446 689 L449 692 L453 692 Q469 695 490 695 Q500 695 509 694.5 Q518 694 527 693 Q535 693 540 686 Q546 679 544 670 L543 668 Q542 664 541 660 Q540 656 537 652 Q530 642 524 634 Q518 626 511 619 Q505 611 499 603.5 Q493 596 487 588 Q486 587 486 586 Q486 585 485 584 Q482 580 479.5 576.5 Q477 573 473 569 Q465 560 458 550.5 Q451 541 444 531 Q436 520 428.5 509 Q421 498 413 487 Q396 464 379.5 438 Q363 412 345 380 Q337 367 337 346 Q338 320 338 293 Q338 266 338 240 L338 201 L338 199 L338 193 Q336 173 336 151.5 Q336 130 337 110 Q338 102 338 94 Q338 86 339 78 L339 31 Q339 26 338 21.5 Q337 17 335 12 Q329 -4 313 -6 L300 -6 L285 -6 Z " />
<glyph glyph-name="Z" unicode="Z" horiz-adv-x="503" d="M50 -11 Q39 -11 29 -6 Q17 -1 11 12 Q5 25 9 38 Q11 44 12.5 50 Q14 56 18 61 Q24 72 29 82.5 Q34 93 39 105 Q40 109 43 112 Q54 132 63 152.5 Q72 173 81 193 Q85 203 88.5 212 Q92 221 97 230 Q97 231 99 235 Q100 238 104 246 Q121 274 134.5 303.5 Q148 333 162 362 Q166 370 169.5 379 Q173 388 177 396 Q179 400 180.5 403.5 Q182 407 184 410 L190 422 Q207 459 220.5 489 Q234 519 247 547 L268 595 Q269 597 269.5 598.5 Q270 600 271 602 L266 602 Q263 602 260.5 602.5 Q258 603 256 603 Q253 603 250.5 602.5 Q248 602 246 602 Q232 600 218 599.5 Q204 599 190 598 Q182 598 173 598 Q164 598 156 597 L150 597 L148 597 L146 597 L139 597 Q121 594 103 593.5 Q85 593 67 593 Q57 593 47 593 Q37 593 27 592 L25 592 Q14 592 7 599 Q0 606 0 617 L0 618 L0 625 Q1 628 1 631 Q1 634 2 637 Q3 645 4 653.5 Q5 662 7 670 Q10 688 22.5 698.5 Q35 709 52 709 L55 709 L79 709 L87 709 Q104 709 118.5 708 Q133 707 149 704 Q151 703 156 703 L158 703 Q163 703 167 703 Q171 703 176 704 Q190 704 202.5 704.5 Q215 705 229 706 Q239 707 249 707.5 Q259 708 269 708 Q280 708 290 707.5 Q300 707 311 706 Q316 705 321 705 Q326 705 331 705 Q341 705 346 706 L356 706 Q366 706 375 705 Q384 704 392 702 Q397 700 402 696.5 Q407 693 412 685 Q427 656 410 629 Q397 608 389 588 Q385 582 382 575 Q379 568 375 561 Q370 551 365 541 Q360 531 355 520 Q352 513 348.5 506.5 Q345 500 342 493 Q337 485 333.5 477 Q330 469 325 461 L310 431 Q305 422 301 412.5 Q297 403 293 393 Q289 385 285.5 376 Q282 367 278 359 Q273 347 268 335 Q263 323 258 311 Q247 287 237.5 265 Q228 243 219 223 Q216 217 212.5 211 Q209 205 206 200 Q204 197 203 194.5 Q202 192 200 189 L194 178 Q176 147 159 114 Q158 114 158 112 Q162 111 170 111 L235 111 L287 111 L287 112 L297 112 Q305 112 309 111 L337 111 Q348 110 359.5 110 Q371 110 382 110 L408 110 Q411 110 413 109 L433 109 Q442 108 449 101.5 Q456 95 457 86 Q458 72 456.5 59.5 Q455 47 453 35 Q451 26 444 15 Q436 1 422 -1 Q417 -2 412.5 -2 Q408 -2 403 -2 L402 -2 L383 -2 L348 -2 Q340 -3 331 -3 Q322 -3 313 -3 Q294 -3 279 -2.5 Q264 -2 250 -1 L242 -1 Q232 -1 223 -1.5 Q214 -2 206 -3 Q196 -5 187.5 -5 Q179 -5 171 -5 Q163 -5 155 -5 Q147 -5 139 -3 L127 -3 Q122 -3 117.5 -3 Q113 -3 108 -4 Q104 -5 100.5 -5 Q97 -5 93 -6 Q83 -8 72.5 -9 Q62 -10 51 -11 L50 -11 Z " />
<glyph glyph-name="one" unicode="1" horiz-adv-x="258" d="M121 0 Q105 0 103 17 Q103 22 103 28 Q103 34 102 39 Q102 53 101.5 66 Q101 79 101 92 Q102 113 101.5 134.5 Q101 156 100 176 Q100 190 99.5 204.5 Q99 219 99 233 L99 377 L99 425 Q99 439 99 453.5 Q99 468 100 482 L100 486 Q100 497 100.5 507.5 Q101 518 104 529 Q105 534 105 544 L105 547 Q105 547 101 545 Q99 545 95 543 Q92 542 88 540 Q82 538 76.5 536 Q71 534 65 532 Q54 529 45 529 L43 529 Q26 529 17 542 Q6 558 2 578 Q-4 606 18 624 Q25 629 36 635 L37 636 Q42 638 46.5 641 Q51 644 56 646 Q62 649 68 652.5 Q74 656 80 659 Q105 674 131 674 L135 674 L149 674 Q154 674 159 674 Q164 674 169 673 Q188 671 199 655 Q210 639 213 624 Q222 574 219 508 L219 500 Q218 496 218 488 L218 346 L218 294 L217 294 L217 280 L217 220 Q217 214 217 208 Q217 202 216 197 L216 187 L216 182 Q215 180 215 177 Q217 166 217.5 155.5 Q218 145 217 134 L217 113 L217 53 L217 31 Q217 29 216.5 26 Q216 23 216 21 L216 19 Q215 12 210 7 Q205 2 199 1 L197 1 Q193 1 190 0.5 Q187 0 183 0 L134 0 L121 0 Z " />
<glyph glyph-name="two" unicode="2" horiz-adv-x="486" d="M342 -6 Q323 -6 302 -5.5 Q281 -5 259 -2 Q250 -1 241 -0.5 Q232 0 223 0 L215 0 Q201 0 187.5 0.5 Q174 1 160 4 L156 4 L149 4 Q131 3 112.5 2.5 Q94 2 76 1 Q70 1 68 0 Q65 0 62 -0.5 Q59 -1 55 -1 L54 -1 Q48 0 42 0.5 Q36 1 30 3 Q2 11 1 39 Q-1 63 1 92 Q4 120 25 136 Q30 140 35 144 Q40 148 45 152 Q55 160 64.5 167 Q74 174 85 181 Q121 205 164 247 Q175 257 185.5 268 Q196 279 209 293 Q220 306 228 318 Q239 335 248 349.5 Q257 364 265 378 Q269 385 271.5 392 Q274 399 277 406 L278 408 Q279 411 279.5 414.5 Q280 418 282 421 Q283 426 284 429.5 Q285 433 287 438 Q292 451 292.5 464.5 Q293 478 292 491 Q292 511 276 530 Q266 541 256 544 Q253 544 247 546 Q242 548 236 549 Q230 550 225 550 L221 550 Q194 550 172 536 L167 533 Q159 528 151 523.5 Q143 519 135 514 Q130 510 122 507 Q118 506 115 505.5 Q112 505 109 505 Q96 505 86 514 L72 528 Q58 545 56 566 Q54 587 65 606 Q68 611 71 615 Q74 619 77 623 Q108 656 149 671 Q166 677 185 680 Q204 683 228 683 L241 683 Q246 682 251.5 681.5 Q257 681 262 679 Q308 666 346 643 Q352 639 355 636 Q388 605 401 574 Q406 563 409.5 552 Q413 541 417 529 Q424 501 423 480 L423 459 Q426 418 406 371 Q397 348 385.5 323.5 Q374 299 357 276 Q347 262 338.5 251.5 Q330 241 321 231 Q314 223 307 216.5 Q300 210 293 203 Q288 198 283.5 193.5 Q279 189 274 184 Q262 173 250 161.5 Q238 150 226 139 Q222 135 218.5 132 Q215 129 211 126 Q219 126 226.5 126.5 Q234 127 242 127 Q259 127 276 126 Q293 125 309 124 Q317 123 324.5 123 Q332 123 342 123 L366 123 Q371 123 377 123.5 Q383 124 389 124 Q408 124 425 120 Q430 118 434.5 112.5 Q439 107 440 102 L440 101 L440 95 Q441 78 439.5 60 Q438 42 436 23 Q435 12 425 4 Q416 -5 406 -6 L387 -6 L368 -6 L342 -6 Z " />
<glyph glyph-name="three" unicode="3" horiz-adv-x="419" d="M179 -19 Q163 -19 146.5 -18 Q130 -17 113 -14 L112 -13 Q93 -9 74 -3.5 Q55 2 38 14 Q32 18 29 19 Q27 21 24 22 Q21 23 19 25 Q7 33 3 46.5 Q-1 60 5 73 Q17 98 37 106 Q42 109 46.5 110 Q51 111 56 111 Q64 111 68 109 Q81 104 93.5 101 Q106 98 120 95 Q125 94 129.5 93.5 Q134 93 139 91 Q154 88 171 88 Q178 88 185 88 Q192 88 199 90 Q234 94 247 131 Q252 144 253.5 156 Q255 168 256 179 Q256 197 250 211 Q245 221 240.5 229 Q236 237 231 244 Q220 260 196 266 Q182 269 167 270 Q152 271 136 271 L128 271 Q123 271 118 271 Q113 271 108 272 Q92 274 81 286 Q70 300 73 315 Q75 332 79 344 Q90 373 117 373 Q123 373 126 372 Q131 372 135.5 371 Q140 370 145 369 Q150 367 154.5 367 Q159 367 164 367 Q172 367 180 368 Q188 369 198 372 Q238 382 256 430 Q257 432 257 439 L257 471 L257 516 Q257 538 236 562 Q227 571 216 571 Q210 572 203.5 572 Q197 572 190 572 Q163 572 143 565 Q131 561 122 556 Q113 551 105 546 Q95 538 77 535 L71 535 Q53 535 43 547 Q33 557 28 564 Q23 571 21 579 Q20 587 23.5 595.5 Q27 604 35 617 Q48 639 71 652 Q88 661 106.5 668.5 Q125 676 148 678 Q153 678 157.5 678 Q162 678 167 679 Q175 679 182 679.5 Q189 680 197 680 L198 680 Q207 680 217 679 Q227 678 239 676 Q287 669 329 625 L330 625 L330 624 Q332 621 334 618 Q336 615 338 613 Q344 604 349.5 594 Q355 584 359 573 Q364 556 367.5 538 Q371 520 374 499 L374 490 Q374 483 375 481 Q383 422 349 362 Q342 351 329 338 Q325 335 322 332 Q319 329 315 325 Q314 324 314 324 Q325 315 331.5 303.5 Q338 292 343 280 Q354 257 360.5 231.5 Q367 206 371 180 Q373 163 372.5 147 Q372 131 370 115 Q370 110 368.5 105.5 Q367 101 365 96 Q364 95 364 93 Q362 90 361.5 87 Q361 84 359 82 Q357 79 356.5 76 Q356 73 354 70 Q337 21 286 0 Q239 -19 198 -19 L193 -19 L179 -19 Z " />
<glyph glyph-name="four" unicode="4" horiz-adv-x="520" d="M386 -6 L384 -6 Q371 -5 360.5 -4 Q350 -3 340 -1 Q327 1 319 10.5 Q311 20 310 34 Q309 42 309 49 Q309 56 308 64 Q307 76 306.5 88.5 Q306 101 304 114 Q303 125 302 135 Q301 145 299 155 Q298 157 298 158 Q298 159 297 161 Q294 162 287 162 L285 162 Q271 161 256.5 160.5 Q242 160 224 160 Q216 160 207.5 160 Q199 160 191 161 L158 161 L139 161 L138 161 L125 161 Q117 163 110 163 Q103 163 96 163 Q88 163 81 162.5 Q74 162 67 161 Q57 159 50 159 Q45 159 41.5 159.5 Q38 160 34 160 Q20 161 10.5 170.5 Q1 180 0 194 L0 247 Q2 269 14 284 L17 287 L26 299 L36 311 Q50 326 63.5 342 Q77 358 91 374 Q96 380 102 386.5 Q108 393 113 399 Q119 405 125 411.5 Q131 418 136 424 L144 434 Q167 460 191.5 487.5 Q216 515 239 543 Q244 550 249 556.5 Q254 563 259 571 L265 580 Q277 597 291 613.5 Q305 630 319 646 Q323 649 326.5 652.5 Q330 656 334 659 L336 661 Q345 668 356 668 Q357 669 359 669 Q369 669 377 665.5 Q385 662 393 658 Q395 656 396 656 Q401 653 404 648 Q407 643 409 638 Q412 628 414 618.5 Q416 609 416 598 L416 594 Q416 580 416.5 567 Q417 554 416 540 L416 465 Q416 457 415.5 450 Q415 443 415 435 L415 425 L415 409 L415 351 Q415 338 414.5 325 Q414 312 414 298 Q414 292 414 285.5 Q414 279 413 273 Q415 272 417 272 L427 272 Q431 271 435 270.5 Q439 270 444 269 Q470 261 473 233 L473 199 Q473 179 457 164 Q448 156 439 155 Q434 154 430.5 154 Q427 154 423 153 L417 153 L417 149 Q417 144 417 138.5 Q417 133 418 128 L418 106 L418 93 Q419 81 419 68.5 Q419 56 419 44 Q417 29 413 14 Q405 -6 386 -6 Z M156 272 Q162 271 168 271 Q174 271 181 270 Q217 267 255 267 Q263 267 271.5 267 Q280 267 288 266 L289 266 L293 266 Q294 266 294.5 266.5 Q295 267 297 267 L299 267 Q298 285 298.5 302 Q299 319 301 335 Q301 340 301.5 345.5 Q302 351 302 356 Q303 359 303 366 L304 373 L304 388 L304 458 L292 443 L291 442 Q280 429 269.5 416 Q259 403 251 388 Q239 367 219 347 Q208 336 197.5 323.5 Q187 311 178 299 Q173 292 167 285.5 Q161 279 156 272 Z " />
<glyph glyph-name="five" unicode="5" horiz-adv-x="456" d="M208 -15 L202 -15 Q200 -15 199 -14.5 Q198 -14 196 -14 L191 -14 L181 -14 Q146 -14 112.5 -5 Q79 4 47 14 L40 17 Q31 20 25 23 Q10 31 6 45 Q2 55 0.5 65.5 Q-1 76 4 88 Q4 89 4.5 90 Q5 91 5 92 Q5 97 6 99 Q9 111 19 119 Q29 127 42 127 Q44 127 45 126.5 Q46 126 48 126 Q52 125 56 124.5 Q60 124 64 123 Q69 121 73.5 120 Q78 119 83 117 Q99 112 111 109 Q136 102 161 98 Q186 94 212 93 L216 93 Q248 93 273 119 Q276 123 278.5 126.5 Q281 130 283 134 Q297 170 293 208 Q291 227 288 236.5 Q285 246 277 259 Q260 291 231 303 Q217 309 206 312 Q195 315 184 315 L178 316 Q165 317 152 317.5 Q139 318 126 318 L117 318 L111 318 Q102 318 94 318.5 Q86 319 78 319 Q73 320 68 320 Q63 320 58 320 Q47 321 40 325 Q33 329 27 334 Q17 344 15 360 L15 369 Q16 370 16 373 L16 389 Q15 400 15 411.5 Q15 423 14 434 Q13 456 12.5 479 Q12 502 15 525 L15 544 Q15 547 16 549 L16 574 L16 617 Q16 634 26.5 646.5 Q37 659 53 662 Q65 664 76 665.5 Q87 667 97 667 Q114 668 131 668 Q148 668 165 668 Q172 669 179 669 Q186 669 193 669 L203 669 L203 668 Q204 668 205 668.5 Q206 669 208 669 Q216 669 224.5 669 Q233 669 241 671 Q246 671 250.5 671.5 Q255 672 260 672 Q267 672 274 671.5 Q281 671 289 670 Q294 670 298 669.5 Q302 669 307 669 Q325 669 341 655 Q349 648 351 640 Q355 623 351 607 Q342 577 317 573 Q315 572 314 572 Q313 572 311 571 Q307 570 303.5 569.5 Q300 569 295 568 Q290 568 285 567.5 Q280 567 275 566 Q258 564 240 562.5 Q222 561 204 557 Q202 557 200.5 556.5 Q199 556 197 556 Q189 556 180.5 555 Q172 554 164 553 Q159 552 153 552 Q147 552 142 551 Q137 551 132.5 550.5 Q128 550 126 549 Q125 547 125 543.5 Q125 540 125 535 L125 531 Q125 507 124 483 Q123 459 119 435 L119 427 Q130 425 141.5 424 Q153 423 165 421 Q200 418 229.5 412 Q259 406 285 397 Q347 374 375 330 Q381 320 385.5 309.5 Q390 299 395 290 Q402 272 406 253.5 Q410 235 411 214 Q412 193 409.5 170.5 Q407 148 402 120 Q399 106 392.5 94 Q386 82 379 71 L377 69 Q363 47 343 33 Q329 23 312.5 13 Q296 3 276 -3 Q237 -15 208 -15 Z " />
<glyph glyph-name="six" unicode="6" horiz-adv-x="473" d="M221 -25 L218 -25 Q187 -25 149 -17 Q99 -6 65 32 Q42 59 27.5 87 Q13 115 5 144 Q3 150 2 158 Q1 166 1 174 L1 179 Q1 193 1 206.5 Q1 220 3 234 Q4 242 4.5 250 Q5 258 6 266 Q6 272 6.5 277.5 Q7 283 8 289 L8 290 Q9 298 9.5 306.5 Q10 315 12 324 Q16 339 20 354.5 Q24 370 28 385 L31 396 Q33 406 38 414.5 Q43 423 48 432 Q49 434 49.5 434.5 Q50 435 51 437 Q54 441 58 449 Q65 465 74 479 Q83 493 92 507 Q96 513 99 517 Q102 522 105.5 526 Q109 530 112 534 L115 537 Q117 539 119.5 542 Q122 545 124 547 Q128 552 131.5 555.5 Q135 559 139 564 Q150 580 163 592.5 Q176 605 190 616 Q197 622 203.5 626.5 Q210 631 215 635 Q220 638 223.5 641 Q227 644 232 646 Q236 649 240 652 Q244 655 249 658 Q259 665 268.5 668 Q278 671 286 673 Q289 674 294 674 Q304 674 312 669 Q315 666 317 665 Q324 661 330 657 Q343 647 351 634 Q359 622 357 609 Q355 596 345 587 Q343 585 340 583 Q337 581 334 579 Q320 571 308 560.5 Q296 550 285 539 Q265 519 244 499 Q223 479 205 456 Q200 450 196.5 444.5 Q193 439 189 432 L192 432 Q200 430 207 429.5 Q214 429 222 428 Q249 426 276 416 Q290 411 305 404.5 Q320 398 336 390 Q362 377 383 349 Q408 314 420 267 Q432 214 425 171 Q423 166 423 162 Q423 158 422 154 Q421 138 416 123.5 Q411 109 405 97 Q403 92 399.5 86.5 Q396 81 393 76 Q391 72 389 69 Q387 66 385 62 Q376 47 364 35.5 Q352 24 340 15 Q337 12 335 12 Q333 10 333 10 Q318 -4 300.5 -9.5 Q283 -15 269 -18 Q265 -18 262 -18.5 Q259 -19 255 -20 Q237 -25 221 -25 Z M129 329 Q127 324 126 320.5 Q125 317 123 312 Q121 301 118.5 291.5 Q116 282 114 271 Q114 266 112 256 Q110 244 108.5 232.5 Q107 221 107 209 Q108 182 119 155 Q124 143 135 130 Q147 119 164 109 Q166 106 171 105 Q186 95 206 93 L216 93 Q240 93 264 104 Q285 113 294 133 Q300 147 304 159.5 Q308 172 310 185 Q316 231 301 281 Q295 303 274 313 Q264 317 260 318 Q215 334 162 334 Q154 334 146.5 333.5 Q139 333 131 333 Q129 329 129 329 Z " />
<glyph glyph-name="seven" unicode="7" horiz-adv-x="475" d="M114 -14 Q101 -14 88.5 -13.5 Q76 -13 62 -13 Q52 -13 47 -5 Q41 2 45 13 L45 15 Q46 16 46 17 Q46 18 47 20 Q55 35 62.5 50.5 Q70 66 77 81 Q91 108 105 136 Q119 164 134 191 Q139 201 143.5 210.5 Q148 220 152 229 Q158 239 162 249 Q164 254 166.5 258 Q169 262 171 266 Q175 274 178.5 282 Q182 290 186 298 Q194 314 200 329 Q206 344 211 358 Q219 381 228.5 402.5 Q238 424 248 446 Q252 454 255.5 463 Q259 472 263 480 L287 534 Q291 542 295 550.5 Q299 559 303 567 Q304 570 305 573 Q306 576 307 580 L302 580 L301 580 Q294 580 287 580 Q280 580 273 578 Q253 574 224 574 Q213 574 202.5 574.5 Q192 575 178 576 Q176 577 170 577 L165 577 L161 577 L160 576 L155 576 Q129 575 104 575 Q79 575 53 574 L35 574 L33 574 Q28 574 20.5 575.5 Q13 577 8 582 Q0 590 1 608 L1 618 Q1 623 1 627 Q1 631 2 636 Q5 670 38 673 Q46 675 52.5 675 Q59 675 67 675 L126 675 L162 675 L210 675 L236 675 L266 675 L304 675 L320 675 Q324 675 328 675 Q332 675 336 676 Q341 677 345.5 677.5 Q350 678 355 678 Q363 678 370.5 677 Q378 676 385 675 L386 675 Q397 673 407 667 Q420 659 425.5 648.5 Q431 638 426 619 Q417 586 404 560 Q402 555 399.5 549 Q397 543 395 537 Q393 535 393 532 L389 523 Q382 505 375 486.5 Q368 468 361 449 Q358 440 354.5 431.5 Q351 423 348 414 Q343 400 338 386.5 Q333 373 328 359 Q315 327 296 288 Q291 277 285.5 266.5 Q280 256 275 246 L260 216 L245 186 Q243 181 240.5 176 Q238 171 236 166 Q233 159 229.5 152.5 Q226 146 224 141 Q220 135 219 132 Q213 124 210 115 Q207 107 203 100 Q199 93 195 86 Q192 81 189 77 Q186 73 184 68 Q181 63 178.5 57 Q176 51 173 45 Q171 39 168 33 Q165 27 162 21 Q160 16 157 12 Q154 8 152 4 Q149 1 148 -1 Q140 -14 124 -14 L114 -14 Z " />
<glyph glyph-name="eight" unicode="8" horiz-adv-x="439" d="M199 -13 Q197 -13 195.5 -12.5 Q194 -12 192 -12 Q168 -10 143 -6.5 Q118 -3 93 6 Q85 9 75.5 13 Q66 17 58 23 Q5 59 1 128 Q-3 174 14 226 Q16 233 19.5 239 Q23 245 25 250 Q29 256 32.5 262.5 Q36 269 40 276 Q45 284 49 291 Q53 298 57 306 Q71 332 89 348 Q92 349 93 352 L92 352 Q68 369 45 395 Q16 430 10 476 Q9 484 9 491 Q9 498 9 505 L9 514 Q9 585 72 632 Q93 647 119 662 Q132 670 146 673 Q158 675 170 676 Q182 677 193 677 L198 677 Q209 677 219 676.5 Q229 676 239 676 Q243 675 249 675 Q284 674 324 652 Q345 639 358 620 Q366 608 372.5 597 Q379 586 384 575 Q396 551 391 528 Q391 524 390.5 521.5 Q390 519 390 516 Q386 457 335 408 Q331 404 327.5 400.5 Q324 397 320 394 Q312 386 304.5 379 Q297 372 289 364 Q306 351 319.5 336 Q333 321 346 306 L349 303 Q370 280 379 253.5 Q388 227 393 207 Q395 196 394.5 185 Q394 174 392 163 Q392 161 391.5 158.5 Q391 156 391 154 Q389 144 389 140 Q385 102 357 64 Q325 22 273 1 Q266 -2 259 -4 Q252 -6 243 -7 Q241 -8 238.5 -8 Q236 -8 234 -9 Q231 -10 228 -10 Q225 -10 222 -11 L217 -11 Q207 -13 199 -13 Z M204 291 Q198 291 194 288 Q190 286 182 280 Q178 276 175 274 Q158 260 145 240 Q126 212 123 172 Q122 156 125 135 L125 131 Q126 129 127 126.5 Q128 124 133 119 Q136 117 139 115 Q142 113 146 111 Q149 109 152.5 108 Q156 107 159 105 Q169 98 179.5 95.5 Q190 93 201 91 Q204 90 211 90 Q225 90 245 96 Q251 98 258 103 Q276 117 281 137 Q282 142 282 146.5 Q282 151 283 156 Q283 158 283.5 160 Q284 162 284 164 Q284 187 277 205 Q273 215 268 225 Q263 235 258 246 Q242 273 211 289 Q209 291 204 291 Z M200 583 Q179 583 159 573 Q153 569 150 568 Q148 567 147.5 566.5 Q147 566 145 565 Q123 553 118 524 L118 513 Q117 511 117 504 L117 503 Q115 493 124 475 Q136 454 148 439 Q154 431 162 425.5 Q170 420 178 415 L187 409 Q190 407 192.5 406 Q195 405 198 405 Q201 405 207 407 Q231 415 240 432 Q243 437 246 440.5 Q249 444 252 448 Q254 451 258 455 Q281 486 277 523 Q272 555 243 571 Q222 583 200 583 Z " />
<glyph glyph-name="nine" unicode="9" horiz-adv-x="470" d="M103 -7 Q91 -7 81 0 Q77 2 74 3 Q72 4 70.5 5 Q69 6 67 7 Q55 15 50 30 Q48 34 47.5 38 Q47 42 46 47 Q44 73 64 85 Q70 89 77 92.5 Q84 96 92 101 Q96 103 96 103 Q109 110 125 115 Q136 119 145 123.5 Q154 128 165 134 Q168 136 176 140 Q196 151 212 171 Q223 185 233 198 Q243 211 253 225 Q267 244 275 268 Q267 267 258.5 266.5 Q250 266 240 266 Q233 266 226.5 266 Q220 266 213 267 L208 267 Q185 268 164.5 273 Q144 278 127 283 Q116 286 107.5 291 Q99 296 91 301 Q89 303 87.5 303.5 Q86 304 84 306 Q76 311 69.5 316.5 Q63 322 58 326 Q22 359 11 404 Q6 424 3 445 Q0 466 1 489 L1 519 Q1 539 10 559 Q12 562 12.5 564.5 Q13 567 15 569 Q19 577 21 582 Q26 595 40 607 Q51 615 59 625 Q67 634 77.5 641.5 Q88 649 102 656 Q106 658 109.5 659.5 Q113 661 118 662 Q128 665 137.5 667.5 Q147 670 157 672 Q161 673 164 673.5 Q167 674 171 674 Q176 674 182 674.5 Q188 675 193 675 Q200 675 207 675.5 Q214 676 222 676 Q230 676 236.5 675.5 Q243 675 249 674 Q262 673 273.5 670.5 Q285 668 297 665 Q302 664 307 663 Q312 662 317 660 L318 660 L319 660 Q375 635 398 584 Q423 521 424 454 L424 435 L424 424 Q426 392 422 358.5 Q418 325 413 292 Q412 289 412 286 Q412 283 411 281 Q403 233 380 196 Q378 193 375.5 189.5 Q373 186 371 182 Q362 168 354 157 Q326 119 295 95 L292 92 Q280 83 267.5 74 Q255 65 241 57 Q233 52 226 48 Q219 44 212 39 Q207 35 201 31.5 Q195 28 189 24 Q174 15 156 7.5 Q138 0 115 -5 Q107 -7 103 -7 Z M220 367 L220 366 Q225 366 229 366.5 Q233 367 238 368 Q254 373 270.5 381.5 Q287 390 299 407 Q302 410 306 416 Q310 419 312.5 422.5 Q315 426 317 430 L317 431 Q318 433 319 435 Q320 437 320 439 Q319 444 318.5 447.5 Q318 451 318 456 Q316 466 315 475 Q314 484 311 492 Q304 513 294.5 532.5 Q285 552 274 569 Q263 584 248 584 Q245 584 243 583 Q237 583 234 582 Q229 581 225 581 Q221 581 216 580 Q203 578 191.5 574.5 Q180 571 171 567 Q160 562 150.5 554 Q141 546 136 535 Q129 521 123 505 Q117 489 116 472 L116 469 Q116 462 115 458 Q112 441 120 421 Q139 373 190 367 L197 367 L203 367 L210 367 L220 367 Z " />
<glyph glyph-name="zero" unicode="0" horiz-adv-x="497" d="M223 -16 L217 -16 Q212 -16 207 -15.5 Q202 -15 197 -15 Q193 -14 186 -14 Q134 -9 92 22 Q86 27 80.5 32.5 Q75 38 69 43 Q65 46 57 54 Q24 82 11 135 Q3 167 1 214 L1 223 Q0 241 0 259 Q0 277 3 295 Q4 300 4 304 Q4 308 4 313 Q2 322 4 332 Q6 346 8 361 Q10 376 12 390 Q13 395 13.5 400.5 Q14 406 15 412 L15 416 Q16 418 16 420 Q18 452 28.5 482 Q39 512 50 540 L51 541 Q61 567 75 590 Q102 634 137 654 Q161 669 183 669 L205 669 Q222 669 241.5 667 Q261 665 281 657 Q283 656 284.5 656 Q286 656 288 655 Q290 655 291.5 654.5 Q293 654 295 654 Q317 647 334.5 636.5 Q352 626 365 615 Q368 613 371 609.5 Q374 606 378 602 Q412 555 422 510 Q426 497 428.5 484 Q431 471 434 458 Q436 450 437.5 442 Q439 434 441 426 Q448 394 449.5 362.5 Q451 331 451 307 L451 306 Q451 299 450.5 292 Q450 285 450 278 Q448 261 447.5 244.5 Q447 228 445 211 Q443 195 440.5 180.5 Q438 166 434 151 Q425 118 408.5 90 Q392 62 367 40 L366 39 Q352 26 337 16 Q314 -1 283 -7 Q279 -8 276 -8.5 Q273 -9 269 -10 Q256 -14 246 -15 Q241 -16 235.5 -16 Q230 -16 223 -16 Z M231 550 Q209 550 193 538 Q191 537 187 533 L184 530 Q178 525 173.5 520 Q169 515 164 509 Q162 507 161 505.5 Q160 504 159 502 Q147 489 141 464 Q131 425 126 387 Q123 361 120.5 335.5 Q118 310 118 287 L118 271 Q118 259 118.5 248.5 Q119 238 121 227 Q123 219 123 212 Q122 204 123 196 Q124 188 126 179 Q127 177 127 175 Q127 173 128 171 Q131 150 146 127 Q153 114 167 108 Q177 102 193 99 L196 99 Q203 98 209.5 97 Q216 96 224 95 Q227 94 234 94 Q249 94 266 101 Q286 110 301 125 Q304 128 309 136 Q324 158 329 180 Q330 184 331 187.5 Q332 191 333 195 Q338 208 338 217 L341 256 Q342 274 343 293 Q344 312 343 330 L343 337 Q343 346 342 350 Q338 372 336 393 Q334 414 332 434 Q329 471 312 500 Q290 536 255 547 Q241 550 231 550 Z " />
<glyph glyph-name="exclam" unicode="&#x21;" horiz-adv-x="175" d="M47 256 Q32 256 20 269 Q14 277 10 286 Q6 295 5 305 Q5 312 4 316 Q3 324 2.5 331 Q2 338 2 346 Q1 363 1 380.5 Q1 398 0 412 L0 431 L0 465 L0 525 L0 530 Q0 544 0.5 558.5 Q1 573 3 588 Q5 598 5 605 L5 618 L5 620 Q6 625 6.5 631 Q7 637 8 643 Q13 663 28.5 675.5 Q44 688 64 688 Q66 688 68 687.5 Q70 687 72 687 Q89 685 101.5 672.5 Q114 660 115 643 Q117 618 117.5 598 Q118 578 118 560 Q119 541 118.5 522.5 Q118 504 118 486 L118 452 Q118 433 117 411.5 Q116 390 114 368 Q113 360 113 351.5 Q113 343 113 334 Q113 324 112 319 Q112 311 111.5 304 Q111 297 108 289 Q99 268 82 264 Q78 262 75 262 Q70 260 65 259 Q60 258 55 256 L47 256 Z M85 -1 Q75 -1 63 4 Q45 12 34.5 28.5 Q24 45 26 65 Q26 72 29 80 Q37 99 54 109 Q71 119 87 119 L91 119 Q108 117 120.5 107 Q133 97 137 80 Q138 77 138 74 Q138 71 139 67 Q139 65 139.5 64 Q140 63 140 61 L140 59 L140 57 Q140 56 139.5 55 Q139 54 139 53 Q138 49 138 46 Q138 43 136 39 Q131 21 117.5 10 Q104 -1 85 -1 Z " />
<glyph glyph-name="quotedbl" unicode="&#x22;" horiz-adv-x="314" d="M219 540 Q197 540 179 555 Q174 560 169 565.5 Q164 571 161 579 Q160 583 159 586.5 Q158 590 158 594 Q154 639 178 688 Q182 699 197 704 Q199 705 204 705 Q222 705 228 689 L228 688 Q229 687 229 685 Q229 683 230 681 L230 672 L230 669 L230 661 L232 661 Q234 660 237 659.5 Q240 659 242 657 Q273 642 274 609 Q274 599 273 589 Q272 579 267 568 Q257 546 232 541 L229 541 L229 540 L219 540 Z M62 544 Q41 544 25 560 Q8 577 4 597 Q-5 637 8 678 Q11 686 15 691 Q24 708 44 708 Q61 708 71 695 Q82 683 77 670 Q76 666 75 663 Q74 660 73 657 L75 657 L76 657 Q89 654 98 642 Q118 611 108 579 Q106 573 104 568 Q95 549 72 544 L62 544 Z " />
<glyph glyph-name="sterling" unicode="&#xa3;" horiz-adv-x="445" d="M125 -4 Q112 -4 100 -1 Q75 5 72 31 Q70 45 72 59 Q75 76 75 92.5 Q75 109 75 127 Q75 134 74 137 L74 153 Q74 161 73.5 169.5 Q73 178 74 187 Q74 197 73.5 206.5 Q73 216 72 226 Q71 232 70.5 238 Q70 244 70 251 L69 251 Q68 251 68 251.5 Q68 252 67 252 L49 252 Q29 252 19 263 Q9 274 6 279 Q5 281 4 283.5 Q3 286 2 290 L2 292 Q1 306 1 319 Q1 332 7 346 Q15 367 35 372 Q37 373 38 373 Q39 373 41 374 Q45 375 48 375.5 Q51 376 55 377 L55 378 Q53 385 52.5 391.5 Q52 398 50 404 Q48 421 45 438.5 Q42 456 40 473 Q36 497 39 524 L39 529 Q41 542 42 555 Q43 568 48 581 Q73 649 133 692 Q137 695 140.5 697 Q144 699 148 701 Q174 712 191 716.5 Q208 721 228 721 Q235 721 242.5 720.5 Q250 720 261 719 Q272 718 282.5 715.5 Q293 713 303 709 Q350 690 369 646 Q376 628 372 607 Q370 598 364 593 Q359 589 353 584.5 Q347 580 341 576 Q333 571 324 571 Q317 571 307 576 Q304 578 301.5 579 Q299 580 296 582 Q293 585 289 587 Q281 591 277 593.5 Q273 596 269 597.5 Q265 599 260.5 600 Q256 601 248 603 L246 603 Q241 604 231 604 Q200 604 178 579 Q151 548 150 506 Q149 489 150 474 Q151 459 155 445 Q158 434 160 424 Q162 414 164 404 Q166 392 168 384 Q168 381 170 375 L171 374 L172 374 Q185 374 197 373 Q209 372 222 370 Q234 368 245.5 366.5 Q257 365 269 365 L272 365 L273 365 Q285 365 294 360 Q303 355 309 350 Q319 343 321 327 L321 306 L321 302 Q321 270 290 258 Q282 254 272 254 L271 254 Q258 254 244 254.5 Q230 255 215 256 Q214 257 211 257 Q201 257 191 254 Q191 250 192 248 L192 243 L192 207 L192 184 L191 184 L191 176 Q191 164 191.5 152.5 Q192 141 193 129 Q193 128 195 128 Q203 128 208 129 L213 129 Q218 130 228 130 Q234 130 240 129.5 Q246 129 252 128 Q275 123 299.5 119.5 Q324 116 350 116 L354 116 L355 116 Q375 116 390 104 Q400 94 400 84 Q401 76 401.5 68 Q402 60 401 52 Q401 28 384 9 Q371 -4 355 -4 L351 -4 Q340 -2 330.5 -2 Q321 -2 313 -2 L300 -2 L288 -2 L275 -2 L274 -2 L271 -2 L269 -2 Q266 -2 263 -2.5 Q260 -3 256 -3 Q248 -4 239.5 -4 Q231 -4 222 -4 Q198 -4 182 0 Q179 -1 175.5 -1 Q172 -1 169 -1 Q160 -2 151.5 -2.5 Q143 -3 135 -4 L125 -4 Z " />
<glyph glyph-name="dollar" unicode="&#x24;" horiz-adv-x="478" d="M253 -139 L251 -139 Q242 -138 231.5 -137.5 Q221 -137 208 -135 Q198 -134 190.5 -128.5 Q183 -123 178 -115 Q169 -99 169 -80 Q170 -44 169 -6 L169 -4 L169 5 Q164 7 160.5 7.5 Q157 8 153 10 Q141 14 129.5 17 Q118 20 107 24 Q102 26 97 27 Q92 28 87 29 Q80 31 73.5 33.5 Q67 36 59 38 Q51 40 42 43.5 Q33 47 24 51 Q10 58 4 71.5 Q-2 85 3 100 Q7 111 11 124 Q15 137 21 153 Q29 174 51 174 Q54 174 56 173 Q61 173 66.5 172 Q72 171 77 168 Q97 159 117 153 Q122 151 125.5 150.5 Q129 150 134 148 Q140 146 146 144 Q152 142 158 140 Q163 137 169 136 Q170 137 170 138 L170 165 Q170 191 170.5 222.5 Q171 254 173 287 Q174 289 173.5 291.5 Q173 294 173 296 Q170 299 164 302 Q162 303 160.5 303.5 Q159 304 157 306 Q155 307 154.5 307.5 Q154 308 152 309 Q149 311 146 313 Q143 315 139 317 Q130 322 123 327.5 Q116 333 110 338 L104 344 Q101 346 98 349 Q95 352 92 354 Q80 363 69.5 376.5 Q59 390 52 406 Q45 422 40.5 439 Q36 456 36 470 Q36 487 37.5 503 Q39 519 41 533 Q44 554 57 579 Q75 612 97 637 Q125 670 164 683 Q167 684 167 687 L167 690 Q167 697 166.5 703.5 Q166 710 166 717 Q165 734 165 750.5 Q165 767 168 784 Q173 811 198 818 Q205 820 212.5 821 Q220 822 229 822 L238 822 Q276 821 287 783 Q291 771 293 757 Q293 746 293 736 Q293 726 294 715 Q294 711 294.5 707 Q295 703 295 698 L295 689 L295 688 Q296 687 298 686 L299 686 Q313 682 326.5 676.5 Q340 671 353 666 Q361 662 369.5 658.5 Q378 655 386 652 Q394 649 402 644 L411 638 Q416 635 421 632 Q426 629 431 624 L435 620 L434 614 Q431 600 426.5 586.5 Q422 573 417 559 Q404 532 374 527 L369 527 Q361 527 354 530 Q343 534 332.5 538 Q322 542 311 546 L296 552 Q295 553 294 553 Q293 553 292 554 Q289 555 285 557 L285 549 L285 542 L285 536 Q285 532 285 528 Q285 524 284 519 Q282 507 282 494.5 Q282 482 282 468 Q282 465 281.5 462 Q281 459 281 456 L281 428 Q280 422 280 416 Q280 410 280 404 L280 399 Q280 395 279.5 392 Q279 389 281 385 Q283 383 285.5 382.5 Q288 382 290 380 Q297 375 304 371.5 Q311 368 319 363 Q348 348 363 322 Q368 313 377 305 Q395 285 405 263 Q415 241 420 222 Q421 219 423 211 L423 200 Q424 183 423.5 165.5 Q423 148 418 131 L417 128 Q415 123 414 118 Q413 113 412 108 Q410 97 406 89 Q402 81 397 74 Q364 25 306 13 Q305 12 303 12 Q301 12 300 11 Q299 11 299 10 Q298 8 298 2 Q300 -21 299 -43 Q298 -65 296 -86 Q295 -89 295 -92 Q295 -95 294 -98 Q293 -119 272 -133 Q263 -139 253 -139 Z M287 220 L287 210 L287 130 Q288 132 289 134 Q290 136 291 138 Q293 140 294 143 Q295 146 297 148 Q302 155 302 173 L302 174 Q302 176 301.5 178 Q301 180 301 183 Q299 193 295.5 202 Q292 211 287 220 Z M170 532 Q168 530 167 527 Q166 524 164 522 Q146 482 167 450 Q167 458 167 466.5 Q167 475 168 483 L168 484 L167 484 L168 504 Q169 511 169 518 Q169 525 170 532 Z " />
<glyph glyph-name="percent" unicode="&#x25;" horiz-adv-x="668" d="M132 -9 Q129 -9 126 -8.5 Q123 -8 119 -7 Q112 -3 105 -2 Q102 -1 99 0 Q96 1 93 2 Q76 8 67 25 Q66 27 66 27.5 Q66 28 65 30 L65 31 Q56 51 65 69 Q72 84 80 97 Q84 103 85 104 Q87 108 89 110 L116 158 Q119 163 122 167 Q125 171 127 176 Q131 182 134 187 Q137 193 140.5 199 Q144 205 148 211 Q171 247 192.5 284 Q214 321 234 358 Q237 363 240 368 Q243 373 246 378 Q250 385 253.5 391 Q257 397 260 404 Q267 415 273.5 427 Q280 439 287 451 Q299 471 307 489 Q309 494 312 499.5 Q315 505 318 511 Q322 519 326 527.5 Q330 536 335 544 Q339 552 343 560 Q347 568 352 576 Q353 580 356 584 Q361 594 365.5 603.5 Q370 613 375 623 Q380 634 386.5 644 Q393 654 399 664 Q401 666 402 667.5 Q403 669 404 671 Q412 684 423 692 Q434 700 446 706 Q449 708 452.5 708.5 Q456 709 458 710 L460 710 L462 710 L464 710 Q475 709 486.5 706.5 Q498 704 509 696 Q529 682 527 658 Q527 643 518 625 Q510 608 501 591 Q492 574 484 557 Q479 549 475 540 Q471 531 466 523 Q454 500 441.5 478 Q429 456 417 434 Q413 426 409 419 Q405 412 400 404 Q392 390 385 375.5 Q378 361 371 347 Q367 339 363 330.5 Q359 322 355 314 Q350 304 345 295 Q340 286 335 276 Q330 270 328 265 Q326 261 324.5 257.5 Q323 254 321 251 Q313 237 305 222.5 Q297 208 289 194 Q285 187 281 180.5 Q277 174 272 167 L271 165 Q260 150 250.5 134.5 Q241 119 230 105 L223 93 Q222 92 221.5 91 Q221 90 220 89 Q218 85 215.5 81.5 Q213 78 210 75 Q190 52 178 25 Q171 9 155 -2 Q144 -9 132 -9 Z M130 447 Q120 447 110.5 448 Q101 449 91 452 Q86 454 82.5 456 Q79 458 75 460 Q73 461 70.5 462 Q68 463 66 464 Q45 472 34 487 Q23 502 18 516 Q7 540 3 559.5 Q-1 579 3 608 Q12 685 80 712 Q88 716 96.5 717 Q105 718 113 719 L122 719 Q140 719 157.5 714.5 Q175 710 192 704 Q202 700 209.5 693.5 Q217 687 222 681 Q245 654 254 616 Q256 610 256 604.5 Q256 599 256 593 L256 584 Q259 555 247 525 Q228 474 179 456 Q155 447 130 447 Z M140 628 L139 628 Q112 625 104 599 Q102 591 101.5 583.5 Q101 576 102 568 Q102 560 105.5 557 Q109 554 113 552 Q118 550 122.5 549 Q127 548 132 548 L135 548 Q155 548 158 568 Q159 572 159.5 575.5 Q160 579 161 584 Q161 586 161.5 587.5 Q162 589 162 591 Q163 605 150 623 Q148 624 146 626 Q144 628 140 628 Z M505 -14 Q487 -14 468 -10 Q464 -10 462 -8 Q460 -8 459 -7.5 Q458 -7 457 -7 Q443 -5 431.5 1.5 Q420 8 411 15 Q379 40 378 81 Q376 102 378 122 Q380 142 384 161 Q396 213 448 235 Q476 245 499 245 Q526 245 555 233 Q575 226 589 209 Q613 179 614 150 Q615 144 615 138 Q615 132 616 127 L616 116 L617 106 L615 106 Q615 101 615.5 96.5 Q616 92 615 87 Q612 42 576 11 Q556 -8 527 -12 Q522 -14 516 -14 Q510 -14 505 -14 Z M499 156 Q491 156 487 152 Q470 135 472 110 Q472 106 473 105 Q473 104 474 104 L477 101 Q481 99 482 98 Q492 93 501 93 Q504 93 510 95.5 Q516 98 519 113 Q519 119 520 122 L520 124 Q519 144 509 152 Q505 156 499 156 Z " />
<glyph glyph-name="asciicircum" unicode="&#x5e;" horiz-adv-x="317" d="M211 581 Q200 581 187 589 Q172 598 159 614 Q144 630 134 638 Q132 636 131 634.5 Q130 633 128 631 Q126 626 123 623 Q122 621 121.5 620.5 Q121 620 120 618 Q116 613 113 609 Q110 605 106 600 Q94 585 73 585 L70 585 Q41 586 14 610 Q4 620 2 634 Q0 648 7 659 Q10 664 13 668 Q16 672 19 675 Q37 698 56 724 Q62 732 68.5 739.5 Q75 747 82 755 Q84 759 90 765 Q101 779 115 782 Q129 785 140 785 L149 785 Q159 783 165 778 Q170 774 175 770 Q180 766 185 761 L203 740 Q219 722 235 703 Q251 684 268 666 Q279 655 279 640 Q279 623 269 613 Q262 604 251 598 Q246 595 242 592.5 Q238 590 233 588 Q229 586 228 586 Q220 581 211 581 Z " />
<glyph glyph-name="ampersand" unicode="&#x26;" horiz-adv-x="618" d="M233 -20 L231 -20 Q209 -19 183.5 -16.5 Q158 -14 131 -6 Q114 -2 95 11 Q43 45 19 93 Q-12 160 7 223 Q8 225 8.5 227 Q9 229 10 231 Q11 235 12 238.5 Q13 242 15 247 Q29 286 56 309 Q61 314 66 318 Q71 322 76 327 Q84 335 92.5 343 Q101 351 110 358 Q100 369 92 379 Q84 389 76 400 L74 403 Q60 424 50 443 Q33 477 28.5 512 Q24 547 32 585 Q37 605 48 623.5 Q59 642 77 657 Q80 660 83 662.5 Q86 665 89 667 Q91 669 92.5 670 Q94 671 96 673 Q106 681 116.5 685.5 Q127 690 135 693 Q177 706 221 711 Q226 712 231 712 Q236 712 241 712 Q300 712 341 674 Q355 660 363 651 Q371 642 381 624 Q397 594 399 558 Q402 519 385 475 Q377 455 368 440.5 Q359 426 347 414 Q339 405 330 396 Q321 387 313 378 Q309 373 305.5 369 Q302 365 297 360 Q295 357 289 351 L291 350 Q299 340 308.5 330.5 Q318 321 327 312 Q339 300 351.5 288 Q364 276 377 264 Q380 261 383 258 Q386 255 389 253 Q390 252 390 252 Q395 258 398.5 264.5 Q402 271 406 277 Q410 282 413 288 Q416 294 419 299 Q424 307 428.5 314.5 Q433 322 438 330 Q444 340 453 348 Q464 362 481 362 Q487 362 495 359 Q509 353 524 345 Q539 337 551 325 Q575 299 554 271 Q552 267 549 264 Q546 261 544 257 Q541 253 538 249.5 Q535 246 532 241 L529 237 Q519 223 510.5 210 Q502 197 494 183 Q492 178 489 173.5 Q486 169 483 164 Q481 162 481 161 Q483 159 485 158 Q495 150 505.5 141.5 Q516 133 526 123 Q532 119 536 116 Q536 116 540 114 Q542 112 543 112 Q545 110 547 109.5 Q549 109 551 107 Q578 83 561 55 Q554 45 547 35 Q540 25 533 14 Q521 -1 502 -1 Q493 -1 483 4 Q468 14 453 24.5 Q438 35 422 48 L417 53 Q407 61 400 66 Q398 64 394 62 Q389 57 383.5 53.5 Q378 50 373 45 Q350 25 324 12 Q298 -1 275 -11 Q257 -19 235 -20 L233 -20 Z M189 277 Q187 274 183 270 Q178 265 172.5 259.5 Q167 254 162 249 Q147 232 142 210 Q133 170 153 137 Q158 130 162 124.5 Q166 119 172 114 Q183 104 194 104 Q196 104 197.5 104.5 Q199 105 201 105 Q206 107 216 109 Q221 110 226 110.5 Q231 111 236 113 Q256 119 268 129 Q287 145 304 162 Q304 163 302 165 Q282 188 260 209.5 Q238 231 216 251 Q209 257 202.5 263.5 Q196 270 189 277 Z M222 590 Q214 589 208 588.5 Q202 588 196 587 Q194 587 193 586 Q155 569 154 535 Q154 512 163 499 Q164 497 165 495.5 Q166 494 167 492 Q169 488 171 485 Q173 482 175 480 Q180 474 184 469 Q188 464 191 460 Q195 456 198 452.5 Q201 449 203 447 Q205 448 208 451 Q211 454 215 457 Q220 461 225 465 Q230 469 236 474 Q241 478 244.5 481.5 Q248 485 252 489 Q254 491 254.5 492 Q255 493 257 495 Q275 513 276 548 Q276 550 275 551 L275 555 Q273 562 269 567 Q265 572 260 578 Q258 578 258 580 Q252 586 245 588 Q238 590 231 591 Q228 590 222 590 Z " />
<glyph glyph-name="asterisk" unicode="&#x2a;" horiz-adv-x="342" d="M154 489 Q135 489 122 499 Q114 505 110 507 Q109 508 108 508 L107 508 Q104 506 100.5 504.5 Q97 503 93 502 Q84 499 78 499 Q63 499 48 512 Q45 516 42 519 Q39 522 35 526 L18 543 Q8 554 8 570 Q8 586 19 597 Q24 601 28.5 604.5 Q33 608 37 611 Q39 613 42 614.5 Q45 616 47 618 Q53 622 55 624 Q52 627 50 628 Q39 636 30.5 645.5 Q22 655 14 664 Q13 666 10 669 Q3 677 1 687.5 Q-1 698 4 708 Q8 717 14 727 Q20 737 33 744 Q39 748 43 751 Q49 755 53 757 Q65 764 75 764 Q81 764 91 760 Q97 759 102 755 Q104 753 108 751 Q109 751 109.5 750.5 Q110 750 111 750 Q111 752 112 753 Q113 755 113 757.5 Q113 760 115 763 Q124 775 132 780 Q145 786 160 786 Q169 786 174 785 Q179 784 183 781.5 Q187 779 190 777 Q196 772 203.5 763.5 Q211 755 213 741 Q216 742 218.5 742.5 Q221 743 224 743 L229 743 Q232 743 236 742.5 Q240 742 245 740 Q253 735 259 731.5 Q265 728 270 723 Q298 698 296 663 Q295 642 280 629 L276 625 Q276 625 278 623 Q279 623 281 621 Q298 608 301 589 Q304 570 293 553 Q282 538 271 525 Q256 510 234 509 Q233 508 232 508 Q229 508 226.5 509 Q224 510 222 510 Q221 511 219 511 Q214 512 208 516 Q206 517 205 517.5 Q204 518 202 518 L201 517 Q201 515 199 511 Q189 493 167 490 Q164 489 160.5 489 Q157 489 154 489 Z " />
<glyph glyph-name="parenleft" unicode="&#x28;" horiz-adv-x="360" d="M242 -70 Q225 -70 214 -63 Q197 -52 179.5 -41 Q162 -30 147 -14 Q99 39 58 102 Q45 123 37 141.5 Q29 160 25 179 Q24 183 23 187 Q22 191 20 196 L17 208 Q-1 272 2 330 Q4 365 8.5 404.5 Q13 444 26 484 Q44 536 69 575 L70 576 Q72 579 73.5 582 Q75 585 76 587 Q85 606 96.5 623 Q108 640 119 656 L125 665 Q159 712 220 748 Q230 754 239 756 Q248 758 256 759 L259 759 Q265 759 271 757 Q277 755 280 753 Q300 741 307 725 Q311 717 314 708.5 Q317 700 319 690 Q322 665 303 651 L300 648 Q298 646 295 644.5 Q292 643 289 641 Q278 636 269.5 628 Q261 620 253 612 Q233 592 214 569 Q195 546 177 518 Q153 484 144 439 Q140 422 137 406.5 Q134 391 132 374 Q123 298 132 241 Q138 194 154 161 Q161 147 170.5 134 Q180 121 189 110 Q199 96 212 84 Q216 80 217 78 Q222 73 228 68 Q234 63 241 58 Q251 51 260.5 43.5 Q270 36 281 28 Q289 21 296 11 Q311 -18 290 -43 Q290 -44 289.5 -44 Q289 -44 289 -45 L286 -48 Q284 -50 283 -52 Q279 -57 273.5 -61.5 Q268 -66 260 -68 Q255 -69 250.5 -69.5 Q246 -70 242 -70 Z " />
<glyph glyph-name="parenright" unicode="&#x29;" horiz-adv-x="311" d="M64 -82 L60 -82 Q52 -82 44 -78 Q16 -61 9 -35 Q9 -33 8.5 -32.5 Q8 -32 8 -30 L8 -29 Q-1 5 27 29 Q32 33 37.5 38 Q43 43 48 48 Q53 53 58 57 Q63 61 68 66 Q79 75 87 86 Q95 97 104 111 Q115 129 121.5 148 Q128 167 135 188 Q137 196 139 201 Q141 207 143 214 Q145 221 147 230 L147 231 Q149 237 150 243 Q151 249 151 255 Q157 342 151 424 Q147 498 105 564 Q103 568 100.5 571.5 Q98 575 96 578 Q91 586 86.5 594 Q82 602 76 609 Q72 613 71 615 L62 624 Q50 634 40 646 Q34 652 28.5 658 Q23 664 16 669 Q-7 689 7 718 Q22 748 52 763 Q59 766 66 766 Q75 766 82 762 Q87 759 91.5 755.5 Q96 752 101 749 Q125 729 145 707.5 Q165 686 182 666 Q187 661 190.5 656 Q194 651 198 646 L201 643 Q204 639 207 635.5 Q210 632 212 627 Q217 614 222 605 Q230 589 236.5 573 Q243 557 248 540 Q253 525 256.5 509.5 Q260 494 263 480 Q265 467 267.5 452.5 Q270 438 270 423 Q270 417 270 411.5 Q270 406 271 400 Q271 397 271.5 394 Q272 391 272 387 Q274 372 273.5 356.5 Q273 341 271 326 L271 317 L271 312 Q270 283 265 255 Q260 227 253 200 Q250 185 246 170.5 Q242 156 237 142 Q234 133 231 124 Q228 115 226 105 Q223 96 218 86 L212 74 Q199 51 186.5 28.5 Q174 6 157 -16 Q156 -17 156 -17.5 Q156 -18 155 -19 Q152 -23 149 -26.5 Q146 -30 142 -34 Q128 -45 115.5 -54.5 Q103 -64 90 -74 Q79 -82 64 -82 Z " />
<glyph glyph-name="underscore" unicode="&#x5f;" horiz-adv-x="365" d="M50 -94 Q41 -94 31.5 -89.5 Q22 -85 14 -77 Q0 -63 0 -45 Q1 -40 1 -29 Q1 -26 0.5 -23.5 Q0 -21 1 -18 Q1 8 25 20 Q47 31 67 31 L72 31 Q104 29 136 28 Q168 27 200 27 Q211 27 223.5 26.5 Q236 26 247 26 Q258 26 268.5 24 Q279 22 289 20 L292 20 Q304 17 311 7 L312 6 Q314 1 316.5 -3.5 Q319 -8 320 -13 Q326 -43 317 -67 Q307 -92 283 -92 Q277 -93 272 -93 Q267 -93 262 -93 L254 -93 L246 -93 L245 -93 L211 -93 L155 -93 L155 -92 Q149 -92 143.5 -92.5 Q138 -93 132 -93 Q112 -93 91.5 -93.5 Q71 -94 51 -94 L50 -94 Z " />
<glyph glyph-name="hyphen" unicode="&#x2d;" horiz-adv-x="279" d="M179 204 L172 204 Q164 204 155 204.5 Q146 205 137 205 L133 205 L123 205 Q117 205 111.5 205.5 Q106 206 100 206 Q87 207 74.5 207 Q62 207 49 208 Q32 209 22 218 Q12 227 6 235 Q2 242 2 249 Q1 252 1 258 L1 264 Q0 288 18 305 Q30 317 50 319 L64 319 Q69 319 74 319 Q79 319 84 318 Q92 318 101 317.5 Q110 317 118 317 L123 317 Q128 316 133.5 316 Q139 316 144 315 Q158 313 168.5 311.5 Q179 310 189 310 L197 310 L199 310 Q220 310 231 290 Q238 278 239.5 266 Q241 254 241 243 Q242 229 232 218.5 Q222 208 208 206 Q200 204 192.5 204 Q185 204 179 204 Z " />
<glyph glyph-name="plus" unicode="&#x2b;" horiz-adv-x="333" d="M136 225 Q116 225 105 236 Q94 247 92 266 Q92 274 91.5 281.5 Q91 289 91 297 Q91 302 91 306.5 Q91 311 90 316 L90 322 L90 323 L89 323 L74 323 Q69 322 60 322 L56 322 Q54 322 52.5 321.5 Q51 321 49 321 Q47 321 46 321.5 Q45 322 43 322 Q35 322 28 327 Q6 341 2 366 Q-2 391 8 409 Q13 419 23 424 Q29 427 37.5 430 Q46 433 56 434 L59 434 L66 434 Q68 434 69.5 433.5 Q71 433 73 433 Q75 433 77 433.5 Q79 434 81 434 Q82 438 81.5 441 Q81 444 81 448 L81 462 Q82 467 82.5 471.5 Q83 476 83 481 Q83 485 83.5 488.5 Q84 492 84 496 Q85 515 103 531 Q119 546 141 546 Q150 546 162 543 Q187 536 190 510 Q192 501 192.5 491.5 Q193 482 194 473 Q194 469 195 467 L195 458 L195 449 Q195 447 197 443 Q205 443 209 442 Q220 442 229.5 441.5 Q239 441 250 440 Q287 438 292 402 Q293 388 292 378 Q292 357 269 337 Q265 334 260.5 332.5 Q256 331 251 330 L246 330 L240 330 L236 330 L230 330 Q227 330 224 330.5 Q221 331 218 331 Q215 331 212 330.5 Q209 330 206 330 L203 330 L203 327 L203 309 Q203 305 203 301 Q203 297 204 293 L204 291 Q204 286 204 282 Q204 278 203 273 Q203 266 200 256 Q191 228 161 226 L153 226 Q148 225 144.5 225 Q141 225 136 225 Z " />
<glyph glyph-name="equal" unicode="&#x3d;" horiz-adv-x="307" d="M154 345 Q152 345 149 345.5 Q146 346 143 346 Q141 346 140 346.5 Q139 347 137 347 L129 347 L118 347 L105 347 Q88 348 71 348.5 Q54 349 37 351 Q25 352 16 360 Q7 368 5 380 Q4 383 4 386 Q4 389 3 392 Q3 394 2.5 396.5 Q2 399 2 402 Q-4 424 13 447 Q24 461 40 464 Q75 471 110 471 Q133 471 154 468 Q160 466 166.5 465.5 Q173 465 180 464 Q198 462 213 456 Q228 450 239 444 Q255 436 258 418 Q260 413 260 408 Q260 403 261 398 Q261 390 258.5 384.5 Q256 379 254 375 Q238 349 208 347 Q197 346 187 346 Q177 346 166 345 L155 345 L154 345 Z M83 168 Q65 168 48 173 Q32 179 26 193 Q24 198 22 204 Q20 210 19 216 Q18 225 18 234 Q18 243 18 251 Q18 269 33 280 Q38 284 47 288 Q56 292 67 292 L106 292 L153 292 Q158 292 161.5 291.5 Q165 291 169 290 Q177 287 186 286.5 Q195 286 206 285 Q215 285 224.5 282.5 Q234 280 245 275 Q267 264 267 242 Q268 237 267.5 233.5 Q267 230 267 225 L267 220 Q267 198 249 180 Q235 168 220 168 L189 168 L159 168 L149 168 L130 168 L111 168 L84 168 L83 168 Z " />
<glyph glyph-name="braceleft" unicode="&#x7b;" horiz-adv-x="331" d="M185 -101 Q177 -101 171 -98 Q167 -97 164 -95.5 Q161 -94 158 -92 Q154 -90 148 -86 Q144 -84 141 -82 Q138 -80 134 -78 Q120 -70 111 -60 Q102 -50 94 -39 Q91 -34 89.5 -30 Q88 -26 86 -21 Q85 -19 85 -18.5 Q85 -18 84 -16 Q82 -9 79.5 -2.5 Q77 4 75 10 L74 13 Q73 15 73 15.5 Q73 16 72 18 Q68 27 67 35 Q63 48 62 58 Q55 87 50 120 Q45 155 44 195 Q44 209 43 223.5 Q42 238 41 252 Q40 256 40 260 Q40 264 39 268 Q39 271 38.5 271.5 Q38 272 37 273 Q4 280 1 321 Q0 329 0 337 Q0 345 0 353 Q0 357 1 359 Q1 375 16 387 Q18 389 20.5 390.5 Q23 392 26 393 Q47 403 53 435 Q55 448 55.5 461 Q56 474 57 486 Q60 542 78 595 Q82 602 83 609 Q87 620 91 631 Q95 642 99 653 Q117 696 156 741 Q159 743 161 746 Q166 751 168 754 Q176 764 185.5 769 Q195 774 203 777 Q212 781 224 781 Q241 781 256 772 Q263 769 267 763 Q275 752 282 737.5 Q289 723 290 704 Q290 683 278 671 Q275 668 272 664.5 Q269 661 265 657 Q259 650 252 643 Q245 636 238 629 Q227 616 218 602.5 Q209 589 201 575 Q190 555 189 541 Q187 523 184 505 Q181 487 178 470 Q176 459 174.5 449 Q173 439 171 428 Q167 405 162.5 389.5 Q158 374 148 351 Q156 328 161 302.5 Q166 277 169 246 Q171 223 172.5 199.5 Q174 176 176 147 L176 143 Q176 136 176.5 129.5 Q177 123 176 115 Q176 104 177 93 Q178 82 180 68 Q182 61 183.5 55 Q185 49 189 42 Q200 22 214 17 Q222 15 228 9 Q232 6 235 2 Q238 -2 240 -7 Q256 -50 224 -80 L209 -92 Q198 -101 185 -101 Z " />
<glyph glyph-name="bracketleft" unicode="&#x5b;" horiz-adv-x="273" d="M112 -89 Q89 -89 70 -86 Q53 -84 39 -80 Q17 -73 13 -51 Q11 -45 11 -40 Q11 -35 11 -30 Q11 -10 9.5 12 Q8 34 6 59 Q4 70 4 80 Q4 90 4 100 Q3 107 3 113.5 Q3 120 2 127 Q0 163 0 197.5 Q0 232 0 266 Q0 287 0.5 306.5 Q1 326 0 344 L0 392 L0 473 Q0 498 0.5 523 Q1 548 2 573 Q2 583 2.5 592.5 Q3 602 3 612 Q3 628 4.5 644 Q6 660 7 676 Q9 686 9.5 696 Q10 706 11 717 Q12 744 22 768 Q28 784 42 791 Q66 804 91 804 Q108 806 124.5 806 Q141 806 157 806 Q161 807 164.5 807 Q168 807 171 807 L173 807 Q189 807 203 800 Q217 794 222 784 Q227 774 228 766 Q229 756 228.5 746 Q228 736 224 726 Q217 704 194 697 Q179 694 165 693 Q151 692 139 692 Q137 692 133 692 Q129 692 127 691 Q126 689 126 685.5 Q126 682 126 679 L126 646 Q127 577 124.5 511.5 Q122 446 118 383 L118 364 Q117 361 117 355 L117 353 L117 349 Q117 343 117 337.5 Q117 332 116 327 Q115 302 114 277 Q113 252 114 226 L114 225 L114 224 Q112 211 111.5 197.5 Q111 184 111 170 L111 152 Q111 140 111.5 126 Q112 112 114 98 Q117 80 117 61 L117 45 Q118 43 118 41 L118 32 L129 32 L130 32 L160 32 Q164 32 167 32.5 Q170 33 173 33 L174 33 Q184 33 192 30.5 Q200 28 207 25 Q218 19 225 6 Q236 -20 233 -44 Q230 -61 220 -69 Q201 -85 183 -85 Q179 -86 175.5 -86 Q172 -86 168 -87 Q154 -88 140 -88.5 Q126 -89 112 -89 Z " />
<glyph glyph-name="bracketright" unicode="&#x5d;" horiz-adv-x="272" d="M123 -89 Q110 -89 105 -88 Q93 -87 81 -86.5 Q69 -86 58 -86 L56 -86 Q45 -86 35.5 -82 Q26 -78 19 -74 Q5 -65 2 -47 Q-3 -21 7 4 Q13 20 30 26 Q46 33 61 33 L64 33 Q72 32 81 32 Q90 32 98 32 L101 32 L104 32 L115 32 L115 37 L115 43 Q116 51 116.5 58.5 Q117 66 118 74 L120 101 L120 110 Q121 115 121 119 Q121 123 121 128 L121 188 Q120 197 120 206 Q120 215 120 224 L120 251 L120 264 L120 270 Q120 282 119.5 294 Q119 306 117 318 Q116 324 116 330 Q116 336 115 342 L115 344 Q115 372 114 400.5 Q113 429 111 458 Q108 503 107.5 548.5 Q107 594 108 639 L108 659 Q108 666 107.5 673 Q107 680 107 688 L107 691 Q100 692 94 692 Q88 692 81 692 Q58 692 36 698 Q19 702 12 719 Q0 743 6 771 Q9 789 27 799 Q34 802 40.5 804 Q47 806 55 806 Q59 807 67 807 L78 807 Q87 806 96 806 Q105 806 114 806 Q119 805 123.5 805 Q128 805 133 805 Q162 805 191 792 Q208 783 212 767 L213 765 Q215 757 217 749 Q219 741 220 733 Q222 716 224 698 Q226 680 228 662 Q229 651 229 640.5 Q229 630 230 620 Q230 612 230.5 605 Q231 598 231 591 Q233 557 233.5 524.5 Q234 492 233 460 L233 390 L233 322 L233 176 Q233 156 232.5 135.5 Q232 115 231 96 Q230 84 229.5 72 Q229 60 227 48 Q226 41 226 33.5 Q226 26 225 18 Q224 10 224 2.5 Q224 -5 223 -13 Q223 -23 222 -28 L222 -33 Q222 -42 221 -47 Q218 -72 194 -80 Q178 -85 165 -86 Q144 -89 123 -89 Z " />
<glyph glyph-name="braceright" unicode="&#x7d;" horiz-adv-x="332" d="M106 -101 Q94 -101 79 -91 Q78 -90 77.5 -89 Q77 -88 75 -87 Q73 -85 67 -81 Q51 -65 47 -45 Q42 -23 52 -4 Q54 1 57 4 Q60 7 63 10 L64 11 Q67 14 75 16 L75 17 Q99 25 109 62 Q111 70 112 78.5 Q113 87 113 96 Q113 119 114 141.5 Q115 164 117 186 Q118 194 118.5 202 Q119 210 119 218 Q120 223 120 228 Q120 233 120 238 Q122 259 125.5 279.5 Q129 300 132 319 Q135 331 139 343 Q140 345 142 351 Q124 392 118 439 Q116 453 113.5 467.5 Q111 482 108 496 Q106 508 104 520.5 Q102 533 100 546 Q98 554 94.5 562 Q91 570 86 579 Q76 598 63 615 Q50 632 34 648 Q29 654 23 660 Q17 666 12 672 L10 673 Q4 680 2.5 687 Q1 694 1 699 Q0 719 8 735.5 Q16 752 25 765 Q31 771 36 773 Q52 781 66 781 Q71 781 74.5 780.5 Q78 780 82 779 Q102 774 119 757 Q127 749 133.5 741 Q140 733 148 725 Q168 702 180 677 Q192 652 200 631 Q207 611 216 583 Q231 534 232 493 Q234 463 238 435 L238 432 Q239 420 250 403 Q252 401 254 399.5 Q256 398 258 397 Q294 382 291 337 L291 330 Q290 325 289.5 319 Q289 313 287 308 Q280 281 255 273 Q255 273 251 271 Q251 269 250.5 268.5 Q250 268 250 266 Q249 252 248 238 Q247 224 246 210 L245 204 L245 194 Q248 153 237 99 Q236 94 235.5 89.5 Q235 85 234 80 Q230 60 225 39 Q220 18 211 -2 Q210 -3 208 -10 Q208 -11 207 -12 Q196 -54 155 -79 Q153 -81 150.5 -81.5 Q148 -82 146 -84 Q141 -87 135.5 -90.5 Q130 -94 125 -96 Q115 -101 106 -101 Z " />
<glyph glyph-name="guilsinglleft" unicode="&#x2039;" horiz-adv-x="833" d="" />
<glyph glyph-name="colon" unicode="&#x3a;" horiz-adv-x="159" d="M76 141 L74 141 Q68 141 65 142 Q56 142 52 143 Q44 145 38 149 Q12 164 3 195 Q2 197 1 200.5 Q0 204 2 209 Q4 220 8.5 231.5 Q13 243 25 252 Q38 262 54 262 L57 262 L63 262 Q64 262 64.5 261.5 Q65 261 66 261 Q98 258 113 237 Q130 212 121 179 Q118 171 113 164 Q112 163 112 162 L106 156 Q105 156 105 155.5 Q105 155 104 155 Q90 141 76 141 Z M72 302 L65 302 Q42 304 27 319.5 Q12 335 7 358 Q7 365 8 369 Q10 380 15 390.5 Q20 401 33 408 Q35 409 37 410.5 Q39 412 41 414 Q49 420 57 421.5 Q65 423 73 423 Q110 423 121 387 Q124 376 124 370 Q124 369 124.5 369 Q125 369 125 368 L125 367 L125 366 L125 365 L125 359 L125 353 Q124 330 109.5 316 Q95 302 72 302 Z " />
<glyph glyph-name="semicolon" unicode="&#x3b;" horiz-adv-x="170" d="M64 84 Q55 84 42 89 Q28 95 26 110 Q23 124 35 134 Q37 135 39 137 Q30 140 23.5 145.5 Q17 151 11 157 Q7 163 5 168 Q-4 192 5 215 Q9 226 16.5 232.5 Q24 239 30 243 Q40 247 44 249 Q46 249 46.5 249.5 Q47 250 49 250 Q53 252 57 252 Q95 251 115.5 232 Q136 213 136 178 Q136 146 117 116 Q104 93 73 85 Q70 84 64 84 Z M76 294 Q73 294 70.5 294.5 Q68 295 66 295 Q59 297 51.5 299 Q44 301 36 306 Q6 326 10 365 Q10 372 11.5 378.5 Q13 385 15 391 Q21 414 46 420 Q49 420 51.5 420.5 Q54 421 56 421 L60 421 L61 421 Q106 418 124 381 Q140 348 120 316 Q116 309 111 306 Q91 294 76 294 Z " />
<glyph glyph-name="quotesingle" unicode="&#x27;" horiz-adv-x="158" d="M67 546 Q62 546 58.5 546 Q55 546 50 547 Q49 547 48 548 Q43 548 37 552 Q29 557 20 566 Q11 575 9 591 Q8 593 8 595 Q8 597 7 599 Q3 607 2 616 Q1 625 1 636 Q-2 658 10 684 Q17 700 33 705 Q36 706 42 706 Q58 706 69 694 Q79 682 78 667 Q77 665 77 663.5 Q77 662 76 661 Q76 659 75 659 Q82 657 87.5 655 Q93 653 98 651 Q114 645 120 627 Q127 607 121 585 Q116 568 100 555 Q92 549 84 547.5 Q76 546 70 546 L67 546 Z " />
<glyph glyph-name="numbersign" unicode="&#x23;" horiz-adv-x="700" d="M162 2 Q152 2 147 3 Q141 5 136 5 Q134 6 131.5 6 Q129 6 126 7 Q110 9 100.5 22 Q91 35 93 51 Q95 59 95.5 65.5 Q96 72 98 79 Q99 86 100 92.5 Q101 99 102 106 Q103 114 103.5 121 Q104 128 104 136 Q104 140 105 143 L98 143 L88 143 Q83 143 77 143 Q71 143 65 142 L61 142 Q47 142 35.5 147.5 Q24 153 16 158 Q1 168 1 185 Q0 196 0.5 206.5 Q1 217 1 228 L1 232 Q1 237 3 243 L4 243 Q11 267 37 270 Q40 271 43.5 271 Q47 271 50 271 L55 271 L56 271 L74 271 L88 271 L112 271 Q114 271 116 271.5 Q118 272 120 272 L122 272 Q123 272 123 273 Q123 278 125 286 Q127 295 128.5 304.5 Q130 314 132 324 Q134 332 134.5 339.5 Q135 347 137 355 L137 362 L136 362 L135 362 Q130 361 120 361 Q109 361 99.5 363.5 Q90 366 81 369 Q78 370 75.5 370.5 Q73 371 70 372 Q63 374 59 379 Q55 384 53 386 Q42 402 42 417 L42 451 L42 454 Q42 469 55 480 Q72 497 94 497 L95 497 L102 497 Q109 497 116 497.5 Q123 498 130 498 L141 498 Q146 498 150 498 Q154 498 159 499 Q161 504 162 509 Q163 514 165 519 Q165 523 167 531 L168 535 Q171 546 174 557 Q177 568 180 579 Q183 593 196 601 Q212 616 238 616 Q262 616 277 604 Q297 590 302 577 Q307 564 302 541 Q301 537 300 533 Q299 529 298 525 Q296 519 295 513.5 Q294 508 293 502 Q293 500 292.5 499 Q292 498 292 496 Q318 495 344.5 495 Q371 495 399 495 L403 495 L406 495 Q412 495 414 496 Q417 502 419 509 Q421 516 423 524 Q424 528 424.5 531.5 Q425 535 426 540 Q428 542 428 545 Q428 548 429 551 Q431 556 432 560.5 Q433 565 435 570 Q439 582 449 589 Q459 596 472 596 L473 596 L484 596 Q488 595 494 595 Q520 595 542 573 Q555 561 554 543 Q553 536 552.5 530 Q552 524 550 517 Q550 515 549.5 513 Q549 511 549 509 Q548 506 548 502.5 Q548 499 547 496 L561 496 L582 496 Q587 495 593.5 494.5 Q600 494 607 492 Q629 484 637.5 472 Q646 460 647 440 Q647 431 647 419.5 Q647 408 643 397 Q635 374 613 371 Q590 367 566 367 L563 367 L560 367 Q552 367 544 366.5 Q536 366 528 366 Q523 366 520 365 Q519 365 518 364 Q518 361 516 355 Q514 347 512.5 338.5 Q511 330 509 322 Q507 311 505.5 299.5 Q504 288 502 277 L502 274 L504 274 L512 274 L516 274 L524 274 Q529 273 537 273 L543 273 L546 273 Q560 273 570.5 268.5 Q581 264 592 258 Q605 250 606 236 Q611 207 608 181 Q606 166 595 159 Q576 143 555 143 Q542 143 529 143 Q516 143 503 142 L487 142 L485 142 Q479 142 477 141 L477 140 Q476 136 475 132.5 Q474 129 473 126 Q472 121 471.5 117.5 Q471 114 470 110 Q468 102 466.5 95 Q465 88 463 80 Q461 72 459 63.5 Q457 55 458 47 Q458 39 453.5 30 Q449 21 435 14 Q420 6 399 6 Q382 6 369 9 Q359 10 349 16 Q327 26 327 49 Q327 57 327 65 Q327 73 329 81 Q329 83 329.5 84 Q330 85 330 86 Q332 98 334 110 Q336 122 341 134 Q343 138 343 142 L290 142 L233 142 Q232 142 230 138 Q229 131 228 124.5 Q227 118 225 110 Q223 100 221 90 Q219 80 217 69 Q215 61 217 54 L217 46 Q218 31 209.5 20 Q201 9 185 5 Q180 4 174.5 3 Q169 2 162 2 Z M322 273 L334 273 L353 273 L371 273 Q371 275 371.5 275.5 Q372 276 372 277 L375 286 Q376 298 378.5 309.5 Q381 321 383 333 Q384 338 385 343 Q386 348 387 353 Q388 356 388 362 L388 364 L384 364 L383 364 L269 361 L268 361 Q266 356 265.5 351.5 Q265 347 264 343 Q262 325 259 307.5 Q256 290 254 274 L278 274 L294 274 L309 274 L319 274 L319 273 L322 273 Z " />
<glyph glyph-name="greater" unicode="&#x3e;" horiz-adv-x="350" d="M63 108 Q58 108 52 109 Q46 110 38 112 Q20 117 11 135 Q3 149 1 164 Q-3 204 32 223 Q37 225 42.5 228 Q48 231 53 233 Q75 246 96 254 Q109 260 123 269 Q127 271 129 273 Q127 275 125 276.5 Q123 278 121 280 Q116 283 111.5 287 Q107 291 102 295 Q100 298 94 302 Q82 313 70.5 325 Q59 337 48 348 Q42 354 36 360.5 Q30 367 24 373 Q12 385 12 402 L12 406 Q12 409 12 412.5 Q12 416 13 419 Q14 428 18 437 Q20 441 23 444.5 Q26 448 28 452 Q30 454 30.5 455 Q31 456 33 458 Q47 478 68 478 L71 478 L72 478 Q88 478 100 472 Q157 442 200 399 Q203 397 205.5 394 Q208 391 211 388 Q224 376 236.5 363 Q249 350 260 336 Q295 294 308 253 Q313 234 301 221 Q293 210 283 204 Q275 199 268.5 195 Q262 191 255 188 Q241 183 228 175.5 Q215 168 199 159 Q191 154 183.5 150.5 Q176 147 168 143 Q148 134 126.5 126.5 Q105 119 85 112 L83 112 Q75 108 63 108 Z " />
<glyph glyph-name="question" unicode="&#x3f;" horiz-adv-x="493" d="M188 152 Q174 152 162 155 Q148 158 140 167.5 Q132 177 132 191 L132 243 L132 255 L132 265 L132 281 L132 320 Q131 330 132.5 339.5 Q134 349 136 359 Q136 363 137 365 Q137 369 140 375 Q147 394 167 399 Q170 400 173 401 Q176 402 180 403 Q193 407 203 408 Q216 411 227.5 415.5 Q239 420 250 425 Q291 445 304 486 Q313 519 312 544 Q312 565 297 583 Q294 586 291.5 589 Q289 592 286 595 Q284 597 282 598.5 Q280 600 278 602 Q273 607 266.5 610.5 Q260 614 251 615 Q244 616 238 616.5 Q232 617 226 617 Q207 617 194 613 Q187 611 185 609 Q168 599 152.5 588.5 Q137 578 124 563 L113 552 Q109 548 105.5 544.5 Q102 541 99 537 Q87 520 65 520 Q50 520 38 529 Q17 545 5 571 Q-2 584 4 597 Q8 610 15 620 Q43 669 94 700 Q136 726 186 734 Q194 736 202 736 Q210 736 219 736 Q227 736 234.5 736 Q242 736 250 735 Q281 732 310 723 Q368 706 407 656 Q413 648 415 644 Q417 641 419 638 Q421 635 423 633 Q446 601 447 558 Q448 501 426 446 Q420 432 411.5 415 Q403 398 391 382 Q389 380 389 380 Q384 372 377 366 Q375 364 372 361.5 Q369 359 367 357 Q353 346 338 334 Q323 322 306 314 Q302 312 299 309.5 Q296 307 292 305 Q286 301 283 300 Q281 298 279.5 297.5 Q278 297 276 295 Q268 291 267 290 Q267 288 267 284.5 Q267 281 268 276 L268 273 Q269 252 268 231 L268 205 Q268 195 263 182 Q252 161 233 158 Q207 152 188 152 Z M204 -26 L199 -26 Q191 -25 182.5 -23.5 Q174 -22 165 -16 Q131 5 138 53 Q139 56 140 59 Q141 62 142 64 Q143 66 143 66 Q158 105 202 107 L203 107 L205 107 Q223 107 237.5 97 Q252 87 260 70 Q270 48 264 22 Q259 -1 243 -13.5 Q227 -26 204 -26 Z " />
<glyph glyph-name="period" unicode="&#x2e;" horiz-adv-x="169" d="M67 -20 L65 -20 Q15 -17 3 31 Q-7 69 29 101 Q35 105 38 106 Q55 111 66 111 Q83 111 99 103 Q119 93 129 72 Q131 67 132 62.5 Q133 58 133 55 Q133 53 133.5 52.5 Q134 52 134 51 L134 50 Q135 23 120 3 Q103 -16 79 -19 L77 -19 Q75 -19 72 -19.5 Q69 -20 67 -20 Z " />
<glyph glyph-name="comma" unicode="&#x2c;" horiz-adv-x="186" d="M77 -48 Q73 -48 71 -47 Q60 -45 50.5 -34 Q41 -23 40 -12 Q39 -7 39.5 -3 Q40 1 40 6 Q41 6 41 8 Q40 8 39.5 8.5 Q39 9 38 9 Q14 15 5 43 Q-6 73 11 94 Q32 125 70 125 Q76 125 79 124 Q106 122 130 103 Q155 82 152 44 Q149 12 127 -14 Q118 -26 106 -35 Q102 -39 98 -41.5 Q94 -44 89 -46 Q83 -48 77 -48 Z " />
<glyph glyph-name="quoteright" unicode="&#x2019;" horiz-adv-x="193" d="M67 712 Q80 712 89 708 Q95 706 100.5 702.5 Q106 699 110 693 Q115 688 118.5 682 Q122 676 127 669 Q149 635 140 591 Q137 571 128 558 Q117 540 94 540 Q88 540 85 541 Q54 550 54 579 Q54 588 55 593 L52 593 Q32 596 19 609 Q-1 625 1 654 Q2 660 3 666 Q4 672 6 677 Q15 692 32.5 702 Q50 712 67 712 Z " />
<glyph glyph-name="quoteleft" unicode="&#x2018;" horiz-adv-x="193" d="M76 540 Q63 540 54 544 Q48 546 42.5 549.5 Q37 553 33 559 Q28 564 24.5 570 Q21 576 16 583 Q-6 617 3 661 Q6 680 15 694 Q26 712 49 712 Q55 712 58 711 Q89 702 89 673 Q89 664 88 659 L91 659 Q111 656 124 643 Q143 626 142 598 Q141 592 140 586 Q139 580 137 575 Q128 560 110.5 550 Q93 540 76 540 Z " />
<glyph glyph-name="quotedblleft" unicode="&#x201c;" horiz-adv-x="363" d="M76 540 Q63 540 54 544 Q48 546 42.5 549.5 Q37 553 33 559 Q28 564 24.5 570 Q21 576 16 583 Q-6 617 3 661 Q6 680 15 694 Q26 712 49 712 Q55 712 58 711 Q89 702 89 673 Q89 664 88 659 L91 659 Q111 656 124 643 Q143 626 142 598 Q141 592 140 586 Q139 580 137 575 Q128 560 110.5 550 Q93 540 76 540 Z M246 540 Q233 540 224 544 Q218 546 212.5 549.5 Q207 553 203 559 Q198 564 194.5 570 Q191 576 186 583 Q164 617 173 661 Q176 680 185 694 Q196 712 219 712 Q225 712 228 711 Q259 702 259 673 Q259 664 258 659 L261 659 Q281 656 294 643 Q313 626 312 598 Q311 592 310 586 Q309 580 307 575 Q298 560 280.5 550 Q263 540 246 540 Z " />
<glyph glyph-name="quotedblright" unicode="&#x201d;" horiz-adv-x="363" d="M237 712 Q250 712 259 708 Q265 706 270.5 702.5 Q276 699 280 693 Q285 688 288.5 682 Q292 676 297 669 Q319 635 310 591 Q307 571 298 558 Q287 540 264 540 Q258 540 255 541 Q224 550 224 579 Q224 588 225 593 L222 593 Q202 596 189 609 Q169 625 171 654 Q172 660 173 666 Q174 672 176 677 Q185 692 202.5 702 Q220 712 237 712 Z M67 712 Q80 712 89 708 Q95 706 100.5 702.5 Q106 699 110 693 Q115 688 118.5 682 Q122 676 127 669 Q149 635 140 591 Q137 571 128 558 Q117 540 94 540 Q88 540 85 541 Q54 550 54 579 Q54 588 55 593 L52 593 Q32 596 19 609 Q-1 625 1 654 Q2 660 3 666 Q4 672 6 677 Q15 692 32.5 702 Q50 712 67 712 Z " />
<glyph glyph-name="less" unicode="&#x3c;" horiz-adv-x="350" d="M247 108 Q235 108 227 112 L225 112 Q205 119 183.5 126.5 Q162 134 142 143 Q134 147 126.5 150.5 Q119 154 111 159 Q95 168 82 175.5 Q69 183 55 188 Q48 191 41.5 195 Q35 199 27 204 Q17 210 9 221 Q-3 234 2 253 Q15 294 50 336 Q61 350 73.5 363 Q86 376 99 388 Q102 391 104.5 394 Q107 397 110 399 Q153 442 210 472 Q222 478 238 478 L239 478 L242 478 Q263 478 277 458 Q279 456 279.5 455 Q280 454 282 452 Q284 448 287 444.5 Q290 441 292 437 Q296 428 297 419 Q298 416 298 412.5 Q298 409 298 406 L298 402 Q298 385 286 373 Q280 367 274 360.5 Q268 354 262 348 Q251 337 239.5 325 Q228 313 216 302 Q210 298 208 295 Q203 291 198.5 287 Q194 283 189 280 Q187 278 185 276.5 Q183 275 181 273 Q183 271 187 269 Q200 260 214 254 Q235 246 257 233 Q262 231 267.5 228 Q273 225 278 223 Q313 204 309 164 Q307 149 299 135 Q290 117 272 112 Q264 110 258 109 Q252 108 247 108 Z " />
<glyph glyph-name="bar" unicode="&#x7c;" horiz-adv-x="179" d="M40 -125 Q29 -125 20 -117.5 Q11 -110 7 -98 Q6 -94 5.5 -90 Q5 -86 4 -81 Q1 31 4 120 L4 152 L4 173 Q4 179 4.5 185.5 Q5 192 5 199 L5 210 L6 220 Q7 222 7 226 Q7 234 7.5 242.5 Q8 251 8 259 Q10 320 9.5 370 Q9 420 7 465 Q6 474 6 482.5 Q6 491 5 499 Q4 524 3 548.5 Q2 573 1 598 Q0 621 0 643 Q0 665 0 688 Q0 693 0.5 699 Q1 705 1 710 Q2 712 2 716 Q4 734 17.5 749.5 Q31 765 54 767 Q56 767 58 767.5 Q60 768 62 768 Q67 768 71 768.5 Q75 769 80 769 Q89 769 93 768 Q114 765 121 753.5 Q128 742 129 731 Q131 713 132 695 Q133 677 134 657 Q135 643 135.5 629 Q136 615 137 601 Q137 590 137.5 579.5 Q138 569 138 558 Q140 533 140 507.5 Q140 482 140 457 L140 431 Q140 421 139.5 411.5 Q139 402 139 392 L139 336 L139 274 Q138 258 138.5 242 Q139 226 139 211 L139 181 L139 174 Q139 169 139 164.5 Q139 160 138 155 Q134 131 135 107 Q136 83 138 58 Q138 53 138 47.5 Q138 42 139 37 Q139 30 139.5 23.5 Q140 17 141 11 Q143 -2 144 -14.5 Q145 -27 144 -41 L144 -43 Q143 -51 142.5 -58 Q142 -65 141 -72 Q138 -95 114 -105 Q85 -116 47 -124 Q45 -124 43.5 -124.5 Q42 -125 40 -125 Z " />
<glyph glyph-name="cent" unicode="&#xa2;" horiz-adv-x="439" d="M231 44 L229 44 Q225 45 221.5 45 Q218 45 214 46 Q210 46 207 46.5 Q204 47 201 47 Q187 48 177.5 54.5 Q168 61 163 67 Q160 70 158.5 74 Q157 78 155 81 Q153 87 153 91 L153 92 Q151 100 153 106 Q153 117 151 120 Q148 123 138 127 Q130 129 127 131 Q114 136 103 144 Q92 152 81 160 L80 161 Q74 166 67.5 172 Q61 178 55 184 Q41 198 36 208 Q-7 289 2 371 Q8 424 38 471 Q74 527 120 555 Q127 560 134 563 Q141 566 149 570 Q151 571 152.5 572 Q154 573 156 574 Q159 575 159 577 Q160 582 160 586.5 Q160 591 160 596 Q161 601 161 611 Q162 623 164 632.5 Q166 642 169 650 Q178 672 202 677 Q207 678 212.5 678.5 Q218 679 223 679 Q241 679 264 673 Q282 668 287 648 Q289 640 290.5 630.5 Q292 621 292 609 Q292 606 292 602.5 Q292 599 293 596 Q296 595 299.5 595 Q303 595 306 595 Q342 594 373 563 Q382 554 382 539 Q381 530 380.5 521 Q380 512 379 504 L378 502 Q378 500 377.5 498.5 Q377 497 377 495 Q376 494 376 494 Q374 486 367.5 481 Q361 476 354 476 L353 476 Q346 476 340 476.5 Q334 477 327 478 Q322 479 316 479.5 Q310 480 305 481 Q301 482 297.5 482 Q294 482 290 483 L290 480 Q290 478 289.5 476.5 Q289 475 289 473 Q289 463 288.5 454 Q288 445 288 436 Q287 419 286.5 402 Q286 385 285 368 Q284 344 283 320 Q282 296 281 273 Q280 262 279.5 251 Q279 240 279 229 Q278 227 278 223 L282 223 Q307 223 324 231 Q333 235 348 235 Q356 235 359 234 Q370 233 377.5 226 Q385 219 387 209 Q389 198 391 186.5 Q393 175 394 162 Q396 146 386.5 136.5 Q377 127 366 125 Q361 123 356.5 123 Q352 123 347 122 Q344 122 341 121.5 Q338 121 335 121 Q324 119 312.5 117 Q301 115 289 113 Q285 113 275 111 Q274 108 274 101 Q274 99 273.5 96.5 Q273 94 273 92 Q272 90 272 86 Q272 84 271.5 81.5 Q271 79 271 77 Q268 63 256.5 53.5 Q245 44 231 44 Z M156 433 Q130 404 114 351 Q105 319 124 284 Q126 281 127.5 278 Q129 275 131 271 Q138 258 153 248 L156 326 L156 336 L156 368 L156 432 L156 433 Z " />
<glyph glyph-name="currency" unicode="&#xa4;" horiz-adv-x="606" d="M457 67 Q453 67 449 67.5 Q445 68 440 69 Q429 72 425 77 Q416 85 411 91 Q409 92 408.5 93 Q408 94 406 95 Q402 100 398 105 Q394 110 389 115 Q385 120 382 121.5 Q379 123 377 123 Q372 123 368 120 Q361 117 354 115.5 Q347 114 340 112 Q339 111 336 111 Q309 105 278 105 Q255 105 228 108 Q222 109 216.5 109.5 Q211 110 206 112 L205 112 Q194 114 183.5 117 Q173 120 162 127 Q157 130 152 132.5 Q147 135 142 137 Q135 131 129 124.5 Q123 118 117 113 Q108 103 98.5 95.5 Q89 88 81 82 Q70 74 58 74 Q54 74 46 76 Q28 79 13 97 Q11 98 9 103 Q5 114 2 128 Q-1 142 5 158 Q8 165 12.5 169.5 Q17 174 21 178 Q25 182 28 185 Q31 188 35 191 Q40 196 45 200.5 Q50 205 55 210 L58 213 Q56 217 54 223 Q29 286 29 341 Q29 347 29 353 Q29 359 28 365 Q26 385 28 404 Q30 423 32 441 Q36 466 46.5 486.5 Q57 507 69 524 Q73 530 76 533 L75 533 Q64 539 56.5 547 Q49 555 41 563 Q30 575 30.5 590 Q31 605 42 616 Q50 625 59.5 633 Q69 641 81 646 Q89 650 99 650 Q113 650 124 641 Q127 637 130.5 634 Q134 631 138 628 Q147 620 155.5 612.5 Q164 605 172 595 L173 595 Q175 595 176 596 Q179 596 183 598 Q211 610 246 610 Q263 610 286 607 Q294 605 301.5 603.5 Q309 602 316 600 Q318 599 319.5 599 Q321 599 323 598 Q328 596 332 594.5 Q336 593 340 591 Q348 585 357.5 581 Q367 577 377 573 Q382 570 389 568 Q394 565 398.5 562.5 Q403 560 408 557 Q412 555 412 555 L413 555 Q418 559 421.5 562.5 Q425 566 429 569 Q437 575 443.5 581.5 Q450 588 458 593 Q470 603 483 609 Q493 614 501 614 Q520 614 532 600 Q539 592 543.5 583.5 Q548 575 553 565 Q557 555 557 546 Q557 537 556 530 Q553 515 544 508 Q531 497 524 492 Q519 488 514 484.5 Q509 481 504 478 Q500 475 496.5 472.5 Q493 470 488 467 Q486 465 486 465 Q484 463 482.5 462.5 Q481 462 479 460 Q479 459 479.5 458.5 Q480 458 480 457 Q481 449 485 440 Q506 379 496 313 Q494 303 492 292 Q490 281 488 270 Q485 250 479 236 Q477 231 475 225.5 Q473 220 471 215 Q471 215 469 211 Q477 200 485 190.5 Q493 181 504 173 Q508 170 511.5 166.5 Q515 163 517 161 Q528 150 528.5 135.5 Q529 121 519 109 Q503 90 489 79 Q475 67 457 67 Z M136 353 L136 343 L136 333 L136 309 Q136 293 146 276 Q155 263 166 253 Q180 240 196 231.5 Q212 223 226 216 Q229 214 232 214 Q235 214 239 213 L242 212 Q248 211 254 210.5 Q260 210 267 210 Q301 210 340 228 Q351 232 360 244 Q380 270 390 304 Q395 321 395 329 Q398 356 395 382 Q392 412 380 435 Q372 452 358 460 Q351 463 345 468 Q343 469 342 470 Q341 471 339 472 Q318 485 295 490 Q290 491 284.5 492 Q279 493 274 494 Q268 495 262 496 Q256 497 250 498 Q247 499 241 499 L235 499 Q220 496 205 491 Q203 491 202 490.5 Q201 490 200 490 Q187 486 176 472 Q170 464 164.5 456 Q159 448 155 440 Q133 398 136 366 L136 353 Z " />
<glyph glyph-name="copyright" unicode="&#xa9;" horiz-adv-x="706" d="M351 -3 L338 -3 Q332 -2 326.5 -2 Q321 -2 316 -2 Q303 -1 291 0 Q279 1 266 4 Q261 5 257.5 5.5 Q254 6 249 7 Q244 8 238 9 Q232 10 226 12 Q225 12 224 12.5 Q223 13 222 13 Q211 15 203 20 Q196 24 189.5 27.5 Q183 31 175 35 Q164 40 153.5 45.5 Q143 51 133 59 Q130 61 127 63 Q124 65 122 67 Q105 79 88.5 92.5 Q72 106 59 124 Q53 133 47 143 Q41 153 36 164 Q28 184 22 205 Q16 226 11 251 Q5 277 3.5 301.5 Q2 326 2 348 Q2 356 1 360 Q1 364 0.5 367.5 Q0 371 0 376 Q2 444 13 491 Q15 496 16 500.5 Q17 505 19 510 Q27 526 37 545 Q47 564 61 582 Q69 593 78.5 600.5 Q88 608 97 615 Q100 617 102.5 618.5 Q105 620 108 622 Q115 627 121.5 631.5 Q128 636 136 641 Q152 651 170.5 661 Q189 671 209 678 Q214 680 217 680.5 Q220 681 223 683 Q243 691 263 695 Q283 699 304 699 Q327 699 353 693 Q361 691 368 689.5 Q375 688 382 686 Q387 685 391.5 684 Q396 683 401 682 Q424 676 441 664 Q451 657 466 651 Q468 650 468.5 650 Q469 650 471 649 Q475 647 477 647 Q517 634 544 608 Q571 582 591 556 Q593 552 594.5 549 Q596 546 598 543 Q615 506 626.5 476 Q638 446 644 417 Q660 350 648 291 Q646 283 645 276 Q644 269 643 262 Q641 254 640 246 Q639 238 637 230 Q635 219 632 209 Q629 199 627 189 Q626 186 625.5 182.5 Q625 179 623 176 Q623 170 619 165 L616 159 Q605 139 593.5 118.5 Q582 98 566 79 L552 65 Q511 30 457 14 Q407 -3 351 -3 Z M118 314 L118 278 Q119 245 132 223 Q147 197 173 174 Q181 166 190.5 160 Q200 154 211 148 Q214 146 217.5 143.5 Q221 141 225 139 Q243 127 262 120.5 Q281 114 301 112 Q303 112 304 111.5 Q305 111 306 111 L311 111 Q317 110 322.5 109.5 Q328 109 333 109 Q342 109 346 110 Q359 111 371.5 113.5 Q384 116 398 119 Q404 121 408 122 Q426 127 443 134 L444 135 Q466 143 487 170 Q501 187 510 206 Q519 225 525 240 Q534 263 538 284 Q542 305 542 327 Q543 350 541.5 370 Q540 390 537 409 Q531 449 505 494 Q503 497 500 500.5 Q497 504 493 506 Q464 525 436 542 Q414 555 384 561 Q379 563 373 563.5 Q367 564 361 566 Q354 567 347 568 Q340 569 333 571 Q324 573 314.5 574 Q305 575 296 575 Q262 575 226 562 Q202 554 190 538 Q176 522 163 503.5 Q150 485 140 464 Q135 454 132 444.5 Q129 435 126 424 Q125 421 124.5 418.5 Q124 416 123 413 Q118 399 117 387 Q116 375 118 362 Q119 356 118.5 350.5 Q118 345 118 339 L118 330 L118 320 L118 314 Z M325 172 Q317 172 310 172 Q303 172 294 174 Q280 176 266.5 180 Q253 184 238 192 Q223 200 210 211 Q197 222 184 239 Q170 258 165 286 Q163 294 162.5 303 Q162 312 161 320 Q160 324 160 327.5 Q160 331 159 335 L159 336 Q161 401 195 458 Q213 488 245 506 Q284 527 323 527 Q330 527 334 526 Q357 524 381 515 Q396 509 413 499 Q433 488 433 465 Q431 431 408 409 Q397 398 383 398 Q380 398 377.5 398.5 Q375 399 373 399 L343 408 Q334 411 325 411 Q315 411 302 408 Q296 407 287 398 Q280 388 279 381 Q272 342 288 317 Q295 306 307 306 L308 306 Q315 306 322 308 Q329 310 334 312 Q337 312 343 318 Q347 321 350 324.5 Q353 328 356 332 L362 338 L365 341 Q367 344 373 350 Q383 359 398 359 Q409 359 416 355 Q446 337 464 304 Q470 292 467 279 Q458 244 430 217 Q417 205 401.5 196 Q386 187 369 179 Q351 172 325 172 Z " />
<glyph glyph-name="registered" unicode="&#xae;" horiz-adv-x="707" d="M353 -3 Q284 -3 226 12 L225 12 Q220 14 214 15.5 Q208 17 203 19 Q199 21 195 23.5 Q191 26 187 28 Q173 35 159.5 42.5 Q146 50 133 59 L131 60 Q113 73 95 86.5 Q77 100 63 119 Q40 148 31 176 Q30 178 29.5 180 Q29 182 28 184 Q23 201 18 218.5 Q13 236 11 254 Q3 280 2 304.5 Q1 329 2 351 Q-2 372 -0.5 392.5 Q1 413 3 433 Q4 436 4 439 Q4 442 5 444 Q6 455 7.5 464.5 Q9 474 11 483 Q12 486 12.5 488.5 Q13 491 14 494 Q15 498 16 502 Q17 506 19 511 Q27 529 37 547 Q47 565 60 582 Q67 590 75.5 597 Q84 604 92 611 Q94 612 94.5 612.5 Q95 613 97 614 Q105 621 114.5 627 Q124 633 136 641 Q155 653 172.5 662.5 Q190 672 209 678 Q213 679 216 680 Q219 681 223 683 Q263 699 303 699 Q327 699 353 693 Q361 691 367.5 689.5 Q374 688 382 686 Q387 685 391.5 684 Q396 683 401 682 Q424 676 441 664 Q449 657 466 651 Q475 647 482.5 644 Q490 641 498 638 Q532 622 554 598 Q556 595 563 588 L566 585 Q592 558 607 523 Q618 498 625.5 478 Q633 458 638 438 Q661 364 647 287 L644 269 Q642 260 641 250.5 Q640 241 637 232 Q634 222 631.5 212.5 Q629 203 627 194 Q626 189 625.5 184.5 Q625 180 623 175 Q623 171 620 167 Q619 165 618.5 163.5 Q618 162 617 160 Q606 138 593 117 Q580 96 563 77 Q534 45 492 27 Q421 -3 354 -3 L353 -3 Z M293 575 Q288 575 282 575 Q276 575 270 574 Q259 572 247 569 Q235 566 221 561 Q203 554 190 539 Q182 530 175 520.5 Q168 511 161 500 Q159 496 156 492.5 Q153 489 151 485 Q140 468 133.5 449.5 Q127 431 122 411 Q122 410 121.5 409 Q121 408 121 407 Q119 400 117.5 393.5 Q116 387 116 381 L117 370 Q117 347 117.5 324.5 Q118 302 118 279 Q117 241 143 205 Q156 188 171.5 174.5 Q187 161 204 150 Q206 149 208 148.5 Q210 148 212 147 Q216 144 220 141.5 Q224 139 229 136 Q257 119 291 113 Q313 110 333 110 Q341 110 347.5 110 Q354 110 362 111 Q368 113 374 114 Q380 115 387 117 Q392 119 396.5 119.5 Q401 120 406 122 Q416 124 425 127 Q434 130 444 135 L447 137 Q468 146 484 166 Q494 179 501.5 192.5 Q509 206 516 220 Q544 278 542 342 L542 343 Q543 357 541.5 371.5 Q540 386 538 401 L537 404 Q535 426 527 447.5 Q519 469 505 492 Q501 500 491 507 Q482 513 472.5 519 Q463 525 454 531 L439 540 Q416 555 385 561 Q372 564 359.5 566.5 Q347 569 334 571 Q330 571 322 573 Q314 574 307.5 574.5 Q301 575 293 575 Z M402 198 Q400 198 397.5 198.5 Q395 199 392 199 Q379 202 372 211 Q369 216 366.5 220 Q364 224 361 228 Q359 232 357 235 L348 250 Q342 260 336 269 Q330 278 325 287 Q323 290 320 290 L298 290 L298 279 Q297 275 297 269 L297 261 Q296 254 296 247 Q296 240 295 232 Q295 227 294 224 Q293 221 291 217 Q286 205 273 203 L233 203 L211 203 Q200 204 190 213 Q180 222 178 233 Q177 238 177 243.5 Q177 249 177 254 Q177 262 177 270 Q177 278 178 286 Q178 306 179 327 Q180 348 182 368 Q185 399 185 430 Q185 437 185 443.5 Q185 450 186 457 L186 462 L186 475 Q184 498 208 511 Q223 519 242 520 Q251 521 260 521 Q269 521 277 521 Q284 522 290.5 522 Q297 522 304 523 L321 523 Q343 523 364 520 Q413 514 447 482 Q449 480 451.5 477 Q454 474 456 471 Q485 427 474 375 Q471 352 451 335 Q450 334 449 333.5 Q448 333 447 332 Q443 328 440 326 L446 314 Q451 303 455.5 292 Q460 281 465 270 Q466 268 466 267.5 Q466 267 467 265 Q469 261 470 258 Q480 235 458 223 Q454 221 450.5 219 Q447 217 444 215 Q439 212 434.5 209.5 Q430 207 425 205 Q415 198 402 198 Z M332 392 L337 392 L343 392 L351 392 Q353 392 354.5 392.5 Q356 393 357 393 L358 393 Q358 394 359 395 Q359 395 361 401 Q363 410 359 419 Q359 422 352 426 L349 426 Q334 429 319 429 Q314 429 309 428.5 Q304 428 299 428 Q299 420 299 412.5 Q299 405 300 398 L300 394 L303 394 Q308 393 312.5 393 Q317 393 322 393 Q328 393 332 392 Z " />
<glyph glyph-name="yen" unicode="&#xa5;" horiz-adv-x="571" d="M290 1 L283 1 Q248 3 224 4 Q216 4 209.5 10 Q203 16 202 24 Q201 28 201 32 Q201 36 201 41 L201 62 L201 90 Q200 107 199.5 124.5 Q199 142 198 158 L198 160 Q198 161 194 161 Q185 162 177.5 162.5 Q170 163 162 163 Q157 163 153 163 Q149 163 144 162 L136 162 Q112 162 102 175 Q92 188 87 205 Q85 214 84.5 224 Q84 234 86 246 Q89 260 99 268.5 Q109 277 123 279 Q136 281 149 281.5 Q162 282 175 284 Q180 284 185.5 284.5 Q191 285 196 285 L196 286 Q188 286 179.5 286 Q171 286 163 285 L133 285 Q131 285 130 284 L120 284 L114 284 Q102 285 91.5 294 Q81 303 79 315 Q74 338 77 358 Q79 375 92.5 388 Q106 401 123 403 L132 404 Q140 404 147.5 404.5 Q155 405 163 406 L163 407 Q161 411 159 414.5 Q157 418 154 422 Q139 442 124.5 463.5 Q110 485 96 505 Q91 513 86.5 519.5 Q82 526 77 533 Q69 544 63 553 Q57 562 50 570 Q42 580 35 589.5 Q28 599 21 610 L6 631 Q2 635 1 640 Q-7 654 0 669 Q6 685 21 689 Q30 692 39 692 L44 692 L57 692 Q60 691 63.5 691 Q67 691 70 691 L73 691 L74 691 Q96 691 111 676 Q129 658 138 645 L141 643 Q156 624 172 605 Q188 586 203 566 Q211 556 218 545.5 Q225 535 233 522 Q246 502 262 483 Q274 500 287 514 Q298 528 309.5 542.5 Q321 557 332 572 Q335 577 338 580.5 Q341 584 344 589 Q346 592 349 595.5 Q352 599 354 602 L363 614 Q369 622 374.5 630 Q380 638 384 647 Q386 650 387.5 653 Q389 656 391 658 L394 661 Q395 663 395.5 663.5 Q396 664 397 666 Q408 680 414 683.5 Q420 687 438 687 L441 687 Q446 687 451.5 687 Q457 687 462 688 L491 688 Q495 688 503 686 L505 686 Q508 685 512 682.5 Q516 680 518 672 Q521 661 514 649 Q510 643 508 641 L506 639 Q504 636 502 633.5 Q500 631 498 629 Q494 624 490.5 619.5 Q487 615 483 610 Q475 601 468.5 591.5 Q462 582 454 572 Q438 551 421.5 529 Q405 507 391 484 Q385 475 378.5 466.5 Q372 458 366 450 Q363 446 360.5 443 Q358 440 355 436 Q350 428 344.5 420 Q339 412 334 403 L338 403 L340 403 Q345 403 350.5 403 Q356 403 361 404 L399 404 L403 404 Q411 404 417.5 404 Q424 404 430 403 Q444 402 453.5 393.5 Q463 385 466 373 Q470 350 465 325 Q457 298 429 296 L369 293 L349 293 Q345 292 339 292 L322 292 L321 292 L321 289 L321 288 Q335 290 349.5 291 Q364 292 381 292 L397 292 Q403 291 408.5 291 Q414 291 419 290 Q440 287 448 267 Q452 258 454.5 249 Q457 240 455 230 L455 220 Q455 216 454.5 212.5 Q454 209 454 205 Q451 182 431 173 Q424 170 416.5 167.5 Q409 165 400 165 Q390 165 385 164 L357 164 L355 164 L346 164 L338 164 L331 164 L320 164 Q319 162 319 156.5 Q319 151 320 146 Q320 136 320.5 126 Q321 116 321 106 Q322 95 322 83 Q322 71 323 60 L323 41 Q323 30 322 22.5 Q321 15 317 10 Q312 4 305 2.5 Q298 1 290 1 Z " />
<glyph glyph-name="brokenbar" unicode="&#xa6;" horiz-adv-x="161" d="M63 -112 Q57 -112 51.5 -111.5 Q46 -111 41 -110 Q10 -103 5 -72 Q4 -66 4 -60 Q4 -54 4 -48 L4 -46 L4 60 L4 106 L4 125 L4 198 Q3 212 3 222.5 Q3 233 2 243 Q-1 273 24 301 Q32 309 45 311 L71 311 L79 311 Q101 311 112 290 Q114 285 117 278.5 Q120 272 122 265 Q125 252 127 240 Q129 228 127 216 Q125 198 125 180 Q125 162 125 144 L125 112 Q124 103 124 94.5 Q124 86 124 78 Q124 52 123.5 25.5 Q123 -1 122 -27 Q121 -39 119.5 -50 Q118 -61 116 -74 Q114 -88 103 -98.5 Q92 -109 78 -111 Q74 -111 70.5 -111.5 Q67 -112 63 -112 Z M69 363 Q59 363 54 364 L46 364 Q28 365 17 377.5 Q6 390 4 405 L4 422 L4 425 L4 502 L4 520 L4 554 L4 580 L4 600 L4 674 Q3 687 3 697 Q3 707 2 717 Q-1 747 24 775 Q36 785 48 785 L68 785 L79 785 Q101 785 112 764 Q119 752 122 739 Q125 726 127 714 Q129 702 127 690 Q125 672 125 653.5 Q125 635 125 618 L125 586 Q125 579 124.5 572.5 Q124 566 124 559 Q124 531 123.5 503 Q123 475 122 447 Q120 422 116 400 Q114 385 102 374.5 Q90 364 74 363 L69 363 Z " />
<glyph glyph-name="section" unicode="&#xa7;" horiz-adv-x="471" d="M230 -341 Q225 -341 219.5 -341 Q214 -341 208 -340 Q147 -334 106 -317 Q97 -313 88 -308.5 Q79 -304 71 -300 Q67 -297 59 -293 Q51 -289 48 -287 Q40 -282 32 -279 Q24 -275 18.5 -270 Q13 -265 9 -260 Q-3 -244 4 -228 L10 -210 Q11 -207 11.5 -204.5 Q12 -202 13 -199 Q15 -193 20.5 -184 Q26 -175 40 -175 Q43 -175 53 -177 Q60 -179 67.5 -181.5 Q75 -184 84 -187 Q89 -189 94 -191 Q99 -193 104 -195 Q108 -197 111 -198 Q114 -199 118 -201 L121 -202 Q138 -209 148 -212.5 Q158 -216 167 -218.5 Q176 -221 186.5 -222.5 Q197 -224 216 -226 Q223 -227 229 -227 Q235 -227 241 -227 L250 -227 L259 -227 L264 -227 L265 -227 L266 -227 Q290 -216 298 -200 Q300 -194 300 -189 Q300 -182 299 -178 L299 -168 Q299 -140 285 -116 Q280 -106 275 -97.5 Q270 -89 263 -81 Q254 -69 244 -65 Q236 -61 232 -60 Q213 -51 190 -43 Q166 -33 144 -19.5 Q122 -6 103 11 Q98 16 93 20 Q88 24 83 29 Q71 39 65 49 Q28 102 34 173 Q34 175 34.5 178 Q35 181 35 183 Q36 186 36.5 188.5 Q37 191 37 194 Q38 232 65 273 Q74 287 85 302.5 Q96 318 110 331 Q110 332 111 332 Q105 339 99 344.5 Q93 350 87 355 L84 357 Q57 381 45 418 Q28 465 36 516 Q38 532 41.5 548.5 Q45 565 53 582 Q68 611 83 631 Q98 651 116 666 Q153 697 198 698 L229 698 L261 698 L273 698 Q278 698 282 697 Q286 696 290 695 Q332 685 361 666 Q364 664 367 662.5 Q370 661 372 659 Q387 648 400 642 Q415 635 423 621 Q425 617 426.5 612.5 Q428 608 426 603 Q421 587 417 572 Q413 557 408 542 L408 540 Q406 537 402.5 532.5 Q399 528 390 527 Q386 526 380 526 Q370 526 361 528.5 Q352 531 342 536 Q299 560 265 571 Q236 581 214 582 L212 582 Q207 582 201 579 Q189 571 184 564 Q177 553 171.5 543.5 Q166 534 161 525 Q155 512 153 491 Q153 455 182 432 Q190 425 198.5 420 Q207 415 219 410 Q281 384 323 358 Q334 350 342.5 342.5 Q351 335 356 325 Q360 320 363.5 315 Q367 310 371 305 Q373 303 374.5 301 Q376 299 378 297 Q421 241 421 181 Q422 157 417.5 135 Q413 113 408 93 Q404 77 395 65 Q384 49 373 33.5 Q362 18 353 4 Q352 3 352 3 Q357 -6 362 -13.5 Q367 -21 374 -28 Q407 -62 419 -120 Q423 -139 422 -156.5 Q421 -174 419 -188 Q417 -201 414.5 -212.5 Q412 -224 408 -236 L408 -237 Q406 -243 403.5 -248 Q401 -253 399 -258 L398 -259 Q387 -282 369 -296 Q351 -310 334 -319 Q329 -322 323 -323.5 Q317 -325 311 -327 L296 -330 Q287 -331 276 -335 Q255 -341 230 -341 Z M220 274 Q220 273 219 273 Q218 272 217.5 272 Q217 272 215 270 Q212 267 206 259 Q203 255 200 251.5 Q197 248 193 244 Q184 235 177 224 Q170 213 164 201 L162 198 Q159 193 157.5 186.5 Q156 180 154 172 Q148 134 175 107 Q185 99 195 92.5 Q205 86 216 82 L217 82 Q222 80 226 78.5 Q230 77 234 75 Q236 74 239.5 72.5 Q243 71 245 71 Q246 71 248.5 73.5 Q251 76 253 78 L255 80 Q259 83 262 87.5 Q265 92 269 97 Q272 102 275.5 107.5 Q279 113 282 119 Q284 124 287 128 Q290 132 292 136 Q297 143 298 149 Q299 155 299 159 Q299 174 296 186 Q293 198 287 209 L278 227 L276 231 Q256 263 227 273 Q225 273 223 273.5 Q221 274 220 274 Z " />
<glyph glyph-name="dieresis" unicode="&#xa8;" horiz-adv-x="232" d="M175 711 Q166 711 158.5 714 Q151 717 144 721 Q141 723 139 725.5 Q137 728 135 730 Q123 746 124 765.5 Q125 785 138 800 Q142 804 146 807.5 Q150 811 155 815 Q165 823 176 823 Q178 823 179.5 822.5 Q181 822 183 822 L186 821 Q190 820 194 819.5 Q198 819 202 817 Q230 808 234 781 Q242 738 204 717 Q193 711 180 711 L178 711 L175 711 Z M48 715 L47 715 Q45 715 42.5 715.5 Q40 716 38 716 Q8 720 2 752 Q-4 779 14 806 Q18 812 23.5 815 Q29 818 34 820 Q40 822 46 823 Q52 824 57 824 Q82 824 100 801 Q114 784 109 764 Q105 738 91 726 Q83 721 73.5 718 Q64 715 50 715 L49 715 L48 715 Z " />
<glyph glyph-name="guillemotleft" unicode="&#xab;" horiz-adv-x="449" d="M340 203 Q331 203 324.5 205 Q318 207 312 211 Q286 228 259.5 249 Q233 270 212 297 Q209 301 206 304.5 Q203 308 200 311 Q194 319 187.5 327 Q181 335 176 344 Q173 349 170 356 Q167 363 169 371 Q171 383 175 389 Q183 403 197 412 L206 418 Q209 420 212.5 422.5 Q216 425 220 427 Q230 434 240 441.5 Q250 449 258 459 Q273 477 294 493 Q297 495 300 498 Q303 501 307 504 Q319 514 334 519 Q341 522 349 522 Q364 522 375 512 Q394 496 403 473 Q409 456 400 441 Q395 433 389 426.5 Q383 420 377 415 Q363 403 347.5 392.5 Q332 382 316 371 Q312 369 310 367 L301 361 Q302 359 306 355 Q311 350 317 345 Q323 340 328 335 Q338 326 348 317 Q358 308 367 299 Q378 290 387 276 Q392 268 392 256 Q392 236 382 222 Q374 208 358 205 Q354 204 350.5 204 Q347 204 345 204 L343 204 L342 204 Q341 203 340 203 Z M172 204 Q154 204 142 212 Q114 232 88 253 Q62 274 41 302 Q38 306 35.5 309.5 Q33 313 30 316 Q25 323 19.5 329.5 Q14 336 9 344 Q-8 372 12 396 Q22 408 33 414 Q37 416 40 418.5 Q43 421 46 423 Q48 424 49.5 425 Q51 426 53 427 Q64 434 73.5 442 Q83 450 91 459 Q106 477 127 493 Q135 499 140 504 Q152 514 167 519 Q174 522 182 522 Q197 522 208 512 Q227 498 236 473 Q242 456 233 440 Q228 432 222 426 Q216 420 210 415 Q196 403 180.5 392.5 Q165 382 149 371 Q148 370 144 368 Q142 366 139 364.5 Q136 363 134 361 L134 360 L135 359 Q140 354 146 349 Q152 344 157 339 L196 303 Q206 294 218 279 Q230 266 225 248 Q224 243 223 239.5 Q222 236 220 232 Q211 207 184 204 L180 204 L178 204 L172 204 Z " />
<glyph glyph-name="guillemotright" unicode="&#xbb;" horiz-adv-x="449" d="M224 203 Q209 203 196 213 Q188 221 182 229.5 Q176 238 171 249 Q162 269 174 286 Q185 301 194 308 L242 344 L244 345 Q255 353 264 358 Q270 362 272 364 Q268 368 264.5 371.5 Q261 375 257 378 L212 420 Q205 426 198.5 432 Q192 438 187 446 Q176 461 181 478 Q181 479 181.5 479.5 Q182 480 182 481 Q184 489 186 494 Q195 517 219 520 Q222 521 229 521 L235 521 L237 521 Q252 521 264 512 Q291 493 317.5 472 Q344 451 365 422 Q368 418 370.5 415 Q373 412 376 408 Q381 402 386 396 Q391 390 396 382 Q396 381 397 380 Q398 378 399 376.5 Q400 375 401 373 Q410 352 397 334 Q387 319 375 312 Q370 308 363 304 Q356 300 349 295 Q323 278 308 258 Q296 245 284 236 Q280 232 278 231 Q271 224 264 220 Q259 216 253.5 212 Q248 208 241 206 Q232 203 224 203 Z M57 203 Q42 203 29 214 Q12 229 4 250 Q-3 265 5 283 Q10 291 16 297.5 Q22 304 28 309 Q43 322 59 332.5 Q75 343 91 354 L94 356 Q97 358 99.5 360 Q102 362 105 364 L105 365 Q99 370 93 375.5 Q87 381 81 387 Q72 395 62.5 403.5 Q53 412 44 421 Q37 427 32 433 Q27 439 22 444 Q14 454 14 464 Q13 476 16.5 487.5 Q20 499 28 508 Q35 518 50 520 Q54 520 56.5 520.5 Q59 521 61 521 L66 521 Q83 521 96 513 Q122 495 149 474 Q176 453 197 424 Q199 420 202 417 Q205 414 208 410 Q219 397 228 384 Q228 383 228.5 382.5 Q229 382 229 381 Q231 379 233 375 Q244 351 229 333 Q221 320 207 311 Q198 307 190 300 Q188 299 187 298 Q186 297 184 296 Q174 290 164 282 Q154 274 146 264 Q138 254 129.5 246.5 Q121 239 112 232 L97 220 Q92 215 87 212 Q82 209 77 207 Q68 203 57 203 Z " />
<glyph glyph-name="logicalnot" unicode="&#xac;" horiz-adv-x="371" d="M267 248 L249 248 Q224 251 214 273 Q212 280 209 288 Q206 296 207 307 Q207 318 207 328.5 Q207 339 206 350 L206 359 L205 359 Q192 360 177 361 Q162 362 147 362 Q136 362 127 361.5 Q118 361 109 360 Q98 358 88 358 Q78 358 70 358 L54 358 L43 358 Q17 360 8 383 Q1 400 0 416.5 Q-1 433 2 450 Q4 461 13 468.5 Q22 476 32 477 Q37 478 40.5 478.5 Q44 479 49 479 Q64 482 79 482 Q88 482 93 481 Q95 481 97.5 480.5 Q100 480 102 480 L103 480 Q114 481 124 481 Q134 481 144 482 L159 482 L169 483 L169 482 L183 482 Q197 482 212 482.5 Q227 483 242 484 Q247 484 251 484.5 Q255 485 260 486 Q263 486 266 486.5 Q269 487 272 487 Q273 488 277 488 Q292 488 303.5 478.5 Q315 469 317 455 Q320 440 321.5 427 Q323 414 324 402 Q326 385 326.5 369 Q327 353 328 336 L328 316 Q330 305 328 296 Q327 273 307 257 Q302 254 296 251.5 Q290 249 285 249 Q280 248 276 248 Q272 248 267 248 Z " />
<glyph glyph-name="degree" unicode="&#xb0;" horiz-adv-x="318" d="M141 420 Q112 420 81 431 Q76 433 68 437 L56 443 Q44 447 36 454.5 Q28 462 23 470 Q21 473 17 481 Q15 482 13 486 Q-3 512 2 543 Q3 548 3.5 551.5 Q4 555 5 560 Q6 570 7 579.5 Q8 589 12 599 Q23 633 56 670 Q61 675 63 676 Q78 684 96 691 Q114 698 135 698 Q138 698 141.5 698 Q145 698 148 697 Q153 696 158.5 695.5 Q164 695 170 694 Q225 682 250 643 Q263 623 272.5 600.5 Q282 578 278 553 Q280 526 272 505 Q264 484 253 467 Q235 437 195 428 Q188 426 181 425 Q174 424 165 422 Q159 420 153 420 Q147 420 141 420 Z M139 614 L137 614 Q134 613 129 613 Q120 613 114 604 Q92 575 107 537 Q107 535 113 530 Q126 519 150 517 Q152 517 156 519 L159 519 Q160 520 160.5 520 Q161 520 162 522 Q167 530 169 540 Q171 550 173 559 Q177 580 164 602 Q159 609 153 611 Q145 613 142 613 Q141 614 139 614 Z " />
<glyph glyph-name="ring" unicode="&#x2da;" horiz-adv-x="199" d="M106 725 L98 725 Q78 727 61 732.5 Q44 738 27 747 Q4 759 -4 785 Q-19 834 5 874 Q29 914 81 923 Q86 924 89.5 924.5 Q93 925 98 925 Q124 925 147 911 Q175 895 186 864 Q188 856 190.5 847 Q193 838 194 827 L194 826 L192 816 L186 783 Q186 779 183 776 L182 774 Q174 763 165 752 Q156 741 143 734 Q126 725 106 725 Z M107 791 L109 791 Q114 791 118 794 L118 795 Q119 796 120 796 Q125 814 125 827 Q125 831 123 838 Q121 845 107 853 Q105 855 100 855 Q90 855 79 847 Q74 843 68.5 836 Q63 829 59 819 Q73 805 85.5 799 Q98 793 107 791 Z " />
<glyph glyph-name="hungarumlaut" unicode="&#x2dd;" horiz-adv-x="833" d="" />
<glyph glyph-name="tilde" unicode="&#x2dc;" horiz-adv-x="337" d="M51 706 Q45 706 35 710 Q34 711 33.5 711 Q33 711 32 712 Q26 714 23 717 Q-2 736 2 763 Q4 785 20 804 Q27 812 32 815 Q34 816 35.5 816.5 Q37 817 39 818 Q55 828 75 836 Q90 841 105 841 Q109 841 113 841 Q117 841 122 840 Q137 837 148 833 Q159 829 169 822 Q173 820 176 818 L182 815 Q186 813 191 813 Q202 813 209 820 Q209 821 210 822 Q211 823 211 823.5 Q211 824 212 825 Q213 826 213 826 Q215 828 216 829.5 Q217 831 219 833 Q230 843 245 843 Q253 843 259.5 841 Q266 839 273 836 Q299 825 297 796 Q296 785 294 776.5 Q292 768 289 760 Q268 707 209 707 L204 707 L203 707 Q199 708 196 708.5 Q193 709 188 709 Q177 711 163.5 713.5 Q150 716 137 724 Q131 727 122 730 Q118 732 116 732 Q113 734 106 734 Q98 734 90 729 Q86 727 79 720 L75 716 Q62 706 51 706 Z " />
<glyph glyph-name="asciitilde" unicode="&#x7e;" horiz-adv-x="294" d="M51 286 Q45 286 35 290 Q34 291 33.5 291 Q33 291 32 292 Q26 294 23 297 Q-2 316 2 343 Q4 365 20 384 Q27 392 32 395 Q34 396 35.5 396.5 Q37 397 39 398 Q55 408 75 416 Q90 421 105 421 Q109 421 113 421 Q117 421 122 420 Q137 417 148 413 Q159 409 169 402 Q173 400 176 398 L182 395 Q186 393 191 393 Q202 393 209 400 Q209 401 210 402 Q211 403 211 403.5 Q211 404 212 405 Q213 406 213 406 Q215 408 216 409.5 Q217 411 219 413 Q230 423 245 423 Q253 423 259.5 421 Q266 419 273 416 Q299 405 297 376 Q296 365 294 356.5 Q292 348 289 340 Q268 287 209 287 L204 287 L203 287 Q199 288 196 288.5 Q193 289 188 289 Q177 291 163.5 293.5 Q150 296 137 304 Q131 307 122 310 Q118 312 116 312 Q113 314 106 314 Q98 314 90 309 Q86 307 79 300 L75 296 Q62 286 51 286 Z " />
<glyph glyph-name="onesuperior" unicode="&#xb9;" horiz-adv-x="173" d="M71 342 Q63 342 57.5 348 Q52 354 51 361 L51 362 Q50 364 50 368 Q50 386 49.5 404 Q49 422 49 440 Q48 469 47.5 499.5 Q47 530 47 560 Q48 565 48 576 L48 603 L48 605 Q38 605 34 606 Q20 606 11 619 Q-2 637 2 662 Q3 666 5.5 670 Q8 674 11 677 Q29 694 56 705 Q67 709 82 709 Q91 709 108 706 Q114 705 120 699 Q131 688 134 675 Q136 661 137.5 647.5 Q139 634 138 621 Q138 589 137.5 556.5 Q137 524 137 492 L137 454 Q137 446 136.5 439 Q136 432 136 424 L136 377 Q136 373 135.5 370 Q135 367 135 363 L135 361 Q134 355 129 349.5 Q124 344 117 344 Q105 343 93.5 342.5 Q82 342 71 342 Z " />
<glyph glyph-name="twosuperior" unicode="&#xb2;" horiz-adv-x="284" d="M212 339 Q195 339 180 339.5 Q165 340 152 340 L136 340 L133 340 Q100 343 77 343 Q69 343 61.5 343 Q54 343 47 341 L42 341 Q39 341 36.5 341.5 Q34 342 31 342 Q19 344 11 353 Q3 362 2 374 Q1 376 1 381 Q1 396 2 405 Q3 414 6 420.5 Q9 427 15 432.5 Q21 438 31 445 L32 446 Q35 449 38 451 Q41 453 44 455 Q46 457 49 459 Q52 461 54 463 Q106 502 128 543 Q133 554 136.5 563.5 Q140 573 142 584 Q144 594 142 597.5 Q140 601 138 603 Q131 608 125 608 Q120 608 114 605 Q108 603 106 601 Q104 600 103.5 599.5 Q103 599 101 598 Q101 598 97 596 Q91 592 87 590 Q79 587 70 587 Q54 587 44 599 L40 603 Q40 603 38 605 Q31 614 29 625 L29 638 Q29 654 39 667 Q67 700 110 704 Q114 705 124 705 Q160 705 193 684 Q219 666 228 638 Q250 581 227 526 Q208 479 175 449 Q171 445 168 441.5 Q165 438 161 434 Q166 434 171 434 Q176 434 181 433 L202 433 Q207 433 212.5 433 Q218 433 225 432 Q233 431 239.5 424.5 Q246 418 246 410 L246 406 Q246 397 246 387.5 Q246 378 245 369 Q243 355 234.5 347 Q226 339 212 339 Z " />
<glyph glyph-name="threesuperior" unicode="&#xb3;" horiz-adv-x="251" d="M119 333 L110 333 L102 333 Q96 333 89 333 Q82 333 75 334 Q44 335 16 356 Q-1 368 1 389 Q3 403 14.5 415 Q26 427 43 427 L51 427 Q59 425 67.5 422.5 Q76 420 84 418 Q94 416 99 416 L105 416 Q118 418 121 429 Q123 439 123 443 Q124 454 117.5 461.5 Q111 469 100 471 Q95 473 89 473 Q83 473 77 474 Q74 474 70.5 474 Q67 474 64 475 Q50 477 41 488 Q31 502 36 522 Q41 541 54 549 Q62 554 71 554 Q74 554 77 553.5 Q80 553 83 553 Q85 552 90 552 L95 552 L102 552 Q124 558 125 578 Q126 588 125.5 595.5 Q125 603 123 611 Q119 618 114 618 Q112 619 108 619 Q95 619 83 613 Q82 612 81.5 612 Q81 612 80 611 Q75 609 71 607 Q67 605 62 603 Q58 601 50 601 Q37 601 27 610 Q26 610 26 610.5 Q26 611 25 611 Q25 612 24 612 Q0 635 18 664 Q35 691 68 699 Q87 703 107 703 Q114 703 120.5 703 Q127 703 133 701 Q184 694 204 643 Q210 628 211.5 613 Q213 598 214 583 L215 579 Q215 576 214.5 573.5 Q214 571 214 568 Q212 557 208 543.5 Q204 530 194 518 Q192 516 192 514 Q194 508 195 506 Q197 499 200 492.5 Q203 486 205 479 Q216 446 210 407 Q201 354 152 339 Q145 337 137 335 Q129 333 120 333 L119 333 Z " />
<glyph glyph-name="threequarters" unicode="&#xbe;" horiz-adv-x="604" d="M207 340 Q199 340 192 340 Q185 340 179 341 Q169 343 161.5 351 Q154 359 152 369 Q152 374 151.5 378 Q151 382 151 386 Q151 395 150 400 Q150 410 147 419 L145 420 L130 420 L107 420 Q91 420 75.5 420 Q60 420 44 419 L41 419 Q21 419 10 430 Q1 441 2 461 L2 465 Q-1 494 21 517 Q41 540 60.5 562 Q80 584 98 605 Q103 612 108.5 618.5 Q114 625 119 631 Q123 636 126.5 641 Q130 646 134 651 L137 653 Q144 661 150.5 669.5 Q157 678 165 686 Q177 698 193 698 Q212 698 224 684 Q230 678 232 669 Q236 645 235 620 Q235 599 234.5 577 Q234 555 234 534 L234 522 L234 508 L234 506 Q238 503 242 502 Q262 493 262 471 Q262 470 262.5 469 Q263 468 263 466 L263 456 Q263 433 245 421 Q243 420 241 419 Q239 418 237 417 L237 408 Q236 405 236.5 402.5 Q237 400 237 397 Q237 392 237 387 Q237 382 236 377 Q236 366 231 356 Q225 340 208 340 L207 340 Z M125 503 L144 503 L145 503 Q148 516 148 531 Q143 523 136.5 516 Q130 509 125 503 Z " />
<glyph glyph-name="acute" unicode="&#xb4;" horiz-adv-x="212" d="M60 711 Q52 711 48 713 Q40 714 26 721 Q8 731 1 746 Q-7 762 0 782 Q5 797 12 804 Q28 821 44.5 840 Q61 859 81 879 Q92 892 109 892 Q114 892 122 889 Q132 887 142 882 Q152 877 161 867 Q173 855 173 838 Q173 819 161 804 Q155 796 149 789 Q143 782 137 775 Q130 767 123.5 758.5 Q117 750 109 742 Q104 737 97.5 730 Q91 723 82 718 Q72 711 60 711 Z " />
<glyph glyph-name="circumflex" unicode="&#x2c6;" horiz-adv-x="255" d="M59 723 Q50 723 43 726 Q37 730 34 731 Q31 733 27 735 Q2 747 0 782 Q0 794 7 804 Q11 811 16 817 Q21 823 26 828 Q34 836 43 843.5 Q52 851 63 861 Q66 863 69 865 Q72 867 74 869 Q80 874 85.5 878 Q91 882 96 887 Q112 903 135 903 Q138 903 141 902.5 Q144 902 147 902 Q169 899 185 884 Q196 873 204.5 864 Q213 855 219 844 L220 842 Q225 834 229.5 827 Q234 820 240 814 Q253 801 251 778 Q248 752 233 743 Q233 742 232 742 Q232 741 231 741 Q213 726 192 726 Q174 726 155 740 Q151 743 148 745.5 Q145 748 142 750 Q139 755 135 756 Q132 759 129 761.5 Q126 764 122 767 Q122 768 121 768 Q121 766 119 766 Q114 761 110.5 757 Q107 753 102 749 L100 747 Q90 737 80 730 Q70 723 59 723 Z " />
<glyph glyph-name="paragraph" unicode="&#xb6;" horiz-adv-x="486" d="M347 -45 Q336 -45 327.5 -38 Q319 -31 317 -20 Q315 -14 315 -9 L315 -5 Q314 15 314 36 Q314 57 313 77 L313 121 Q314 153 314.5 185 Q315 217 316 249 L317 285 Q317 293 317 301 Q317 309 318 317 Q318 334 318.5 351.5 Q319 369 319 386 Q319 446 316 506 Q315 531 314 556 Q313 581 312 606 Q311 614 311 622.5 Q311 631 310 639 L310 643 Q307 643 304 643.5 Q301 644 297 644 Q292 644 288 643.5 Q284 643 280 643 L280 640 Q280 635 280 635 Q280 627 280 620.5 Q280 614 281 606 Q281 592 281.5 578.5 Q282 565 282 551 Q283 533 282.5 514 Q282 495 282 477 L282 443 L282 430 L282 354 Q282 352 282.5 350 Q283 348 283 346 L283 331 Q281 316 281.5 300 Q282 284 282 269 L282 233 Q282 228 281.5 223 Q281 218 281 213 Q281 207 280.5 200.5 Q280 194 280 187 L280 175 Q280 150 280.5 125 Q281 100 285 75 Q287 60 287 45 Q287 30 286 16 L286 11 Q286 5 283 -4 Q278 -20 264 -26 Q235 -39 197 -45 L193 -45 Q182 -45 173.5 -38 Q165 -31 163 -20 Q162 -16 162 -9 Q160 45 159.5 88.5 Q159 132 161 171 Q162 182 162 193 Q162 204 162 215 Q162 227 162 239 Q162 251 163 264 L163 292 Q164 306 164 321 Q164 336 166 350 Q168 368 166 388 L166 396 Q166 404 165.5 413.5 Q165 423 164 431 L164 445 L164 446 Q164 447 163.5 447 Q163 447 163 448 L163 449 L161 449 Q147 451 133 452.5 Q119 454 105 457 Q75 465 56 477 Q26 497 15 526 Q-7 586 5 644 L6 647 Q8 658 11 669 Q14 680 22 691 Q35 711 60 730 Q76 743 92 743 Q100 743 108 744.5 Q116 746 125 748 Q130 749 135 750 Q140 751 145 752 Q153 753 162 754 Q171 755 182 755 L183 755 L208 755 L229 755 Q235 755 241.5 755.5 Q248 756 254 757 L263 757 L264 758 L269 758 Q274 758 277.5 758.5 Q281 759 285 759 L322 759 Q355 759 382 756 Q394 755 406 748 Q426 736 428 713 Q429 708 429 704 Q429 700 430 696 Q431 686 431.5 676.5 Q432 667 432 657 Q433 645 433 633 Q433 621 434 609 Q436 574 437 537.5 Q438 501 437 465 Q436 449 436 434 Q436 419 436 403 Q435 398 435 394 Q435 390 435 386 L436 386 L436 337 Q436 308 436 279 Q436 250 435 221 L435 217 Q436 209 435 202 Q432 172 433.5 143 Q435 114 437 87 Q437 84 437.5 81.5 Q438 79 438 76 Q439 64 440 52 Q441 40 440 27 Q440 21 439.5 14.5 Q439 8 438 1 Q433 -19 415 -27 Q398 -35 382 -39 Q366 -43 350 -45 L347 -45 Z " />
<glyph glyph-name="grave" unicode="&#x60;" horiz-adv-x="180" d="M113 716 Q110 716 107.5 716.5 Q105 717 102 717 Q73 725 62 746 Q54 757 46.5 768 Q39 779 31 790 Q26 797 21 804 Q16 811 11 818 Q9 820 7 824 Q-3 842 5 860 Q14 882 38 893 Q42 895 46 896 Q50 897 55 899 Q57 900 58.5 900 Q60 900 62 901 L65 902 L67 901 Q69 901 70 900.5 Q71 900 73 900 Q75 899 78 898.5 Q81 898 84 896 Q103 888 118 873 Q140 846 166 816 Q170 811 172 806.5 Q174 802 176 797 Q188 767 165 744 L162 741 Q154 734 147 728 Q140 722 129 719 Q120 716 113 716 Z " />
<glyph glyph-name="germandbls" unicode="&#xdf;" horiz-adv-x="491" d="M53 6 Q45 6 41 7 Q33 7 26.5 13.5 Q20 20 20 28 Q20 30 19.5 33 Q19 36 19 38 Q18 54 18.5 70.5 Q19 87 21 104 L21 107 Q22 112 22.5 117 Q23 122 23 127 L23 213 Q23 223 22 228 L22 234 Q22 242 21 245 Q21 251 20.5 257 Q20 263 20 269 Q20 290 19 313.5 Q18 337 15 367 Q14 378 13.5 389.5 Q13 401 12 416 L12 445 Q12 456 11.5 468.5 Q11 481 10 493 Q9 502 8.5 510.5 Q8 519 8 527 Q7 543 6 559 Q5 575 2 590 Q0 599 0.5 608 Q1 617 1 626 Q2 634 2.5 642 Q3 650 5 658 L5 664 Q7 675 14.5 683 Q22 691 31 692 Q60 695 84 697 Q108 699 132 699 L153 699 L169 699 L187 699 L209 699 Q220 698 232 697 Q244 696 256 694 Q260 693 264.5 693 Q269 693 273 692 Q278 692 284 689 Q289 685 294.5 682.5 Q300 680 306 678 Q311 676 316.5 673.5 Q322 671 328 668 Q343 658 356 644 Q357 642 358 641.5 Q359 641 360 639 Q363 635 369 629 Q382 617 389.5 603 Q397 589 402 575 Q425 514 413 442 Q411 431 408 421 Q405 411 403 400 Q401 396 401 393 Q398 384 393.5 374.5 Q389 365 378 357 Q377 356 375 350 Q375 348 376 346 Q393 335 403.5 320.5 Q414 306 424 290 Q427 283 432 277 Q448 252 443 222 Q442 217 441.5 212.5 Q441 208 442 204 Q444 193 444 183 Q444 173 444 162 L444 144 Q445 130 442 117 Q439 104 435 93 Q416 33 350 24 Q336 22 323 21.5 Q310 21 297 19 Q293 19 289.5 18.5 Q286 18 282 18 Q273 17 263.5 16.5 Q254 16 244 16 L243 16 Q237 16 229 18 Q224 20 221 23.5 Q218 27 217 29 Q214 35 214 43 Q215 53 215.5 61.5 Q216 70 217 78 Q222 105 248 112 Q256 113 267 117 Q270 117 272 118 Q289 122 306 133 Q323 143 325 166 Q330 207 310 240 Q308 244 306 247 L304 250 Q296 261 291.5 267 Q287 273 282 276.5 Q277 280 270.5 282.5 Q264 285 252 289 Q232 295 217 311 Q201 327 204 351 Q206 373 224 386 Q230 390 236.5 393.5 Q243 397 251 399 Q290 414 296 462 Q300 494 285 536 Q283 540 281 542 Q278 544 275 547 Q272 550 269 553 Q263 558 257.5 562.5 Q252 567 247 571 Q220 587 194 587 L184 587 Q173 587 160 586 Q147 585 133 582 L133 578 Q133 574 133.5 570.5 Q134 567 134 563 Q137 550 138 536.5 Q139 523 139 509 Q139 492 138.5 475.5 Q138 459 138 442 Q138 421 138 400 Q138 379 137 358 Q137 331 140 310 Q143 296 143 283 Q144 281 144 276 Q145 271 145 261 Q146 256 146 250 Q146 244 147 239 Q149 223 149.5 207 Q150 191 149 176 Q147 158 147.5 140 Q148 122 148 105 L148 102 L148 69 L148 53 Q148 37 144 25 Q142 20 138 17.5 Q134 15 132 14 Q128 12 125 12 L121 12 Q108 12 96 11 Q84 10 70 8 Q67 7 62 7 Q59 6 53 6 Z " />
<glyph glyph-name="Thorn" unicode="&#xde;" horiz-adv-x="506" d="M73 -8 Q64 -8 55 -8 Q46 -8 37 -6 Q29 -4 23.5 2 Q18 8 17 16 Q16 21 16 24.5 Q16 28 16 32 L16 54 L16 81 L16 85 Q16 91 16 96.5 Q16 102 15 107 Q13 119 12.5 130 Q12 141 12 152 L12 155 Q11 167 11 178.5 Q11 190 11 201 Q11 228 11 255 Q11 282 9 309 L6 405 Q5 431 4.5 458.5 Q4 486 2 513 Q0 539 0 565.5 Q0 592 0 618 L0 661 Q0 669 3 677 Q4 684 13 689 Q20 692 27 692 L32 692 Q45 693 58.5 693 Q72 693 86 693 Q98 693 105.5 686 Q113 679 113 667 Q114 660 114 654 Q114 648 114 642 L114 635 L114 625 Q113 621 113 617.5 Q113 614 113 611 Q114 606 114 602 Q114 598 116 595 L117 595 Q120 594 127 594 Q163 593 199 590 Q235 587 267 584 Q284 582 300 578 Q316 574 332 570 Q337 568 342 567 Q347 566 352 564 Q362 561 369 555 Q421 517 444 468 Q459 438 459 408 L459 398 L459 380 Q459 364 454 346 Q452 342 451.5 338 Q451 334 450 329 Q449 327 449 323 Q436 267 399 233 Q393 227 387.5 221 Q382 215 376 209 L374 207 Q349 180 316 173 Q286 165 253.5 159.5 Q221 154 187 153 Q176 153 166.5 152.5 Q157 152 147 151 Q143 151 139.5 150.5 Q136 150 132 150 L132 149 L132 138 L132 128 Q131 101 131 74 Q131 47 130 20 L130 19 Q130 17 130 13.5 Q130 10 128 7 Q127 5 124 0.5 Q121 -4 114 -5 Q93 -8 73 -8 Z M119 480 Q119 478 119 472 Q119 466 120 462 Q122 438 123 412 Q124 386 124 356 L124 334 L124 279 Q124 271 125 264 Q126 257 129 249 Q130 248 130 248 Q133 248 136 247.5 Q139 247 142 247 L144 247 Q160 249 175 250 Q190 251 204 253 Q228 256 250.5 261.5 Q273 267 293 273 Q298 274 306 280 Q331 298 340 323 Q358 372 346 417 Q341 437 325.5 455 Q310 473 281 476 Q273 476 268 477 Q261 477 257 478 Q241 480 224.5 480 Q208 480 189 480 L176 480 L162 480 L137 480 L131 480 L119 480 Z " />
<glyph glyph-name="slash" unicode="&#x2f;" horiz-adv-x="514" d="M73 -22 Q66 -22 57 -19 Q55 -17 53 -17 Q43 -12 36 -11 Q18 -8 8 12 Q6 18 5 20 Q3 24 3 24 Q-3 37 4 53 Q5 54 7 58 Q10 64 13 71 Q16 78 21 84 Q34 103 46.5 125 Q59 147 74 173 Q75 176 76.5 179 Q78 182 80 185 Q104 222 126.5 260.5 Q149 299 170 337 Q177 349 183 360 L195 381 Q204 396 213 411.5 Q222 427 231 443 Q236 450 239 457.5 Q242 465 246 473 Q248 478 250.5 482.5 Q253 487 255 492 Q260 503 266 513 Q272 523 277 534 Q280 541 283.5 547 Q287 553 290 560 Q292 564 294 567.5 Q296 571 298 574 Q303 584 307.5 593 Q312 602 317 612 Q322 622 327.5 631 Q333 640 338 648 Q340 650 341 653 Q342 656 344 658 Q352 671 363.5 679 Q375 687 386 693 Q396 697 403 697 L406 697 Q430 696 449 683 Q468 671 468 647 Q467 627 459 612 Q455 604 451.5 597 Q448 590 444 583 Q438 570 431.5 557.5 Q425 545 419 533 L414 525 Q397 492 379 458 Q361 424 341 392 Q335 381 329 369.5 Q323 358 318 347 L312 335 Q300 311 287.5 287 Q275 263 262 240 Q257 232 253 223.5 Q249 215 244 206 Q229 178 211.5 152 Q194 126 177 100 L174 97 Q172 94 170 91 Q168 88 166 85 Q158 74 151 64 Q144 54 136 43 Q132 38 129 32 Q126 26 122 19 L119 13 Q111 -2 99 -12 Q88 -22 73 -22 Z " />
<glyph glyph-name="backslash" unicode="&#x5c;" horiz-adv-x="514" d="M395 -22 Q380 -22 369 -12 Q357 -2 349 13 L346 19 Q342 26 339 32 Q336 38 332 43 Q324 54 317 64 Q310 74 302 85 Q300 88 298 91 Q296 94 294 97 L291 100 Q274 126 256.5 152 Q239 178 224 206 Q219 215 215 223.5 Q211 232 206 240 Q193 263 180.5 287 Q168 311 156 335 L150 347 Q145 358 139 369.5 Q133 381 127 392 Q107 424 89 458 Q71 492 54 525 L49 533 Q43 545 36.5 557.5 Q30 570 24 583 Q20 590 16.5 597 Q13 604 9 612 Q1 627 0 647 Q0 671 19 683 Q38 696 62 697 L65 697 Q72 697 82 693 Q93 687 104.5 679 Q116 671 124 658 Q126 656 127 653 Q128 650 130 648 Q135 640 140.5 631 Q146 622 151 612 Q156 602 160.5 593 Q165 584 170 574 Q172 571 174 567.5 Q176 564 178 560 Q181 553 184.5 547 Q188 541 191 534 Q196 523 202 513 Q208 503 213 492 Q215 487 217.5 482.5 Q220 478 222 473 Q226 465 229 457.5 Q232 450 237 443 Q246 427 255 411.5 Q264 396 273 381 L285 360 Q290 349 298 337 Q319 299 341.5 260.5 Q364 222 388 185 Q390 182 391.5 179 Q393 176 394 173 Q409 147 421.5 125 Q434 103 447 84 Q452 78 455 71 Q458 64 461 58 Q463 54 464 53 Q471 37 465 24 Q465 24 463 20 Q462 18 460 12 Q450 -8 432 -11 Q424 -12 415 -17 Q413 -17 411 -19 Q402 -22 395 -22 Z " />
<glyph glyph-name="AE" unicode="&#xc6;" horiz-adv-x="825" d="M502 0 Q481 0 462.5 1 Q444 2 427 4 Q422 5 416 5.5 Q410 6 404 6 Q401 6 397.5 6 Q394 6 391 7 Q387 7 383 7 Q379 7 375 8 L370 8 Q350 9 341 32 Q339 40 339 47 Q338 61 338.5 75.5 Q339 90 341 104 Q346 139 341 169 Q340 174 340 179.5 Q340 185 340 190 Q340 197 339 201 L339 202 L336 202 Q331 203 327 203.5 Q323 204 318 204 Q303 204 287 204.5 Q271 205 254 205 L247 205 L232 205 L216 205 L201 205 L192 205 Q189 205 187.5 205.5 Q186 206 184 206 Q182 206 182 205.5 Q182 205 181 205 L180 205 Q178 203 175 195 L170 185 Q160 164 150.5 142.5 Q141 121 133 98 Q122 67 111 42 Q100 19 92 10.5 Q84 2 65 2 L51 2 Q49 2 46.5 2.5 Q44 3 42 3 Q34 3 27 6 L25 6 Q14 11 6.5 15 Q-1 19 -4 27 Q-8 40 3 62 Q17 91 28.5 121 Q40 151 51 180 Q53 184 54 187.5 Q55 191 56 196 Q63 214 70.5 232 Q78 250 86 267 Q87 271 91 279 Q102 304 113.5 331.5 Q125 359 138 386 Q154 420 168 454 Q182 488 194 520 Q209 558 226.5 595 Q244 632 261 668 L262 669 Q265 677 269 683 Q273 689 278 696 Q280 700 286 708 L289 713 L294 713 Q307 713 319 714 Q331 715 343 716 Q373 719 402 719 L411 719 L413 719 Q416 719 419 719.5 Q422 720 426 720 Q428 721 432 721 Q435 721 438 721.5 Q441 722 444 722 Q449 723 454.5 723.5 Q460 724 466 725 Q477 726 489.5 726 Q502 726 517 726 L561 726 Q570 725 579.5 725 Q589 725 599 725 Q604 725 609.5 725 Q615 725 620 723 Q631 720 641.5 719.5 Q652 719 662 719 L679 719 L697 719 L702 719 L707 719 L720 719 Q731 718 738.5 710 Q746 702 747 691 Q748 675 748.5 659.5 Q749 644 749 630 Q750 622 744.5 616 Q739 610 733 608 L731 608 Q730 607 725 607 Q719 606 712.5 605.5 Q706 605 700 604 Q686 602 671.5 601 Q657 600 643 600 L641 600 L619 600 L518 600 Q508 599 498 599 Q488 599 478 599 Q470 599 465 598 L464 598 L464 597 L464 596 Q464 594 463.5 593 Q463 592 463 590 Q463 549 463 503.5 Q463 458 464 411 Q464 403 465 398 Q468 399 471.5 399 Q475 399 479 400 Q482 400 485.5 400 Q489 400 492 401 Q498 401 501 402 Q506 403 509.5 403 Q513 403 518 403 L525 403 Q531 402 537.5 401.5 Q544 401 552 401 Q559 401 566 401.5 Q573 402 581 402 Q589 403 596 403 Q603 403 611 403 L623 403 Q630 403 637 402.5 Q644 402 652 401 Q661 399 667.5 392.5 Q674 386 674 377 L674 333 Q674 317 657 310 Q652 308 647 306 Q642 304 636 304 Q633 304 629.5 304 Q626 304 623 303 Q614 303 605 302.5 Q596 302 587 302 L574 302 Q564 303 555 303 Q546 303 538 303 Q519 303 502.5 302 Q486 301 471 299 Q469 298 467.5 298 Q466 298 464 297 L464 280 Q465 263 466 244 Q467 225 469 206 Q472 170 472 131 Q472 127 472 123.5 Q472 120 473 115 L473 114 L474 114 L488 114 Q492 114 496 113.5 Q500 113 505 113 Q513 113 523.5 114 Q534 115 545 117 Q550 119 563 119 L580 119 Q588 120 596 120 Q604 120 612 120 Q630 120 644 119.5 Q658 119 671 118 Q676 117 681 117 Q686 117 691 117 L706 117 L720 117 Q723 117 725 118 L732 118 L733 118 Q745 118 753 110 Q761 102 761 91 L761 81 Q761 70 761 60 Q761 50 760 39 Q759 26 751 17.5 Q743 9 729 7 Q725 7 720 6.5 Q715 6 710 6 L709 6 Q690 6 671 5.5 Q652 5 633 4 Q622 3 612.5 3 Q603 3 593 2 Q586 2 580 2 Q574 2 568 1 Q551 1 535 0.5 Q519 0 502 0 Z M226 321 L227 321 L228 321 Q246 324 269 324 Q277 324 283.5 324 Q290 324 298 323 L323 323 L331 323 Q337 323 340 324 L340 327 Q340 331 340.5 334.5 Q341 338 341 342 L341 405 L341 428 L341 438 L342 438 L342 454 L342 515 Q343 527 342 538.5 Q341 550 339 562 Q338 565 338 568.5 Q338 572 337 575 Q337 578 336 581.5 Q335 585 334 588 Q333 590 333 590.5 Q333 591 332 593 L331 593 Q323 592 320 584 Q310 559 301 533.5 Q292 508 284 482 L283 480 Q283 478 282 476 Q282 475 281.5 474 Q281 473 281 471 L275 453 Q270 440 266 428 Q262 416 257 404 Q255 398 253 392 Q251 386 249 380 Q244 366 239 352.5 Q234 339 227 325 Q227 324 226.5 323 Q226 322 226 321 Z " />
<glyph glyph-name="OE" unicode="&#x152;" horiz-adv-x="1052" d="M347 -6 Q318 -6 290 -1.5 Q262 3 235 9 Q222 11 212 18 Q205 23 198 26 Q191 29 183 33 Q179 35 175 37.5 Q171 40 166 42 Q147 53 128.5 66 Q110 79 87 99 Q53 130 37 171 Q26 197 20 219 Q14 241 12 262 Q11 262 11 264 L11 266 Q4 288 3 310 Q2 332 2 352 Q2 357 2 361.5 Q2 366 1 372 Q0 386 0 400 Q0 414 2 430 L3 435 Q5 452 6.5 468 Q8 484 12 501 Q18 529 30 550 Q32 555 35 559 Q38 563 40 568 Q43 573 46 578 Q49 583 51 588 Q62 605 76 618 Q90 631 104 640 Q108 643 111.5 646 Q115 649 119 651 L137 663 Q178 692 222 706 Q225 708 228.5 708.5 Q232 709 235 711 Q247 717 260 720 Q271 722 283 724 Q295 726 308 726 L311 726 L317 726 L323 726 Q333 726 337 725 Q365 724 391 717 Q417 710 441 702 Q446 700 452 696 Q463 688 475.5 682 Q488 676 502 671 Q505 669 508 668.5 Q511 668 513 667 Q522 663 529 659 Q536 655 542 650 Q546 647 549.5 644 Q553 641 557 639 Q562 636 566 632.5 Q570 629 575 626 L575 647 Q575 651 575 654.5 Q575 658 574 663 L574 684 Q574 698 587 710 Q593 718 603 718 Q604 719 607 719 L611 719 Q636 719 660 722 Q665 722 668.5 722.5 Q672 723 677 723 Q690 725 706.5 726 Q723 727 740 727 Q748 727 755.5 726.5 Q763 726 771 725 L783 725 L793 725 L801 725 L806 725 Q817 725 831 724.5 Q845 724 859 721 Q864 719 869 719 Q874 719 881 719 L882 719 L906 719 Q911 720 916.5 720 Q922 720 927 720 L928 720 Q933 720 937.5 719.5 Q942 719 947 718 Q956 717 962.5 710 Q969 703 970 695 Q973 663 973 636 Q973 623 962 615 Q955 609 945 606 Q939 604 933 603.5 Q927 603 922 602 Q900 602 878 601.5 Q856 601 833 600 Q824 600 815 600 Q806 600 797 599 L751 599 L702 599 Q692 599 688 598 L687 598 L687 597 L687 596 Q687 542 687 497 Q687 452 688 411 L688 398 Q691 398 692 399 Q697 399 701.5 399 Q706 399 711 400 Q719 401 728.5 402 Q738 403 749 403 Q756 403 762.5 402.5 Q769 402 775 401 L781 401 L791 401 Q793 401 794 401.5 Q795 402 797 402 Q805 402 813.5 402.5 Q822 403 830 403 Q839 404 849 404.5 Q859 405 868 405 L870 405 Q876 405 880 404 Q893 401 896 389 L896 388 Q898 384 898 380 L898 324 Q898 317 892 311 Q886 305 878 305 L872 304 Q856 304 840 303.5 Q824 303 807 302 L763 302 L727 302 Q723 302 719.5 301.5 Q716 301 712 301 Q710 300 706 300 Q701 299 695 298.5 Q689 298 687 297 Q687 295 687 290.5 Q687 286 688 281 L688 276 Q690 266 690 256.5 Q690 247 691 237 Q692 233 692 229 Q692 225 692 221 L692 219 L692 218 Q695 192 696 167 Q697 142 697 118 L697 116 Q697 115 697.5 115 Q698 115 698 114 L702 114 Q709 114 715.5 113.5 Q722 113 728 113 Q748 113 765 116 Q782 120 808 120 Q816 120 825 119.5 Q834 119 844 118 Q847 118 849 117 L855 117 Q871 117 886 117 Q901 117 916 118 L926 118 L937 118 L955 118 L957 118 Q968 118 975.5 111.5 Q983 105 985 95 Q986 82 986.5 66 Q987 50 984 33 Q979 13 960 9 Q955 7 949.5 7 Q944 7 939 6 L906 6 Q892 5 877 5 Q862 5 847 4 Q829 3 810 2.5 Q791 2 770 1 Q756 1 745.5 0.5 Q735 0 725 0 Q713 0 702 0.5 Q691 1 680 2 L676 2 Q670 2 664 2.5 Q658 3 652 3 Q647 3 642 2.5 Q637 2 632 1 L625 1 L618 1 Q608 2 599.5 8.5 Q591 15 588 25 Q583 45 581 70 Q576 65 570 61.5 Q564 58 558 53 Q553 50 548.5 47 Q544 44 539 40 Q523 28 504 21 Q478 11 447 2.5 Q416 -6 381 -6 L375 -6 L368 -6 L357 -6 L347 -6 Z M123 323 Q123 314 123.5 305 Q124 296 123 286 Q122 249 150 210 Q161 195 174 182.5 Q187 170 203 160 Q217 151 234 141 Q251 131 269 123 L270 123 Q272 121 274 120.5 Q276 120 278 119 Q289 117 299 116 Q309 115 319 113 Q322 112 324.5 112 Q327 112 330 111 Q333 111 336.5 110.5 Q340 110 344 110 Q347 110 350.5 110.5 Q354 111 357 111 L359 111 Q375 112 390 115 Q405 118 421 122 L423 123 Q437 126 448.5 130.5 Q460 135 471 140 Q489 147 503 165 Q504 167 508 171 Q517 183 524.5 194.5 Q532 206 537 219 Q539 222 539.5 225 Q540 228 542 230 Q544 232 544 234 Q551 249 556 264 Q561 279 563 294 Q572 340 566 401 Q564 413 562.5 424 Q561 435 559 443 Q554 462 546 479 Q538 496 530 511 Q522 524 510 530 Q505 532 500.5 535.5 Q496 539 491 542 Q487 544 486 546 Q469 557 448 568 Q427 579 403 584 L392 586 Q375 589 357 592.5 Q339 596 321 599 Q318 599 314.5 599.5 Q311 600 308 600 Q304 600 302 599 Q263 596 227 582 Q211 574 201 564 Q186 547 173 527.5 Q160 508 147 484 Q143 478 142 475 Q137 459 131.5 442 Q126 425 123 408 Q122 403 122 398.5 Q122 394 122 389 Q122 380 122.5 371 Q123 362 123 354 Q124 349 124 340 L125 330 L123 330 L123 323 Z " />
<glyph glyph-name="cedilla" unicode="&#xb8;" horiz-adv-x="306" d="M121 -198 Q96 -198 76.5 -193.5 Q57 -189 40 -181 Q35 -179 27 -173 L26 -173 Q1 -158 0 -129 Q0 -112 8 -100 Q20 -81 43 -68 Q52 -62 62 -62 Q71 -62 79 -67 Q80 -67 80.5 -67.5 Q81 -68 82 -68 Q90 -72 93 -74 Q102 -80 111 -80 Q114 -80 117 -79.5 Q120 -79 124 -78 Q130 -76 132 -74 Q138 -71 139 -64 Q142 -34 126 -17 Q113 -1 113 25 Q115 40 124 48 Q150 71 185 76 L191 76 Q212 76 229 58 Q234 53 237 46 Q252 17 259 -9.5 Q266 -36 267 -62 Q267 -89 261 -113 Q254 -144 224 -166 Q190 -190 145 -196 Q139 -197 134 -197 Q129 -197 126 -197 Q124 -198 124 -198 L121 -198 Z " />
<glyph glyph-name="Ccedilla" unicode="&#xc7;" horiz-adv-x="602" d="M289 -198 Q282 -198 275 -197.5 Q268 -197 261 -196 Q219 -190 191 -168 Q175 -156 172 -136 Q169 -116 180 -99 Q187 -88 195.5 -81 Q204 -74 212 -69 Q224 -62 233 -62 Q241 -62 251 -67 Q255 -69 259 -71 Q263 -73 268 -76 Q273 -80 283 -80 Q292 -80 300 -76 Q310 -72 311 -61 Q311 -34 299 -18 Q295 -13 292.5 -8 Q290 -3 287 2 Q286 3 286 4 Q286 5 285 6 Q283 7 281 7 Q276 8 271 8.5 Q266 9 261 10 Q182 19 116 73 Q111 77 107.5 80.5 Q104 84 100 88 Q95 92 91.5 95.5 Q88 99 84 102 Q74 110 66.5 120 Q59 130 51 144 Q43 161 34 180.5 Q25 200 19 223 Q17 228 16 234 Q15 240 13 245 Q12 250 10 258 Q3 281 1 306 Q-1 331 1 360 Q4 383 10 404 Q15 421 22 443 Q29 465 41 487 Q66 534 98 569 Q150 628 219 656 Q288 684 350 690 Q358 691 367 691 Q376 691 387 691 Q401 691 414.5 690.5 Q428 690 444 689 Q452 688 459 686 Q466 684 474 681 Q491 673 503.5 664.5 Q516 656 525 645 Q532 637 532 630 Q532 623 530 618 Q528 613 528 602 L528 599 Q528 594 528 588.5 Q528 583 527 578 Q524 553 501 553 L494 553 L484 555 Q467 557 449.5 560 Q432 563 415 566 Q409 567 403 567 Q397 567 391 567 Q373 567 354 564 Q341 562 328 558.5 Q315 555 302 551 Q295 549 288.5 547 Q282 545 275 543 Q242 534 215 505 Q201 491 189.5 477 Q178 463 169 446 Q158 426 147 402.5 Q136 379 131 353 Q131 349 129 341 L126 332 Q122 309 126 286.5 Q130 264 141 238 Q144 231 148 224 Q152 217 156 210 L158 206 Q160 201 164 199 Q165 198 165.5 197 Q166 196 167 195 Q176 186 185 178 Q194 170 206 165 Q209 163 211.5 161.5 Q214 160 216 158 Q218 157 220 155 Q236 144 249.5 137.5 Q263 131 280 130 L281 130 L282 130 Q303 124 332 124 Q342 124 352 124.5 Q362 125 373 126 Q377 126 381 126.5 Q385 127 389 127 Q400 128 412 129 Q424 130 437 132 Q450 134 460 136.5 Q470 139 479 143 Q491 148 501 148 Q508 148 518 146 Q530 144 537 131 Q541 122 543 114 L543 109 Q545 97 546.5 85.5 Q548 74 551 63 Q554 52 547.5 41 Q541 30 529 27 Q522 25 514 23.5 Q506 22 498 20 Q490 19 483 18.5 Q476 18 469 17 Q461 15 454 14.5 Q447 14 440 13 Q432 11 426 9 L425 9 Q425 7 425.5 6 Q426 5 426 4 Q444 -47 435 -98 Q429 -142 394 -166 Q368 -185 338 -192 Q314 -198 289 -198 Z " />
<glyph glyph-name="Eth" unicode="&#xd0;" horiz-adv-x="690" d="M204 -7 Q184 -7 164 -6.5 Q144 -6 124 -6 L87 -6 Q64 -6 60 16 Q59 18 59 19.5 Q59 21 58 23 Q56 33 54.5 43.5 Q53 54 55 65 Q57 81 57 97.5 Q57 114 57 130 Q56 138 56 144.5 Q56 151 56 159 L56 181 Q56 198 56.5 215 Q57 232 57 249 Q57 258 56.5 266 Q56 274 56 282 Q56 283 54 287 L51 287 Q36 287 22 297 Q0 313 0 339 Q1 344 1 352 L1 370 Q3 389 18 398 Q34 410 51 411 Q55 412 58 412 Q61 412 63 414 L63 419 Q63 424 63 429 Q63 434 64 439 Q65 457 65.5 474.5 Q66 492 68 509 L69 520 Q70 535 70 550.5 Q70 566 70 581 L70 609 Q70 639 78 669 Q81 686 99 688 L100 688 Q108 689 116.5 690 Q125 691 133 691 Q137 691 140.5 690.5 Q144 690 147 690 Q199 684 251 681 L256 681 Q284 679 311 675 Q318 673 330 671 Q347 668 364.5 664 Q382 660 399 652 Q409 647 418.5 644 Q428 641 437 637 Q449 634 456 630 Q462 628 466 626 Q468 624 469.5 623.5 Q471 623 473 621 Q482 616 491 610.5 Q500 605 508 599 Q513 596 517 592.5 Q521 589 525 585 L526 584 Q565 546 587 507 L588 504 Q591 499 594 494 Q597 489 601 485 Q612 472 617.5 457.5 Q623 443 628 429 Q632 415 634.5 406.5 Q637 398 638.5 390.5 Q640 383 640 373.5 Q640 364 640 348 L640 347 Q639 336 638.5 326 Q638 316 637 306 Q632 271 624.5 244 Q617 217 606 194 Q605 192 604 189 Q603 186 602 183 Q602 181 601.5 180 Q601 179 601 177 Q580 115 538 78 Q532 72 529 70 Q524 66 520.5 62.5 Q517 59 512 55 Q504 48 496 44 Q488 40 480 36 Q411 7 334 1 Q324 1 314.5 0 Q305 -1 295 -2 Q286 -3 276.5 -3.5 Q267 -4 257 -5 Q244 -6 231.5 -6.5 Q219 -7 205 -7 L204 -7 Z M177 100 Q179 100 180 99.5 Q181 99 183 99 Q189 96 196 96 Q214 93 240 93 Q265 93 282 97 Q290 99 297.5 100 Q305 101 314 101 Q322 102 331 102.5 Q340 103 348 104 Q354 105 360 105.5 Q366 106 372 106 Q382 108 391 113 Q407 121 422 131.5 Q437 142 454 155 Q460 159 461 162 Q478 182 491.5 205 Q505 228 512 255 Q514 267 517 281.5 Q520 296 522 311 Q528 375 500 425 Q496 432 492.5 439 Q489 446 485 453 Q475 472 465 490 Q460 498 454.5 506 Q449 514 441 519 Q375 560 310 561 Q299 561 287.5 561.5 Q276 562 265 562 Q262 562 258.5 562 Q255 562 251 563 L226 563 Q218 564 210.5 564 Q203 564 195 565 Q193 565 192 564.5 Q191 564 190 564 L187 564 Q185 564 185 563 L184 563 L184 537 L184 529 L184 516 Q184 493 183.5 468.5 Q183 444 179 420 Q179 414 180 411 Q183 410 186.5 410 Q190 410 194 409 L230 409 L240 409 L242 409 Q251 409 259.5 408 Q268 407 276 405 Q279 404 282 404 Q285 404 287 403 Q307 400 316 380 Q318 375 319 369.5 Q320 364 321 359 Q321 354 321 348 Q321 342 320 337 L320 331 Q319 312 307.5 301 Q296 290 277 290 L276 290 L246 290 L214 290 L199 290 Q194 290 189 289.5 Q184 289 179 289 L178 289 L178 288 Q178 283 177.5 277.5 Q177 272 177 266 L177 215 L177 195 L177 185 L176 185 L176 174 L176 171 L176 106 Q176 104 177 103 L177 101 L177 100 Z " />
<glyph glyph-name="oslash" unicode="&#xf8;" horiz-adv-x="707" d="M167 -21 Q160 -21 151 -18 L149 -17 Q140 -13 129 -10 Q115 -6 105 7 Q95 20 95 36 Q94 44 98 53 Q100 58 102 62 Q104 66 106 71 Q106 72 106.5 72.5 Q107 73 107 74 Q105 76 102 78 Q101 79 100 79 Q77 96 59 120 Q52 129 47 138.5 Q42 148 37 157 Q29 177 23 198 Q17 219 12 238 Q11 243 10.5 247.5 Q10 252 9 257 Q7 265 7 269 Q4 282 3.5 295 Q3 308 2 321 L2 322 Q2 327 2 331 Q2 335 1 340 L1 363 Q-1 430 14 490 Q16 495 17 499 Q18 503 20 507 Q28 524 37.5 542.5 Q47 561 61 578 Q75 595 98 611 Q102 613 105 615.5 Q108 618 112 620 Q117 624 122.5 627.5 Q128 631 134 635 Q150 646 169 656 Q188 666 210 674 L211 674 Q217 675 224 679 Q256 693 300 694 L307 694 Q326 694 342.5 691.5 Q359 689 373 684 L374 683 L377 683 Q394 680 409.5 675 Q425 670 439 662 Q447 670 454.5 676.5 Q462 683 469 688 Q484 697 499 697 Q502 697 505.5 697 Q509 697 512 696 Q521 694 528.5 691 Q536 688 544 683 Q562 671 562 648 Q562 634 555 617 Q553 614 552 610.5 Q551 607 549 604 Q548 602 548 602 Q550 597 555 593 Q555 592 557 590 Q561 586 563 583 Q569 576 575.5 569.5 Q582 563 588 555 Q595 547 599 538 Q614 506 625 477 Q636 448 643 420 Q660 349 647 282 L644 264 Q642 256 641 248.5 Q640 241 638 233 Q636 222 633 210 Q630 198 628 187 Q627 183 626 180 Q625 177 624 173 L624 172 Q623 170 622.5 167 Q622 164 620 162 L617 156 Q606 135 594 114 Q582 93 565 74 Q557 64 549 58 Q511 27 471 14 Q446 6 420 -0.5 Q394 -7 365 -7 L355 -7 L344 -7 L336 -7 L327 -7 L318 -7 Q294 -6 268.5 -1.5 Q243 3 213 11 L212 11 Q212 10 211.5 10 Q211 10 211 9 Q210 8 210 7.5 Q210 7 209 6 L206 3 Q203 0 200 -3.5 Q197 -7 193 -11 Q182 -21 167 -21 Z M279 112 Q281 111 282.5 111 Q284 111 286 110 Q309 105 332 105 Q342 105 347 106 Q359 107 371 109 Q383 111 396 114 Q398 115 399 115 Q400 115 402 116 Q413 119 422.5 122 Q432 125 442 129 Q467 139 488 166 Q501 182 509.5 199.5 Q518 217 523 231 Q541 274 543 317 Q543 338 542 358 Q541 378 538 398 Q532 444 506 487 Q501 496 494 500 Q494 499 493.5 499 Q493 499 493 498 Q490 490 486 482.5 Q482 475 477 467 Q475 464 471 456 Q466 448 462 440 Q458 432 453 424 Q445 410 437.5 396 Q430 382 423 368 Q414 349 404.5 330.5 Q395 312 385 293 Q374 273 363.5 253.5 Q353 234 342 215 Q340 211 338 208 Q336 205 334 201 Q326 186 316.5 170 Q307 154 296 140 Q292 134 288.5 128 Q285 122 281 115 Q279 113 279 112 Z M293 571 Q287 571 281 570.5 Q275 570 269 569 Q258 567 245.5 563.5 Q233 560 218 555 Q202 548 192 536 Q180 524 167 503 L165 501 Q156 487 150 478 Q144 469 140 460.5 Q136 452 133 442.5 Q130 433 126 418 L125 415 Q122 404 119.5 394 Q117 384 117 373 L117 369 Q118 347 118.5 325 Q119 303 118 280 Q117 222 167 175 Q167 175 169 177 Q191 212 211 246.5 Q231 281 251 314 Q259 328 266.5 342 Q274 356 282 370 Q295 392 308 416 Q311 420 315 428 Q322 437 325 444 Q338 472 351.5 498 Q365 524 376 544 Q380 552 382 557 Q379 558 376.5 558 Q374 558 371 559 Q360 561 349 563.5 Q338 566 327 568 Q309 571 293 571 Z " />
<glyph glyph-name="Agrave" unicode="&#xc0;" horiz-adv-x="661" d="M556 -7 Q529 -7 510 21 Q501 33 496 48 Q489 66 482 82.5 Q475 99 467 114 Q459 130 451.5 147.5 Q444 165 438 184 Q436 188 434.5 191.5 Q433 195 431 200 Q430 202 429.5 202.5 Q429 203 428 205 L427 205 L401 205 Q385 205 370 204.5 Q355 204 340 201 Q334 200 328.5 199.5 Q323 199 316 199 L309 199 L178 199 L177 199 Q172 199 171.5 198 Q171 197 170 196 Q164 178 156 162.5 Q148 147 141 136 L138 130 Q133 113 126 98 Q119 83 112 69 Q107 60 103 51 Q99 42 95 33 Q95 32 94 32 L94 30 Q83 6 56 1 Q51 0 46.5 -0.5 Q42 -1 37 -1 L34 -1 Q23 -1 15 5.5 Q7 12 4 23 Q-1 41 5 60 Q5 61 5.5 61.5 Q6 62 6 64 Q15 81 21.5 99.5 Q28 118 34 136 Q37 145 40 154 Q43 163 47 172 Q57 199 67.5 224.5 Q78 250 86 270 L90 277 Q101 303 112.5 330 Q124 357 136 383 Q149 411 162.5 443 Q176 475 190 513 Q195 525 200 536.5 Q205 548 210 559 Q212 564 214.5 570 Q217 576 220 582 Q225 596 231 609 Q237 622 243 636 Q245 642 248 648 Q251 654 253 661 Q254 662 254 662.5 Q254 663 255 664 L258 673 Q272 700 300 700 Q308 700 317 697 Q326 693 331 687 Q339 677 342 669 Q345 662 348 656 Q351 650 353 644 Q364 621 374 594 Q375 590 377 586 Q379 582 381 577 L382 576 Q389 562 395.5 547 Q402 532 408 515 Q413 501 418.5 488.5 Q424 476 430 462 Q432 457 434.5 452 Q437 447 439 442 Q442 434 445.5 425.5 Q449 417 453 409 L459 394 Q467 377 476 360.5 Q485 344 494 328 Q496 325 497.5 322 Q499 319 501 316 Q517 287 528 256 Q536 232 545 211 L557 178 Q561 167 564.5 157 Q568 147 571 136 Q574 128 577 119 Q580 110 584 102 Q586 96 588.5 89.5 Q591 83 594 77 Q599 65 603 53 Q607 41 609 31 Q611 20 606 10.5 Q601 1 590 -2 Q587 -3 579 -5 Q576 -5 573 -5.5 Q570 -6 567 -6 L563 -6 Q561 -7 556 -7 Z M222 313 L223 313 Q240 317 266 317 Q274 317 282.5 317 Q291 317 299 316 L305 316 L311 316 L317 316 L327 316 L344 316 L378 316 L379 316 L378 317 Q374 327 370 336.5 Q366 346 361 355 Q359 360 356.5 365 Q354 370 352 375 Q347 384 343 393 Q339 402 335 411 Q330 423 326 434.5 Q322 446 318 458 Q316 463 314.5 468 Q313 473 311 478 Q309 482 309 483 Q306 491 303.5 497.5 Q301 504 298 511 Q293 500 289 489.5 Q285 479 280 468 Q272 446 263.5 424 Q255 402 247 380 Q244 370 240.5 360.5 Q237 351 233 341 Q231 336 229 331.5 Q227 327 225 322 L222 313 Z M321 743 Q318 743 315.5 743.5 Q313 744 310 744 Q281 752 270 773 Q262 784 254.5 795 Q247 806 239 817 Q234 824 229 831 Q224 838 219 845 Q217 847 215 851 Q205 869 213 887 Q222 909 246 920 Q250 922 254 923 Q258 924 263 926 Q265 927 266.5 927 Q268 927 270 928 L273 929 L275 928 Q277 928 278 927.5 Q279 927 281 927 Q283 926 286 925.5 Q289 925 292 923 Q311 915 326 900 Q348 873 374 843 Q378 838 380 833.5 Q382 829 384 824 Q396 794 373 771 L370 768 Q362 761 355 755 Q348 749 337 746 Q328 743 321 743 Z " />
<glyph glyph-name="Aacute" unicode="&#xc1;" horiz-adv-x="661" d="M556 -7 Q529 -7 510 21 Q501 33 496 48 Q489 66 482 82.5 Q475 99 467 114 Q459 130 451.5 147.5 Q444 165 438 184 Q436 188 434.5 191.5 Q433 195 431 200 Q430 202 429.5 202.5 Q429 203 428 205 L427 205 L401 205 Q385 205 370 204.5 Q355 204 340 201 Q334 200 328.5 199.5 Q323 199 316 199 L309 199 L178 199 L177 199 Q172 199 171.5 198 Q171 197 170 196 Q164 178 156 162.5 Q148 147 141 136 L138 130 Q133 113 126 98 Q119 83 112 69 Q107 60 103 51 Q99 42 95 33 Q95 32 94 32 L94 30 Q83 6 56 1 Q51 0 46.5 -0.5 Q42 -1 37 -1 L34 -1 Q23 -1 15 5.5 Q7 12 4 23 Q-1 41 5 60 Q5 61 5.5 61.5 Q6 62 6 64 Q15 81 21.5 99.5 Q28 118 34 136 Q37 145 40 154 Q43 163 47 172 Q57 199 67.5 224.5 Q78 250 86 270 L90 277 Q101 303 112.5 330 Q124 357 136 383 Q149 411 162.5 443 Q176 475 190 513 Q195 525 200 536.5 Q205 548 210 559 Q212 564 214.5 570 Q217 576 220 582 Q225 596 231 609 Q237 622 243 636 Q245 642 248 648 Q251 654 253 661 Q254 662 254 662.5 Q254 663 255 664 L258 673 Q272 700 300 700 Q308 700 317 697 Q326 693 331 687 Q339 677 342 669 Q345 662 348 656 Q351 650 353 644 Q364 621 374 594 Q375 590 377 586 Q379 582 381 577 L382 576 Q389 562 395.5 547 Q402 532 408 515 Q413 501 418.5 488.5 Q424 476 430 462 Q432 457 434.5 452 Q437 447 439 442 Q442 434 445.5 425.5 Q449 417 453 409 L459 394 Q467 377 476 360.5 Q485 344 494 328 Q496 325 497.5 322 Q499 319 501 316 Q517 287 528 256 Q536 232 545 211 L557 178 Q561 167 564.5 157 Q568 147 571 136 Q574 128 577 119 Q580 110 584 102 Q586 96 588.5 89.5 Q591 83 594 77 Q599 65 603 53 Q607 41 609 31 Q611 20 606 10.5 Q601 1 590 -2 Q587 -3 579 -5 Q576 -5 573 -5.5 Q570 -6 567 -6 L563 -6 Q561 -7 556 -7 Z M222 313 L223 313 Q240 317 266 317 Q274 317 282.5 317 Q291 317 299 316 L305 316 L311 316 L317 316 L327 316 L344 316 L378 316 L379 316 L378 317 Q374 327 370 336.5 Q366 346 361 355 Q359 360 356.5 365 Q354 370 352 375 Q347 384 343 393 Q339 402 335 411 Q330 423 326 434.5 Q322 446 318 458 Q316 463 314.5 468 Q313 473 311 478 Q309 482 309 483 Q306 491 303.5 497.5 Q301 504 298 511 Q293 500 289 489.5 Q285 479 280 468 Q272 446 263.5 424 Q255 402 247 380 Q244 370 240.5 360.5 Q237 351 233 341 Q231 336 229 331.5 Q227 327 225 322 L222 313 Z M276 738 Q268 738 264 740 Q256 741 242 748 Q224 758 217 773 Q209 789 216 809 Q221 824 228 831 Q244 848 260.5 867 Q277 886 297 906 Q308 919 325 919 Q330 919 338 916 Q348 914 358 909 Q368 904 377 894 Q389 882 389 865 Q389 846 377 831 Q371 823 365 816 Q359 809 353 802 Q346 794 339.5 785.5 Q333 777 325 769 Q320 764 313.5 757 Q307 750 298 745 Q288 738 276 738 Z " />
<glyph glyph-name="Acircumflex" unicode="&#xc2;" horiz-adv-x="661" d="M556 -7 Q529 -7 510 21 Q501 33 496 48 Q489 66 482 82.5 Q475 99 467 114 Q459 130 451.5 147.5 Q444 165 438 184 Q436 188 434.5 191.5 Q433 195 431 200 Q430 202 429.5 202.5 Q429 203 428 205 L427 205 L401 205 Q385 205 370 204.5 Q355 204 340 201 Q334 200 328.5 199.5 Q323 199 316 199 L309 199 L178 199 L177 199 Q172 199 171.5 198 Q171 197 170 196 Q164 178 156 162.5 Q148 147 141 136 L138 130 Q133 113 126 98 Q119 83 112 69 Q107 60 103 51 Q99 42 95 33 Q95 32 94 32 L94 30 Q83 6 56 1 Q51 0 46.5 -0.5 Q42 -1 37 -1 L34 -1 Q23 -1 15 5.5 Q7 12 4 23 Q-1 41 5 60 Q5 61 5.5 61.5 Q6 62 6 64 Q15 81 21.5 99.5 Q28 118 34 136 Q37 145 40 154 Q43 163 47 172 Q57 199 67.5 224.5 Q78 250 86 270 L90 277 Q101 303 112.5 330 Q124 357 136 383 Q149 411 162.5 443 Q176 475 190 513 Q195 525 200 536.5 Q205 548 210 559 Q212 564 214.5 570 Q217 576 220 582 Q225 596 231 609 Q237 622 243 636 Q245 642 248 648 Q251 654 253 661 Q254 662 254 662.5 Q254 663 255 664 L258 673 Q272 700 300 700 Q308 700 317 697 Q326 693 331 687 Q339 677 342 669 Q345 662 348 656 Q351 650 353 644 Q364 621 374 594 Q375 590 377 586 Q379 582 381 577 L382 576 Q389 562 395.5 547 Q402 532 408 515 Q413 501 418.5 488.5 Q424 476 430 462 Q432 457 434.5 452 Q437 447 439 442 Q442 434 445.5 425.5 Q449 417 453 409 L459 394 Q467 377 476 360.5 Q485 344 494 328 Q496 325 497.5 322 Q499 319 501 316 Q517 287 528 256 Q536 232 545 211 L557 178 Q561 167 564.5 157 Q568 147 571 136 Q574 128 577 119 Q580 110 584 102 Q586 96 588.5 89.5 Q591 83 594 77 Q599 65 603 53 Q607 41 609 31 Q611 20 606 10.5 Q601 1 590 -2 Q587 -3 579 -5 Q576 -5 573 -5.5 Q570 -6 567 -6 L563 -6 Q561 -7 556 -7 Z M222 313 L223 313 Q240 317 266 317 Q274 317 282.5 317 Q291 317 299 316 L305 316 L311 316 L317 316 L327 316 L344 316 L378 316 L379 316 L378 317 Q374 327 370 336.5 Q366 346 361 355 Q359 360 356.5 365 Q354 370 352 375 Q347 384 343 393 Q339 402 335 411 Q330 423 326 434.5 Q322 446 318 458 Q316 463 314.5 468 Q313 473 311 478 Q309 482 309 483 Q306 491 303.5 497.5 Q301 504 298 511 Q293 500 289 489.5 Q285 479 280 468 Q272 446 263.5 424 Q255 402 247 380 Q244 370 240.5 360.5 Q237 351 233 341 Q231 336 229 331.5 Q227 327 225 322 L222 313 Z M233 740 Q224 740 217 743 Q211 747 208 748 Q205 750 201 752 Q176 764 174 799 Q174 811 181 821 Q185 828 190 834 Q195 840 200 845 Q208 853 217 860.5 Q226 868 237 878 Q240 880 243 882 Q246 884 248 886 Q254 891 259.5 895 Q265 899 270 904 Q286 920 309 920 Q312 920 315 919.5 Q318 919 321 919 Q343 916 359 901 Q370 890 378.5 881 Q387 872 393 861 L394 859 Q399 851 403.5 844 Q408 837 414 831 Q427 818 425 795 Q422 769 407 760 Q407 759 406 759 Q406 758 405 758 Q387 743 366 743 Q348 743 329 757 Q325 760 322 762.5 Q319 765 316 767 Q313 772 309 773 Q306 776 303 778.5 Q300 781 296 784 Q296 785 295 785 Q295 783 293 783 Q288 778 284.5 774 Q281 770 276 766 L274 764 Q264 754 254 747 Q244 740 233 740 Z " />
<glyph glyph-name="Atilde" unicode="&#xc3;" horiz-adv-x="661" d="M556 -7 Q529 -7 510 21 Q501 33 496 48 Q489 66 482 82.5 Q475 99 467 114 Q459 130 451.5 147.5 Q444 165 438 184 Q436 188 434.5 191.5 Q433 195 431 200 Q430 202 429.5 202.5 Q429 203 428 205 L427 205 L401 205 Q385 205 370 204.5 Q355 204 340 201 Q334 200 328.5 199.5 Q323 199 316 199 L309 199 L178 199 L177 199 Q172 199 171.5 198 Q171 197 170 196 Q164 178 156 162.5 Q148 147 141 136 L138 130 Q133 113 126 98 Q119 83 112 69 Q107 60 103 51 Q99 42 95 33 Q95 32 94 32 L94 30 Q83 6 56 1 Q51 0 46.5 -0.5 Q42 -1 37 -1 L34 -1 Q23 -1 15 5.5 Q7 12 4 23 Q-1 41 5 60 Q5 61 5.5 61.5 Q6 62 6 64 Q15 81 21.5 99.5 Q28 118 34 136 Q37 145 40 154 Q43 163 47 172 Q57 199 67.5 224.5 Q78 250 86 270 L90 277 Q101 303 112.5 330 Q124 357 136 383 Q149 411 162.5 443 Q176 475 190 513 Q195 525 200 536.5 Q205 548 210 559 Q212 564 214.5 570 Q217 576 220 582 Q225 596 231 609 Q237 622 243 636 Q245 642 248 648 Q251 654 253 661 Q254 662 254 662.5 Q254 663 255 664 L258 673 Q272 700 300 700 Q308 700 317 697 Q326 693 331 687 Q339 677 342 669 Q345 662 348 656 Q351 650 353 644 Q364 621 374 594 Q375 590 377 586 Q379 582 381 577 L382 576 Q389 562 395.5 547 Q402 532 408 515 Q413 501 418.5 488.5 Q424 476 430 462 Q432 457 434.5 452 Q437 447 439 442 Q442 434 445.5 425.5 Q449 417 453 409 L459 394 Q467 377 476 360.5 Q485 344 494 328 Q496 325 497.5 322 Q499 319 501 316 Q517 287 528 256 Q536 232 545 211 L557 178 Q561 167 564.5 157 Q568 147 571 136 Q574 128 577 119 Q580 110 584 102 Q586 96 588.5 89.5 Q591 83 594 77 Q599 65 603 53 Q607 41 609 31 Q611 20 606 10.5 Q601 1 590 -2 Q587 -3 579 -5 Q576 -5 573 -5.5 Q570 -6 567 -6 L563 -6 Q561 -7 556 -7 Z M222 313 L223 313 Q240 317 266 317 Q274 317 282.5 317 Q291 317 299 316 L305 316 L311 316 L317 316 L327 316 L344 316 L378 316 L379 316 L378 317 Q374 327 370 336.5 Q366 346 361 355 Q359 360 356.5 365 Q354 370 352 375 Q347 384 343 393 Q339 402 335 411 Q330 423 326 434.5 Q322 446 318 458 Q316 463 314.5 468 Q313 473 311 478 Q309 482 309 483 Q306 491 303.5 497.5 Q301 504 298 511 Q293 500 289 489.5 Q285 479 280 468 Q272 446 263.5 424 Q255 402 247 380 Q244 370 240.5 360.5 Q237 351 233 341 Q231 336 229 331.5 Q227 327 225 322 L222 313 Z M203 733 Q197 733 187 737 Q186 738 185.5 738 Q185 738 184 739 Q178 741 175 744 Q150 763 154 790 Q156 812 172 831 Q179 839 184 842 Q186 843 187.5 843.5 Q189 844 191 845 Q207 855 227 863 Q242 868 257 868 Q261 868 265 868 Q269 868 274 867 Q289 864 300 860 Q311 856 321 849 Q325 847 328 845 L334 842 Q338 840 343 840 Q354 840 361 847 Q361 848 362 849 Q363 850 363 850.5 Q363 851 364 852 Q365 853 365 853 Q367 855 368 856.5 Q369 858 371 860 Q382 870 397 870 Q405 870 411.5 868 Q418 866 425 863 Q451 852 449 823 Q448 812 446 803.5 Q444 795 441 787 Q420 734 361 734 L356 734 L355 734 Q351 735 348 735.5 Q345 736 340 736 Q329 738 315.5 740.5 Q302 743 289 751 Q283 754 274 757 Q270 759 268 759 Q265 761 258 761 Q250 761 242 756 Q238 754 231 747 L227 743 Q214 733 203 733 Z " />
<glyph glyph-name="Adieresis" unicode="&#xc4;" horiz-adv-x="661" d="M556 -7 Q529 -7 510 21 Q501 33 496 48 Q489 66 482 82.5 Q475 99 467 114 Q459 130 451.5 147.5 Q444 165 438 184 Q436 188 434.5 191.5 Q433 195 431 200 Q430 202 429.5 202.5 Q429 203 428 205 L427 205 L401 205 Q385 205 370 204.5 Q355 204 340 201 Q334 200 328.5 199.5 Q323 199 316 199 L309 199 L178 199 L177 199 Q172 199 171.5 198 Q171 197 170 196 Q164 178 156 162.5 Q148 147 141 136 L138 130 Q133 113 126 98 Q119 83 112 69 Q107 60 103 51 Q99 42 95 33 Q95 32 94 32 L94 30 Q83 6 56 1 Q51 0 46.5 -0.5 Q42 -1 37 -1 L34 -1 Q23 -1 15 5.5 Q7 12 4 23 Q-1 41 5 60 Q5 61 5.5 61.5 Q6 62 6 64 Q15 81 21.5 99.5 Q28 118 34 136 Q37 145 40 154 Q43 163 47 172 Q57 199 67.5 224.5 Q78 250 86 270 L90 277 Q101 303 112.5 330 Q124 357 136 383 Q149 411 162.5 443 Q176 475 190 513 Q195 525 200 536.5 Q205 548 210 559 Q212 564 214.5 570 Q217 576 220 582 Q225 596 231 609 Q237 622 243 636 Q245 642 248 648 Q251 654 253 661 Q254 662 254 662.5 Q254 663 255 664 L258 673 Q272 700 300 700 Q308 700 317 697 Q326 693 331 687 Q339 677 342 669 Q345 662 348 656 Q351 650 353 644 Q364 621 374 594 Q375 590 377 586 Q379 582 381 577 L382 576 Q389 562 395.5 547 Q402 532 408 515 Q413 501 418.5 488.5 Q424 476 430 462 Q432 457 434.5 452 Q437 447 439 442 Q442 434 445.5 425.5 Q449 417 453 409 L459 394 Q467 377 476 360.5 Q485 344 494 328 Q496 325 497.5 322 Q499 319 501 316 Q517 287 528 256 Q536 232 545 211 L557 178 Q561 167 564.5 157 Q568 147 571 136 Q574 128 577 119 Q580 110 584 102 Q586 96 588.5 89.5 Q591 83 594 77 Q599 65 603 53 Q607 41 609 31 Q611 20 606 10.5 Q601 1 590 -2 Q587 -3 579 -5 Q576 -5 573 -5.5 Q570 -6 567 -6 L563 -6 Q561 -7 556 -7 Z M222 313 L223 313 Q240 317 266 317 Q274 317 282.5 317 Q291 317 299 316 L305 316 L311 316 L317 316 L327 316 L344 316 L378 316 L379 316 L378 317 Q374 327 370 336.5 Q366 346 361 355 Q359 360 356.5 365 Q354 370 352 375 Q347 384 343 393 Q339 402 335 411 Q330 423 326 434.5 Q322 446 318 458 Q316 463 314.5 468 Q313 473 311 478 Q309 482 309 483 Q306 491 303.5 497.5 Q301 504 298 511 Q293 500 289 489.5 Q285 479 280 468 Q272 446 263.5 424 Q255 402 247 380 Q244 370 240.5 360.5 Q237 351 233 341 Q231 336 229 331.5 Q227 327 225 322 L222 313 Z M357 728 Q348 728 340.5 731 Q333 734 326 738 Q323 740 321 742.5 Q319 745 317 747 Q305 763 306 782.5 Q307 802 320 817 Q324 821 328 824.5 Q332 828 337 832 Q347 840 358 840 Q360 840 361.5 839.5 Q363 839 365 839 L368 838 Q372 837 376 836.5 Q380 836 384 834 Q412 825 416 798 Q424 755 386 734 Q375 728 362 728 L360 728 L357 728 Z M230 732 L229 732 Q227 732 224.5 732.5 Q222 733 220 733 Q190 737 184 769 Q178 796 196 823 Q200 829 205.5 832 Q211 835 216 837 Q222 839 228 840 Q234 841 239 841 Q264 841 282 818 Q296 801 291 781 Q287 755 273 743 Q265 738 255.5 735 Q246 732 232 732 L231 732 L230 732 Z " />
<glyph glyph-name="Aring" unicode="&#xc5;" horiz-adv-x="661" d="M556 -7 Q529 -7 510 21 Q501 33 496 48 Q489 66 482 82.5 Q475 99 467 114 Q459 130 451.5 147.5 Q444 165 438 184 Q436 188 434.5 191.5 Q433 195 431 200 Q430 202 429.5 202.5 Q429 203 428 205 L427 205 L401 205 Q385 205 370 204.5 Q355 204 340 201 Q334 200 328.5 199.5 Q323 199 316 199 L309 199 L178 199 L177 199 Q172 199 171.5 198 Q171 197 170 196 Q164 178 156 162.5 Q148 147 141 136 L138 130 Q133 113 126 98 Q119 83 112 69 Q107 60 103 51 Q99 42 95 33 Q95 32 94 32 L94 30 Q83 6 56 1 Q51 0 46.5 -0.5 Q42 -1 37 -1 L34 -1 Q23 -1 15 5.5 Q7 12 4 23 Q-1 41 5 60 Q5 61 5.5 61.5 Q6 62 6 64 Q15 81 21.5 99.5 Q28 118 34 136 Q37 145 40 154 Q43 163 47 172 Q57 199 67.5 224.5 Q78 250 86 270 L90 277 Q101 303 112.5 330 Q124 357 136 383 Q149 411 162.5 443 Q176 475 190 513 Q195 525 200 536.5 Q205 548 210 559 Q212 564 214.5 570 Q217 576 220 582 Q225 596 231 609 Q237 622 243 636 Q245 642 248 648 Q251 654 253 661 Q254 662 254 662.5 Q254 663 255 664 L258 673 Q272 700 300 700 Q308 700 317 697 Q326 693 331 687 Q339 677 342 669 Q345 662 348 656 Q351 650 353 644 Q364 621 374 594 Q375 590 377 586 Q379 582 381 577 L382 576 Q389 562 395.5 547 Q402 532 408 515 Q413 501 418.5 488.5 Q424 476 430 462 Q432 457 434.5 452 Q437 447 439 442 Q442 434 445.5 425.5 Q449 417 453 409 L459 394 Q467 377 476 360.5 Q485 344 494 328 Q496 325 497.5 322 Q499 319 501 316 Q517 287 528 256 Q536 232 545 211 L557 178 Q561 167 564.5 157 Q568 147 571 136 Q574 128 577 119 Q580 110 584 102 Q586 96 588.5 89.5 Q591 83 594 77 Q599 65 603 53 Q607 41 609 31 Q611 20 606 10.5 Q601 1 590 -2 Q587 -3 579 -5 Q576 -5 573 -5.5 Q570 -6 567 -6 L563 -6 Q561 -7 556 -7 Z M222 313 L223 313 Q240 317 266 317 Q274 317 282.5 317 Q291 317 299 316 L305 316 L311 316 L317 316 L327 316 L344 316 L378 316 L379 316 L378 317 Q374 327 370 336.5 Q366 346 361 355 Q359 360 356.5 365 Q354 370 352 375 Q347 384 343 393 Q339 402 335 411 Q330 423 326 434.5 Q322 446 318 458 Q316 463 314.5 468 Q313 473 311 478 Q309 482 309 483 Q306 491 303.5 497.5 Q301 504 298 511 Q293 500 289 489.5 Q285 479 280 468 Q272 446 263.5 424 Q255 402 247 380 Q244 370 240.5 360.5 Q237 351 233 341 Q231 336 229 331.5 Q227 327 225 322 L222 313 Z M316 742 L308 742 Q288 744 271 749.5 Q254 755 237 764 Q214 776 206 802 Q191 851 215 891 Q239 931 291 940 Q296 941 299.5 941.5 Q303 942 308 942 Q334 942 357 928 Q385 912 396 881 Q398 873 400.5 864 Q403 855 404 844 L404 843 L402 833 L396 800 Q396 796 393 793 L392 791 Q384 780 375 769 Q366 758 353 751 Q336 742 316 742 Z M317 808 L319 808 Q324 808 328 811 L328 812 Q329 813 330 813 Q335 831 335 844 Q335 848 333 855 Q331 862 317 870 Q315 872 310 872 Q300 872 289 864 Q284 860 278.5 853 Q273 846 269 836 Q283 822 295.5 816 Q308 810 317 808 Z " />
<glyph glyph-name="Egrave" unicode="&#xc8;" horiz-adv-x="456" d="M169 -6 Q129 -6 83 -3 Q69 -2 56 1 Q43 4 30 8 Q7 16 4 39 Q2 56 2 73 Q2 90 3 104 Q4 135 3 160 Q2 168 2 177 Q2 186 2 194 L2 206 L2 261 L2 284 L2 294 L3 294 L3 333 Q3 374 3.5 415.5 Q4 457 4 499 Q4 504 4 510 Q4 516 3 522 Q-3 567 3 630 Q3 633 3 636.5 Q3 640 4 643 Q4 648 4.5 653 Q5 658 5 663 Q7 679 24 685 Q33 688 44 688 Q54 689 63.5 689 Q73 689 82 690 Q95 691 107.5 691 Q120 691 133 693 Q155 694 176.5 694 Q198 694 219 694 Q223 695 233 695 L236 695 L239 695 L247 695 Q261 697 274.5 697.5 Q288 698 299 698 L323 698 L346 698 L350 698 L351 698 Q359 698 366 697 Q373 696 380 695 Q382 695 384 694.5 Q386 694 388 694 Q396 692 402 686 Q408 680 408 672 Q409 659 409.5 646 Q410 633 411 621 Q411 616 409 608 Q406 596 394 593 Q389 592 385 591.5 Q381 591 377 591 L376 591 L371 591 Q357 591 343.5 590 Q330 589 316 587 Q313 586 307 586 Q254 580 209 580 L201 580 L174 580 L138 580 L133 580 Q127 580 125 579 L125 578 L125 576 L125 398 Q125 388 126 384 L129 384 Q137 385 145 385 Q153 385 161 386 Q168 387 174 387.5 Q180 388 187 388 Q192 388 197.5 388 Q203 388 208 386 Q211 385 220 385 Q223 385 226.5 385.5 Q230 386 235 386 Q251 389 273 389 Q278 389 283.5 389 Q289 389 294 388 L310 388 Q319 388 325 382 Q331 376 332 368 Q335 339 328 313 Q325 302 314 297 Q305 295 297 293.5 Q289 292 281 292 Q261 291 238 291 Q215 291 192 290 Q178 289 165.5 288.5 Q153 288 140 286 Q137 286 134 285.5 Q131 285 128 285 Q126 284 126 284 L125 284 L125 283 Q123 252 122.5 222 Q122 192 123 163 Q123 158 123.5 153 Q124 148 124 143 L124 127 Q124 119 128 111 Q130 106 132 105.5 Q134 105 136 105 L159 105 L188 105 L193 105 L201 105 Q208 105 215 105 Q222 105 230 103 Q238 101 242 101 Q245 101 248 101.5 Q251 102 254 102 Q262 104 269 104 Q276 104 284 104 Q292 104 299.5 104 Q307 104 315 102 Q323 101 330 101 Q337 101 345 100 Q350 99 354.5 99 Q359 99 364 98 L366 98 Q370 98 373.5 97.5 Q377 97 382 96 Q394 91 400.5 85.5 Q407 80 407 63 L407 61 Q407 54 407 47 Q407 40 406 32 Q406 27 404.5 23 Q403 19 401 15 L401 14 Q395 2 380 0 Q363 -1 347.5 -2 Q332 -3 315 -3 Q304 -4 292.5 -4 Q281 -4 270 -4 Q254 -5 238.5 -5 Q223 -5 208 -6 L169 -6 Z M239 733 Q236 733 233.5 733.5 Q231 734 228 734 Q199 742 188 763 Q180 774 172.5 785 Q165 796 157 807 Q152 814 147 821 Q142 828 137 835 Q135 837 133 841 Q123 859 131 877 Q140 899 164 910 Q168 912 172 913 Q176 914 181 916 Q183 917 184.5 917 Q186 917 188 918 L191 919 L193 918 Q195 918 196 917.5 Q197 917 199 917 Q201 916 204 915.5 Q207 915 210 913 Q229 905 244 890 Q266 863 292 833 Q296 828 298 823.5 Q300 819 302 814 Q314 784 291 761 L288 758 Q280 751 273 745 Q266 739 255 736 Q246 733 239 733 Z " />
<glyph glyph-name="Eacute" unicode="&#xc9;" horiz-adv-x="456" d="M169 -6 Q129 -6 83 -3 Q69 -2 56 1 Q43 4 30 8 Q7 16 4 39 Q2 56 2 73 Q2 90 3 104 Q4 135 3 160 Q2 168 2 177 Q2 186 2 194 L2 206 L2 261 L2 284 L2 294 L3 294 L3 333 Q3 374 3.5 415.5 Q4 457 4 499 Q4 504 4 510 Q4 516 3 522 Q-3 567 3 630 Q3 633 3 636.5 Q3 640 4 643 Q4 648 4.5 653 Q5 658 5 663 Q7 679 24 685 Q33 688 44 688 Q54 689 63.5 689 Q73 689 82 690 Q95 691 107.5 691 Q120 691 133 693 Q155 694 176.5 694 Q198 694 219 694 Q223 695 233 695 L236 695 L239 695 L247 695 Q261 697 274.5 697.5 Q288 698 299 698 L323 698 L346 698 L350 698 L351 698 Q359 698 366 697 Q373 696 380 695 Q382 695 384 694.5 Q386 694 388 694 Q396 692 402 686 Q408 680 408 672 Q409 659 409.5 646 Q410 633 411 621 Q411 616 409 608 Q406 596 394 593 Q389 592 385 591.5 Q381 591 377 591 L376 591 L371 591 Q357 591 343.5 590 Q330 589 316 587 Q313 586 307 586 Q254 580 209 580 L201 580 L174 580 L138 580 L133 580 Q127 580 125 579 L125 578 L125 576 L125 398 Q125 388 126 384 L129 384 Q137 385 145 385 Q153 385 161 386 Q168 387 174 387.5 Q180 388 187 388 Q192 388 197.5 388 Q203 388 208 386 Q211 385 220 385 Q223 385 226.5 385.5 Q230 386 235 386 Q251 389 273 389 Q278 389 283.5 389 Q289 389 294 388 L310 388 Q319 388 325 382 Q331 376 332 368 Q335 339 328 313 Q325 302 314 297 Q305 295 297 293.5 Q289 292 281 292 Q261 291 238 291 Q215 291 192 290 Q178 289 165.5 288.5 Q153 288 140 286 Q137 286 134 285.5 Q131 285 128 285 Q126 284 126 284 L125 284 L125 283 Q123 252 122.5 222 Q122 192 123 163 Q123 158 123.5 153 Q124 148 124 143 L124 127 Q124 119 128 111 Q130 106 132 105.5 Q134 105 136 105 L159 105 L188 105 L193 105 L201 105 Q208 105 215 105 Q222 105 230 103 Q238 101 242 101 Q245 101 248 101.5 Q251 102 254 102 Q262 104 269 104 Q276 104 284 104 Q292 104 299.5 104 Q307 104 315 102 Q323 101 330 101 Q337 101 345 100 Q350 99 354.5 99 Q359 99 364 98 L366 98 Q370 98 373.5 97.5 Q377 97 382 96 Q394 91 400.5 85.5 Q407 80 407 63 L407 61 Q407 54 407 47 Q407 40 406 32 Q406 27 404.5 23 Q403 19 401 15 L401 14 Q395 2 380 0 Q363 -1 347.5 -2 Q332 -3 315 -3 Q304 -4 292.5 -4 Q281 -4 270 -4 Q254 -5 238.5 -5 Q223 -5 208 -6 L169 -6 Z M203 738 Q195 738 191 740 Q183 741 169 748 Q151 758 144 773 Q136 789 143 809 Q148 824 155 831 Q171 848 187.5 867 Q204 886 224 906 Q235 919 252 919 Q257 919 265 916 Q275 914 285 909 Q295 904 304 894 Q316 882 316 865 Q316 846 304 831 Q298 823 292 816 Q286 809 280 802 Q273 794 266.5 785.5 Q260 777 252 769 Q247 764 240.5 757 Q234 750 225 745 Q215 738 203 738 Z " />
<glyph glyph-name="Ecircumflex" unicode="&#xca;" horiz-adv-x="456" d="M169 -6 Q129 -6 83 -3 Q69 -2 56 1 Q43 4 30 8 Q7 16 4 39 Q2 56 2 73 Q2 90 3 104 Q4 135 3 160 Q2 168 2 177 Q2 186 2 194 L2 206 L2 261 L2 284 L2 294 L3 294 L3 333 Q3 374 3.5 415.5 Q4 457 4 499 Q4 504 4 510 Q4 516 3 522 Q-3 567 3 630 Q3 633 3 636.5 Q3 640 4 643 Q4 648 4.5 653 Q5 658 5 663 Q7 679 24 685 Q33 688 44 688 Q54 689 63.5 689 Q73 689 82 690 Q95 691 107.5 691 Q120 691 133 693 Q155 694 176.5 694 Q198 694 219 694 Q223 695 233 695 L236 695 L239 695 L247 695 Q261 697 274.5 697.5 Q288 698 299 698 L323 698 L346 698 L350 698 L351 698 Q359 698 366 697 Q373 696 380 695 Q382 695 384 694.5 Q386 694 388 694 Q396 692 402 686 Q408 680 408 672 Q409 659 409.5 646 Q410 633 411 621 Q411 616 409 608 Q406 596 394 593 Q389 592 385 591.5 Q381 591 377 591 L376 591 L371 591 Q357 591 343.5 590 Q330 589 316 587 Q313 586 307 586 Q254 580 209 580 L201 580 L174 580 L138 580 L133 580 Q127 580 125 579 L125 578 L125 576 L125 398 Q125 388 126 384 L129 384 Q137 385 145 385 Q153 385 161 386 Q168 387 174 387.5 Q180 388 187 388 Q192 388 197.5 388 Q203 388 208 386 Q211 385 220 385 Q223 385 226.5 385.5 Q230 386 235 386 Q251 389 273 389 Q278 389 283.5 389 Q289 389 294 388 L310 388 Q319 388 325 382 Q331 376 332 368 Q335 339 328 313 Q325 302 314 297 Q305 295 297 293.5 Q289 292 281 292 Q261 291 238 291 Q215 291 192 290 Q178 289 165.5 288.5 Q153 288 140 286 Q137 286 134 285.5 Q131 285 128 285 Q126 284 126 284 L125 284 L125 283 Q123 252 122.5 222 Q122 192 123 163 Q123 158 123.5 153 Q124 148 124 143 L124 127 Q124 119 128 111 Q130 106 132 105.5 Q134 105 136 105 L159 105 L188 105 L193 105 L201 105 Q208 105 215 105 Q222 105 230 103 Q238 101 242 101 Q245 101 248 101.5 Q251 102 254 102 Q262 104 269 104 Q276 104 284 104 Q292 104 299.5 104 Q307 104 315 102 Q323 101 330 101 Q337 101 345 100 Q350 99 354.5 99 Q359 99 364 98 L366 98 Q370 98 373.5 97.5 Q377 97 382 96 Q394 91 400.5 85.5 Q407 80 407 63 L407 61 Q407 54 407 47 Q407 40 406 32 Q406 27 404.5 23 Q403 19 401 15 L401 14 Q395 2 380 0 Q363 -1 347.5 -2 Q332 -3 315 -3 Q304 -4 292.5 -4 Q281 -4 270 -4 Q254 -5 238.5 -5 Q223 -5 208 -6 L169 -6 Z M151 740 Q142 740 135 743 Q129 747 126 748 Q123 750 119 752 Q94 764 92 799 Q92 811 99 821 Q103 828 108 834 Q113 840 118 845 Q126 853 135 860.5 Q144 868 155 878 Q158 880 161 882 Q164 884 166 886 Q172 891 177.5 895 Q183 899 188 904 Q204 920 227 920 Q230 920 233 919.5 Q236 919 239 919 Q261 916 277 901 Q288 890 296.5 881 Q305 872 311 861 L312 859 Q317 851 321.5 844 Q326 837 332 831 Q345 818 343 795 Q340 769 325 760 Q325 759 324 759 Q324 758 323 758 Q305 743 284 743 Q266 743 247 757 Q243 760 240 762.5 Q237 765 234 767 Q231 772 227 773 Q224 776 221 778.5 Q218 781 214 784 Q214 785 213 785 Q213 783 211 783 Q206 778 202.5 774 Q199 770 194 766 L192 764 Q182 754 172 747 Q162 740 151 740 Z " />
<glyph glyph-name="Edieresis" unicode="&#xcb;" horiz-adv-x="456" d="M169 -6 Q129 -6 83 -3 Q69 -2 56 1 Q43 4 30 8 Q7 16 4 39 Q2 56 2 73 Q2 90 3 104 Q4 135 3 160 Q2 168 2 177 Q2 186 2 194 L2 206 L2 261 L2 284 L2 294 L3 294 L3 333 Q3 374 3.5 415.5 Q4 457 4 499 Q4 504 4 510 Q4 516 3 522 Q-3 567 3 630 Q3 633 3 636.5 Q3 640 4 643 Q4 648 4.5 653 Q5 658 5 663 Q7 679 24 685 Q33 688 44 688 Q54 689 63.5 689 Q73 689 82 690 Q95 691 107.5 691 Q120 691 133 693 Q155 694 176.5 694 Q198 694 219 694 Q223 695 233 695 L236 695 L239 695 L247 695 Q261 697 274.5 697.5 Q288 698 299 698 L323 698 L346 698 L350 698 L351 698 Q359 698 366 697 Q373 696 380 695 Q382 695 384 694.5 Q386 694 388 694 Q396 692 402 686 Q408 680 408 672 Q409 659 409.5 646 Q410 633 411 621 Q411 616 409 608 Q406 596 394 593 Q389 592 385 591.5 Q381 591 377 591 L376 591 L371 591 Q357 591 343.5 590 Q330 589 316 587 Q313 586 307 586 Q254 580 209 580 L201 580 L174 580 L138 580 L133 580 Q127 580 125 579 L125 578 L125 576 L125 398 Q125 388 126 384 L129 384 Q137 385 145 385 Q153 385 161 386 Q168 387 174 387.5 Q180 388 187 388 Q192 388 197.5 388 Q203 388 208 386 Q211 385 220 385 Q223 385 226.5 385.5 Q230 386 235 386 Q251 389 273 389 Q278 389 283.5 389 Q289 389 294 388 L310 388 Q319 388 325 382 Q331 376 332 368 Q335 339 328 313 Q325 302 314 297 Q305 295 297 293.5 Q289 292 281 292 Q261 291 238 291 Q215 291 192 290 Q178 289 165.5 288.5 Q153 288 140 286 Q137 286 134 285.5 Q131 285 128 285 Q126 284 126 284 L125 284 L125 283 Q123 252 122.5 222 Q122 192 123 163 Q123 158 123.5 153 Q124 148 124 143 L124 127 Q124 119 128 111 Q130 106 132 105.5 Q134 105 136 105 L159 105 L188 105 L193 105 L201 105 Q208 105 215 105 Q222 105 230 103 Q238 101 242 101 Q245 101 248 101.5 Q251 102 254 102 Q262 104 269 104 Q276 104 284 104 Q292 104 299.5 104 Q307 104 315 102 Q323 101 330 101 Q337 101 345 100 Q350 99 354.5 99 Q359 99 364 98 L366 98 Q370 98 373.5 97.5 Q377 97 382 96 Q394 91 400.5 85.5 Q407 80 407 63 L407 61 Q407 54 407 47 Q407 40 406 32 Q406 27 404.5 23 Q403 19 401 15 L401 14 Q395 2 380 0 Q363 -1 347.5 -2 Q332 -3 315 -3 Q304 -4 292.5 -4 Q281 -4 270 -4 Q254 -5 238.5 -5 Q223 -5 208 -6 L169 -6 Z M274 728 Q265 728 257.5 731 Q250 734 243 738 Q240 740 238 742.5 Q236 745 234 747 Q222 763 223 782.5 Q224 802 237 817 Q241 821 245 824.5 Q249 828 254 832 Q264 840 275 840 Q277 840 278.5 839.5 Q280 839 282 839 L285 838 Q289 837 293 836.5 Q297 836 301 834 Q329 825 333 798 Q341 755 303 734 Q292 728 279 728 L277 728 L274 728 Z M147 732 L146 732 Q144 732 141.5 732.5 Q139 733 137 733 Q107 737 101 769 Q95 796 113 823 Q117 829 122.5 832 Q128 835 133 837 Q139 839 145 840 Q151 841 156 841 Q181 841 199 818 Q213 801 208 781 Q204 755 190 743 Q182 738 172.5 735 Q163 732 149 732 L148 732 L147 732 Z " />
<glyph glyph-name="Igrave" unicode="&#xcc;" horiz-adv-x="156" d="M96 4 L84 4 Q73 5 61 5 Q49 5 37 6 Q31 7 26 11 Q21 15 19 21 Q18 26 17 31 Q16 36 16 41 Q15 63 14.5 85 Q14 107 13 129 Q12 139 12 149 Q12 159 11 169 L11 171 L11 179 Q8 190 7.5 202 Q7 214 7 225 L7 237 Q6 254 6 270 Q6 286 5 303 Q5 315 4.5 326.5 Q4 338 4 350 L4 353 L4 373 Q6 389 5.5 405.5 Q5 422 3 442 Q0 472 3 503 Q3 513 3.5 524 Q4 535 2 546 Q1 551 0.5 557.5 Q0 564 2 570 Q4 580 4 589.5 Q4 599 4 610 Q4 614 3.5 617.5 Q3 621 3 624 Q4 636 4 645.5 Q4 655 5 664 Q7 681 23 688 Q31 693 40 693.5 Q49 694 58 694 L60 694 L64 694 Q98 694 99 659 Q99 652 99.5 644.5 Q100 637 100 629 Q100 609 102 588.5 Q104 568 106 548 Q107 542 107.5 536 Q108 530 109 523 Q111 515 111 506.5 Q111 498 111 490 Q112 473 112.5 452.5 Q113 432 116 411 Q117 408 117 405 Q117 402 118 398 Q118 390 118.5 383 Q119 376 119 368 Q121 340 122 311.5 Q123 283 122 254 Q122 240 121.5 225.5 Q121 211 120 197 Q120 191 119.5 185 Q119 179 119 173 L119 143 L119 40 Q119 36 119 32.5 Q119 29 118 24 Q118 17 113 12 Q108 7 101 5 Q100 4 96 4 Z M79 733 Q76 733 73.5 733.5 Q71 734 68 734 Q39 742 28 763 Q20 774 12.5 785 Q5 796 -3 807 Q-8 814 -13 821 Q-18 828 -23 835 Q-25 837 -27 841 Q-37 859 -29 877 Q-20 899 4 910 Q8 912 12 913 Q16 914 21 916 Q23 917 24.5 917 Q26 917 28 918 L31 919 L33 918 Q35 918 36 917.5 Q37 917 39 917 Q41 916 44 915.5 Q47 915 50 913 Q69 905 84 890 Q106 863 132 833 Q136 828 138 823.5 Q140 819 142 814 Q154 784 131 761 L128 758 Q120 751 113 745 Q106 739 95 736 Q86 733 79 733 Z " />
<glyph glyph-name="Iacute" unicode="&#xcd;" horiz-adv-x="156" d="M96 4 L84 4 Q73 5 61 5 Q49 5 37 6 Q31 7 26 11 Q21 15 19 21 Q18 26 17 31 Q16 36 16 41 Q15 63 14.5 85 Q14 107 13 129 Q12 139 12 149 Q12 159 11 169 L11 171 L11 179 Q8 190 7.5 202 Q7 214 7 225 L7 237 Q6 254 6 270 Q6 286 5 303 Q5 315 4.5 326.5 Q4 338 4 350 L4 353 L4 373 Q6 389 5.5 405.5 Q5 422 3 442 Q0 472 3 503 Q3 513 3.5 524 Q4 535 2 546 Q1 551 0.5 557.5 Q0 564 2 570 Q4 580 4 589.5 Q4 599 4 610 Q4 614 3.5 617.5 Q3 621 3 624 Q4 636 4 645.5 Q4 655 5 664 Q7 681 23 688 Q31 693 40 693.5 Q49 694 58 694 L60 694 L64 694 Q98 694 99 659 Q99 652 99.5 644.5 Q100 637 100 629 Q100 609 102 588.5 Q104 568 106 548 Q107 542 107.5 536 Q108 530 109 523 Q111 515 111 506.5 Q111 498 111 490 Q112 473 112.5 452.5 Q113 432 116 411 Q117 408 117 405 Q117 402 118 398 Q118 390 118.5 383 Q119 376 119 368 Q121 340 122 311.5 Q123 283 122 254 Q122 240 121.5 225.5 Q121 211 120 197 Q120 191 119.5 185 Q119 179 119 173 L119 143 L119 40 Q119 36 119 32.5 Q119 29 118 24 Q118 17 113 12 Q108 7 101 5 Q100 4 96 4 Z M34 728 Q26 728 22 730 Q14 731 0 738 Q-18 748 -25 763 Q-33 779 -26 799 Q-21 814 -14 821 Q2 838 18.5 857 Q35 876 55 896 Q66 909 83 909 Q88 909 96 906 Q106 904 116 899 Q126 894 135 884 Q147 872 147 855 Q147 836 135 821 Q129 813 123 806 Q117 799 111 792 Q104 784 97.5 775.5 Q91 767 83 759 Q78 754 71.5 747 Q65 740 56 735 Q46 728 34 728 Z " />
<glyph glyph-name="Icircumflex" unicode="&#xce;" horiz-adv-x="156" d="M96 4 L84 4 Q73 5 61 5 Q49 5 37 6 Q31 7 26 11 Q21 15 19 21 Q18 26 17 31 Q16 36 16 41 Q15 63 14.5 85 Q14 107 13 129 Q12 139 12 149 Q12 159 11 169 L11 171 L11 179 Q8 190 7.5 202 Q7 214 7 225 L7 237 Q6 254 6 270 Q6 286 5 303 Q5 315 4.5 326.5 Q4 338 4 350 L4 353 L4 373 Q6 389 5.5 405.5 Q5 422 3 442 Q0 472 3 503 Q3 513 3.5 524 Q4 535 2 546 Q1 551 0.5 557.5 Q0 564 2 570 Q4 580 4 589.5 Q4 599 4 610 Q4 614 3.5 617.5 Q3 621 3 624 Q4 636 4 645.5 Q4 655 5 664 Q7 681 23 688 Q31 693 40 693.5 Q49 694 58 694 L60 694 L64 694 Q98 694 99 659 Q99 652 99.5 644.5 Q100 637 100 629 Q100 609 102 588.5 Q104 568 106 548 Q107 542 107.5 536 Q108 530 109 523 Q111 515 111 506.5 Q111 498 111 490 Q112 473 112.5 452.5 Q113 432 116 411 Q117 408 117 405 Q117 402 118 398 Q118 390 118.5 383 Q119 376 119 368 Q121 340 122 311.5 Q123 283 122 254 Q122 240 121.5 225.5 Q121 211 120 197 Q120 191 119.5 185 Q119 179 119 173 L119 143 L119 40 Q119 36 119 32.5 Q119 29 118 24 Q118 17 113 12 Q108 7 101 5 Q100 4 96 4 Z M-9 730 Q-18 730 -25 733 Q-31 737 -34 738 Q-37 740 -41 742 Q-66 754 -68 789 Q-68 801 -61 811 Q-57 818 -52 824 Q-47 830 -42 835 Q-34 843 -25 850.5 Q-16 858 -5 868 Q-2 870 1 872 Q4 874 6 876 Q12 881 17.5 885 Q23 889 28 894 Q44 910 67 910 Q70 910 73 909.5 Q76 909 79 909 Q101 906 117 891 Q128 880 136.5 871 Q145 862 151 851 L152 849 Q157 841 161.5 834 Q166 827 172 821 Q185 808 183 785 Q180 759 165 750 Q165 749 164 749 Q164 748 163 748 Q145 733 124 733 Q106 733 87 747 Q83 750 80 752.5 Q77 755 74 757 Q71 762 67 763 Q64 766 61 768.5 Q58 771 54 774 Q54 775 53 775 Q53 773 51 773 Q46 768 42.5 764 Q39 760 34 756 L32 754 Q22 744 12 737 Q2 730 -9 730 Z " />
<glyph glyph-name="Idieresis" unicode="&#xcf;" horiz-adv-x="156" d="M96 4 L84 4 Q73 5 61 5 Q49 5 37 6 Q31 7 26 11 Q21 15 19 21 Q18 26 17 31 Q16 36 16 41 Q15 63 14.5 85 Q14 107 13 129 Q12 139 12 149 Q12 159 11 169 L11 171 L11 179 Q8 190 7.5 202 Q7 214 7 225 L7 237 Q6 254 6 270 Q6 286 5 303 Q5 315 4.5 326.5 Q4 338 4 350 L4 353 L4 373 Q6 389 5.5 405.5 Q5 422 3 442 Q0 472 3 503 Q3 513 3.5 524 Q4 535 2 546 Q1 551 0.5 557.5 Q0 564 2 570 Q4 580 4 589.5 Q4 599 4 610 Q4 614 3.5 617.5 Q3 621 3 624 Q4 636 4 645.5 Q4 655 5 664 Q7 681 23 688 Q31 693 40 693.5 Q49 694 58 694 L60 694 L64 694 Q98 694 99 659 Q99 652 99.5 644.5 Q100 637 100 629 Q100 609 102 588.5 Q104 568 106 548 Q107 542 107.5 536 Q108 530 109 523 Q111 515 111 506.5 Q111 498 111 490 Q112 473 112.5 452.5 Q113 432 116 411 Q117 408 117 405 Q117 402 118 398 Q118 390 118.5 383 Q119 376 119 368 Q121 340 122 311.5 Q123 283 122 254 Q122 240 121.5 225.5 Q121 211 120 197 Q120 191 119.5 185 Q119 179 119 173 L119 143 L119 40 Q119 36 119 32.5 Q119 29 118 24 Q118 17 113 12 Q108 7 101 5 Q100 4 96 4 Z M115 728 Q106 728 98.5 731 Q91 734 84 738 Q81 740 79 742.5 Q77 745 75 747 Q63 763 64 782.5 Q65 802 78 817 Q82 821 86 824.5 Q90 828 95 832 Q105 840 116 840 Q118 840 119.5 839.5 Q121 839 123 839 L126 838 Q130 837 134 836.5 Q138 836 142 834 Q170 825 174 798 Q182 755 144 734 Q133 728 120 728 L118 728 L115 728 Z M-12 732 L-13 732 Q-15 732 -17.5 732.5 Q-20 733 -22 733 Q-52 737 -58 769 Q-64 796 -46 823 Q-42 829 -36.5 832 Q-31 835 -26 837 Q-20 839 -14 840 Q-8 841 -3 841 Q22 841 40 818 Q54 801 49 781 Q45 755 31 743 Q23 738 13.5 735 Q4 732 -10 732 L-11 732 L-12 732 Z " />
<glyph glyph-name="Ntilde" unicode="&#xd1;" horiz-adv-x="660" d="M81 6 L74 6 Q69 7 63.5 7.5 Q58 8 52 9 Q48 9 44.5 9.5 Q41 10 37 10 Q20 12 14 18.5 Q8 25 3 39 Q1 48 0.5 56.5 Q0 65 0 73 L0 99 L0 172 Q0 236 3 298 Q3 309 3.5 320 Q4 331 4 342 L4 349 Q5 372 5 395.5 Q5 419 3 442 Q2 450 2 456.5 Q2 463 2 471 L2 486 Q1 508 2 529.5 Q3 551 4 572 Q4 585 4.5 597.5 Q5 610 5 622 Q6 633 7 643.5 Q8 654 10 664 Q10 666 10.5 667 Q11 668 11 670 Q14 695 42 700 Q47 701 52 701.5 Q57 702 62 702 Q67 702 72 701.5 Q77 701 82 700 Q102 697 116 680 Q133 658 151 636.5 Q169 615 186 594 L198 579 Q202 574 206.5 569.5 Q211 565 216 559 Q242 532 268.5 502.5 Q295 473 321 441 Q325 437 328.5 433 Q332 429 337 424 Q349 412 359 399 Q369 386 379 373 Q381 370 383.5 367 Q386 364 388 360 Q390 358 391 356.5 Q392 355 394 353 Q400 344 407 337 Q425 319 443.5 301 Q462 283 479 265 L480 264 L480 274 Q480 283 480 292 Q480 301 479 310 Q479 317 479 323.5 Q479 330 478 337 L478 354 Q477 359 477 364.5 Q477 370 477 376 L477 399 L477 428 L477 459 L477 551 Q476 562 475.5 572.5 Q475 583 473 594 Q473 601 472.5 607.5 Q472 614 471 621 Q470 631 469.5 641.5 Q469 652 470 663 Q471 675 477.5 685 Q484 695 497 700 Q505 703 515 705 Q525 707 537 707 Q547 707 559 701 Q586 689 588 657 Q590 628 592 598.5 Q594 569 594 539 Q593 513 594 488 Q595 463 596 437 L596 434 Q598 405 598.5 378.5 Q599 352 597 328 Q596 311 596.5 295 Q597 279 598 262 Q598 253 598.5 243.5 Q599 234 599 224 Q599 207 600 189.5 Q601 172 603 155 L603 145 Q605 126 605.5 107 Q606 88 607 69 Q607 66 607.5 62.5 Q608 59 608 55 Q609 41 598 30.5 Q587 20 575 19 L570 19 Q568 19 565 18.5 Q562 18 558 18 Q553 18 549.5 18.5 Q546 19 542 20 L539 21 L538 22 Q511 44 489 72 Q480 84 470.5 95.5 Q461 107 451 118 Q443 128 434.5 137.5 Q426 147 418 158 Q407 172 394.5 185 Q382 198 370 211 Q366 214 363 217.5 Q360 221 356 225 Q341 241 329 254.5 Q317 268 307 282 Q300 291 292 300 Q284 309 276 318 Q273 321 269.5 324.5 Q266 328 263 332 L254 341 Q250 345 246.5 348.5 Q243 352 239 357 Q225 376 209 393 Q193 410 174 430 Q163 441 153 452 Q143 463 132 474 Q130 474 130 476 L130 427 Q130 393 130 358 Q130 323 131 288 Q132 260 132 228.5 Q132 197 130 164 Q129 159 129.5 153.5 Q130 148 130 143 L130 130 Q130 127 130 123.5 Q130 120 131 116 L131 62 Q131 55 130 48.5 Q129 42 127 35 Q121 12 95 7 Q91 6 81 6 Z M202 703 Q196 703 186 707 Q185 708 184.5 708 Q184 708 183 709 Q177 711 174 714 Q149 733 153 760 Q155 782 171 801 Q178 809 183 812 Q185 813 186.5 813.5 Q188 814 190 815 Q206 825 226 833 Q241 838 256 838 Q260 838 264 838 Q268 838 273 837 Q288 834 299 830 Q310 826 320 819 Q324 817 327 815 L333 812 Q337 810 342 810 Q353 810 360 817 Q360 818 361 819 Q362 820 362 820.5 Q362 821 363 822 Q364 823 364 823 Q366 825 367 826.5 Q368 828 370 830 Q381 840 396 840 Q404 840 410.5 838 Q417 836 424 833 Q450 822 448 793 Q447 782 445 773.5 Q443 765 440 757 Q419 704 360 704 L355 704 L354 704 Q350 705 347 705.5 Q344 706 339 706 Q328 708 314.5 710.5 Q301 713 288 721 Q282 724 273 727 Q269 729 267 729 Q264 731 257 731 Q249 731 241 726 Q237 724 230 717 L226 713 Q213 703 202 703 Z " />
<glyph glyph-name="Ograve" unicode="&#xd2;" horiz-adv-x="706" d="M345 6 Q309 6 273 12 L268 12 Q258 14 248.5 15.5 Q239 17 230 20 Q228 20 227 20.5 Q226 21 224 21 Q219 23 213.5 24.5 Q208 26 203 29 Q197 34 190 37 Q183 40 175 44 Q171 46 167 48.5 Q163 51 158 53 Q138 64 120.5 77 Q103 90 86 104 Q50 135 34 179 Q26 199 21.5 218 Q17 237 12 257 Q4 288 3 316 Q2 344 2 356 Q0 403 3 435.5 Q6 468 14 497 L14 500 Q16 505 17 509.5 Q18 514 20 519 Q39 563 61 591 Q68 599 76.5 606 Q85 613 93 620 Q95 621 97 623 Q115 636 136 650 Q154 661 172 670.5 Q190 680 210 687 Q214 689 218 690 Q222 691 226 693 Q233 697 240 698.5 Q247 700 255 702 Q269 704 282 705.5 Q295 707 308 707 Q323 707 337.5 705.5 Q352 704 366 699 Q368 699 369.5 698.5 Q371 698 373 698 Q377 695 383 695 Q422 689 450 667 Q452 666 454 665.5 Q456 665 459 663 Q460 662 461 662 Q471 658 475 657 L496 648 Q534 631 554 607 L563 598 L567 594 Q595 565 608 532 Q617 511 624 492.5 Q631 474 637 457 Q658 390 651 318 Q649 291 643.5 264 Q638 237 631 211 Q622 172 602.5 140.5 Q583 109 565 86 Q562 82 558.5 79 Q555 76 550 72 Q506 35 457 23 Q453 22 449.5 21 Q446 20 442 19 Q435 17 428.5 15 Q422 13 414 11 Q397 9 379.5 7.5 Q362 6 345 6 Z M294 585 L292 585 Q276 583 258 580 Q240 577 223 570 Q201 561 191 549 Q159 511 140 472 Q127 442 118 398 Q117 393 117 386 Q119 375 119 365 Q119 355 119 345 L119 322 L119 321 L119 308 Q119 300 119 292.5 Q119 285 120 277 Q120 258 126 245 L127 244 Q132 233 137.5 223.5 Q143 214 151 206 Q178 174 212 156 Q215 154 218 152.5 Q221 151 223 149 Q227 147 230 145.5 Q233 144 236 142 Q240 140 242 138 Q253 133 262.5 128.5 Q272 124 283 124 Q290 124 293 123 L294 123 Q316 118 334 118 Q360 118 390 126 Q391 127 392 127 Q393 127 394 128 L406 131 Q415 132 423.5 135 Q432 138 440 142 Q442 143 443.5 143.5 Q445 144 447 145 Q469 154 487 179 Q497 192 504 204 Q511 216 517 230 Q537 275 542 321 Q548 374 533 440 Q529 457 521.5 472.5 Q514 488 506 502 Q500 510 492 516 Q489 518 485.5 520 Q482 522 479 524 Q469 530 459.5 536.5 Q450 543 440 549 Q429 557 417 561.5 Q405 566 392 569 Q370 574 347.5 578 Q325 582 302 584 L301 585 L294 585 Z M344 743 Q341 743 338.5 743.5 Q336 744 333 744 Q304 752 293 773 Q285 784 277.5 795 Q270 806 262 817 Q257 824 252 831 Q247 838 242 845 Q240 847 238 851 Q228 869 236 887 Q245 909 269 920 Q273 922 277 923 Q281 924 286 926 Q288 927 289.5 927 Q291 927 293 928 L296 929 L298 928 Q300 928 301 927.5 Q302 927 304 927 Q306 926 309 925.5 Q312 925 315 923 Q334 915 349 900 Q371 873 397 843 Q401 838 403 833.5 Q405 829 407 824 Q419 794 396 771 L393 768 Q385 761 378 755 Q371 749 360 746 Q351 743 344 743 Z " />
</font>
</svg>
